<svg width="40" height="40" viewBox="0 0 40 40" fill="none" xmlns="http://www.w3.org/2000/svg">
<path d="M20 38.75C30.3553 38.75 38.75 30.3553 38.75 20C38.75 9.64466 30.3553 1.25 20 1.25C9.64466 1.25 1.25 9.64466 1.25 20C1.25 30.3553 9.64466 38.75 20 38.75Z" fill="#FFDD67"/>
<path d="M25.625 31.0625C22 28.0625 18 28.0625 14.375 31.0625C13.9375 31.4375 13.5625 30.8125 13.875 30.25C15 28.125 17.1875 26.1875 20 26.1875C22.8125 26.1875 25.0625 28.125 26.125 30.25C26.4375 30.75 26.0625 31.375 25.625 31.0625Z" fill="#664E27"/>
<path d="M6.37499 15.5625C5.43749 18.5 6.74999 21.8125 9.68749 23.125C12.5625 24.5 15.9375 23.4375 17.625 20.8125L13.3125 16L6.37499 15.5625Z" fill="white"/>
<path d="M8.87499 16.1249C7.99999 17.9374 8.81249 20.1249 10.625 20.9374C12.4375 21.8124 14.625 20.9999 15.4375 19.1874C16.0625 17.9999 9.43749 14.9374 8.87499 16.1249Z" fill="#664E27"/>
<path d="M6.375 15.5625C7.375 14.9375 8.5625 14.625 9.75 14.625C10.9375 14.625 12.125 14.9375 13.25 15.4375C14.3125 15.9375 15.3125 16.6875 16.125 17.5625C16.875 18.5 17.5 19.5625 17.625 20.75C16.8125 19.9375 16 19.25 15.125 18.625C14.25 18 13.375 17.5 12.5 17.125C11.5625 16.6875 10.625 16.375 9.625 16.0625C8.5 15.875 7.5 15.6875 6.375 15.5625Z" fill="#664E27"/>
<path d="M33.625 15.5625C34.5625 18.5 33.25 21.8125 30.3125 23.125C27.4375 24.5 24.0625 23.4375 22.375 20.8125L26.6875 16L33.625 15.5625Z" fill="white"/>
<path d="M31.125 16.1249C32 17.9374 31.1875 20.1249 29.375 20.9374C27.5625 21.8124 25.375 20.9999 24.5625 19.1874C23.9375 17.9999 30.5625 14.9374 31.125 16.1249Z" fill="#664E27"/>
<path d="M33.625 15.5625C32.625 14.9375 31.4375 14.625 30.25 14.625C29.0625 14.625 27.875 14.9375 26.75 15.4375C25.6875 15.9375 24.6875 16.6875 23.875 17.5625C23.125 18.5 22.5 19.5625 22.375 20.75C23.1875 19.9375 24 19.25 24.875 18.625C25.75 18 26.625 17.5 27.5 17.125C28.4375 16.6875 29.375 16.375 30.375 16.0625C31.5 15.875 32.5 15.6875 33.625 15.5625Z" fill="#664E27"/>
</svg>
