<svg width="48" height="54" viewBox="0 0 48 54" fill="none" xmlns="http://www.w3.org/2000/svg">
<rect width="48" height="54" rx="20" fill="white"/>
<path d="M33 21.5C33 23.43 31.43 25 29.5 25C27.57 25 26 23.43 26 21.5C26 19.57 27.57 18 29.5 18C31.43 18 33 19.57 33 21.5ZM31 26.79C30.5 26.92 30 27 29.5 27C28.0421 26.9974 26.6447 26.4171 25.6138 25.3862C24.583 24.3553 24.0026 22.9579 24 21.5C24 20.03 24.58 18.7 25.5 17.71C25.3185 17.4875 25.0897 17.3084 24.8302 17.1855C24.5707 17.0627 24.2871 16.9993 24 17C22.9 17 22 17.9 22 19V19.29C19.03 20.17 17 22.9 17 26V32L15 34V35H33V34L31 32V26.79ZM24 38C25.11 38 26 37.11 26 36H22C22 36.5304 22.2107 37.0391 22.5858 37.4142C22.9609 37.7893 23.4696 38 24 38Z" fill="#233876"/>
</svg>
