<svg width="644" height="257" viewBox="0 0 644 257" fill="none" xmlns="http://www.w3.org/2000/svg">
<line x1="29.0905" y1="5.5" x2="643.09" y2="5.5" stroke="#F2F2F2"/>
<line x1="29.0905" y1="54.5" x2="643.09" y2="54.5" stroke="#F2F2F2"/>
<line x1="29.0905" y1="103.5" x2="643.09" y2="103.5" stroke="#F2F2F2"/>
<line x1="29.0905" y1="152.5" x2="643.09" y2="152.5" stroke="#F2F2F2"/>
<rect x="66.2053" y="35" width="6" height="22" rx="3" fill="#D08726"/>
<rect x="66.2053" y="65" width="6" height="67" rx="3" fill="#478F96"/>
<rect x="66.2053" y="140" width="6" height="36" rx="3" fill="#CA6B6E"/>
<rect x="98.2053" y="13" width="6" height="28" rx="3" fill="#D08726"/>
<rect x="98.2053" y="49" width="6" height="103" rx="3" fill="#478F96"/>
<rect x="98.2053" y="160" width="6" height="16" rx="3" fill="#CA6B6E"/>
<rect x="130.205" y="52" width="6" height="15" rx="3" fill="#D08726"/>
<rect x="130.205" y="75" width="6" height="16" rx="3" fill="#478F96"/>
<rect x="130.205" y="99" width="6" height="77" rx="3" fill="#CA6B6E"/>
<rect x="162.205" y="61" width="6" height="11" rx="3" fill="#D08726"/>
<rect x="162.205" y="80" width="6" height="31" rx="3" fill="#478F96"/>
<rect x="162.205" y="119" width="6" height="57" rx="3" fill="#CA6B6E"/>
<rect x="194.205" y="47" width="6" height="59" rx="3" fill="#D08726"/>
<rect x="194.205" y="114" width="6" height="31" rx="3" fill="#478F96"/>
<rect x="194.205" y="153" width="6" height="23" rx="3" fill="#CA6B6E"/>
<rect x="226.205" y="58" width="6" height="11" rx="3" fill="#D08726"/>
<rect x="226.205" y="77" width="6" height="60" rx="3" fill="#478F96"/>
<rect x="226.205" y="145" width="6" height="31" rx="3" fill="#CA6B6E"/>
<rect x="258.205" y="8" width="6" height="25" rx="3" fill="#D08726"/>
<rect x="258.205" y="41" width="6" height="42" rx="3" fill="#478F96"/>
<rect x="258.205" y="91" width="6" height="85" rx="3" fill="#CA6B6E"/>
<rect x="290.205" y="36" width="6" height="25" rx="3" fill="#D08726"/>
<rect x="290.205" y="69" width="6" height="65" rx="3" fill="#478F96"/>
<rect x="290.205" y="142" width="6" height="34" rx="3" fill="#CA6B6E"/>
<rect x="322.205" y="30" width="6" height="49" rx="3" fill="#D08726"/>
<rect x="322.205" y="87" width="6" height="65" rx="3" fill="#478F96"/>
<rect x="322.205" y="160" width="6" height="16" rx="3" fill="#CA6B6E"/>
<rect x="354.205" y="52" width="6" height="64" rx="3" fill="#D08726"/>
<rect x="354.205" y="124" width="6" height="21" rx="3" fill="#478F96"/>
<rect x="354.205" y="153" width="6" height="23" rx="3" fill="#CA6B6E"/>
<rect x="386.205" y="91" width="6" height="25" rx="3" fill="#D08726"/>
<rect x="386.205" y="124" width="6" height="21" rx="3" fill="#478F96"/>
<rect x="386.205" y="153" width="6" height="23" rx="3" fill="#CA6B6E"/>
<rect x="418.205" y="57" width="6" height="25" rx="3" fill="#D08726"/>
<rect x="418.205" y="90" width="6" height="21" rx="3" fill="#478F96"/>
<rect x="418.205" y="119" width="6" height="57" rx="3" fill="#CA6B6E"/>
<rect x="450.205" y="18" width="6" height="53" rx="3" fill="#D08726"/>
<rect x="450.205" y="79" width="6" height="58" rx="3" fill="#478F96"/>
<rect x="450.205" y="145" width="6" height="31" rx="3" fill="#CA6B6E"/>
<rect x="482.205" y="26" width="6" height="53" rx="3" fill="#D08726"/>
<rect x="482.205" y="87" width="6" height="21" rx="3" fill="#478F96"/>
<rect x="482.205" y="116" width="6" height="60" rx="3" fill="#CA6B6E"/>
<rect x="514.205" y="51" width="6" height="25" rx="3" fill="#D08726"/>
<rect x="514.205" y="84" width="6" height="21" rx="3" fill="#478F96"/>
<rect x="514.205" y="113" width="6" height="63" rx="3" fill="#CA6B6E"/>
<rect x="546.205" y="21" width="6" height="12" rx="3" fill="#D08726"/>
<rect x="546.205" y="41" width="6" height="42" rx="3" fill="#478F96"/>
<rect x="546.205" y="91" width="6" height="85" rx="3" fill="#CA6B6E"/>
<rect x="578.205" y="88" width="6" height="12" rx="3" fill="#D08726"/>
<rect x="578.205" y="108" width="6" height="21" rx="3" fill="#478F96"/>
<rect x="578.205" y="137" width="6" height="39" rx="3" fill="#CA6B6E"/>
<rect x="610.205" y="20" width="6" height="25" rx="3" fill="#D08726"/>
<rect x="610.205" y="53" width="6" height="58" rx="3" fill="#478F96"/>
<rect x="610.205" y="119" width="6" height="57" rx="3" fill="#CA6B6E"/>
<path d="M3.78308 10.11C3.27642 10.11 2.83308 10.02 2.45308 9.84C2.07975 9.66 1.78642 9.41333 1.57308 9.1C1.36642 8.78667 1.26308 8.43 1.26308 8.03C1.26308 7.69667 1.32642 7.39667 1.45308 7.13C1.58642 6.86333 1.76975 6.64 2.00308 6.46C2.24308 6.28 2.51975 6.15667 2.83308 6.09L2.80308 6.41C2.53642 6.35 2.30975 6.24 2.12308 6.08C1.93642 5.91333 1.79308 5.71333 1.69308 5.48C1.59308 5.24667 1.54308 5.00333 1.54308 4.75C1.54308 4.37667 1.63642 4.04667 1.82308 3.76C2.01642 3.46667 2.28308 3.23667 2.62308 3.07C2.96308 2.90333 3.34975 2.82 3.78308 2.82C4.22308 2.82 4.60975 2.90333 4.94308 3.07C5.28308 3.23667 5.54642 3.46667 5.73308 3.76C5.92642 4.04667 6.02308 4.37667 6.02308 4.75C6.02308 5.00333 5.97308 5.24667 5.87308 5.48C5.77975 5.71333 5.63975 5.91333 5.45308 6.08C5.26642 6.24 5.03975 6.35 4.77308 6.41L4.73308 6.09C5.05308 6.15667 5.32975 6.28 5.56308 6.46C5.80308 6.64 5.98642 6.86333 6.11308 7.13C6.23975 7.39667 6.30308 7.69667 6.30308 8.03C6.30308 8.43 6.19975 8.78667 5.99308 9.1C5.78642 9.41333 5.49308 9.66 5.11308 9.84C4.73975 10.02 4.29642 10.11 3.78308 10.11ZM3.78308 8.77C3.98308 8.77 4.15975 8.73 4.31308 8.65C4.46642 8.56333 4.58642 8.44667 4.67308 8.3C4.76642 8.15333 4.81308 7.99 4.81308 7.81C4.81308 7.62333 4.76642 7.46 4.67308 7.32C4.58642 7.17333 4.46642 7.06 4.31308 6.98C4.15975 6.89333 3.98308 6.85 3.78308 6.85C3.58308 6.85 3.40642 6.89333 3.25308 6.98C3.09975 7.06 2.97975 7.17333 2.89308 7.32C2.80642 7.46 2.76308 7.62333 2.76308 7.81C2.76308 7.99 2.80642 8.15333 2.89308 8.3C2.97975 8.44667 3.09975 8.56333 3.25308 8.65C3.40642 8.73 3.58308 8.77 3.78308 8.77ZM3.78308 5.71C4.01642 5.71 4.20642 5.63667 4.35308 5.49C4.50642 5.33667 4.58308 5.14667 4.58308 4.92C4.58308 4.68667 4.50642 4.49667 4.35308 4.35C4.20642 4.19667 4.01642 4.12 3.78308 4.12C3.55642 4.12 3.36642 4.19333 3.21308 4.34C3.05975 4.48667 2.98308 4.67667 2.98308 4.91C2.98308 5.13667 3.05975 5.32667 3.21308 5.48C3.36642 5.63333 3.55642 5.71 3.78308 5.71ZM9.92832 10.11C9.36165 10.11 8.84832 9.95667 8.38832 9.65C7.92832 9.34333 7.56498 8.91667 7.29832 8.37C7.03832 7.81667 6.90832 7.18 6.90832 6.46C6.90832 5.73333 7.03832 5.1 7.29832 4.56C7.55832 4.01333 7.91498 3.59 8.36832 3.29C8.82165 2.98333 9.33498 2.83 9.90832 2.83C10.4883 2.83 11.005 2.98333 11.4583 3.29C11.9117 3.59 12.2683 4.01333 12.5283 4.56C12.795 5.10667 12.9283 5.74333 12.9283 6.47C12.9283 7.19667 12.795 7.83333 12.5283 8.38C12.2683 8.92667 11.9117 9.35333 11.4583 9.66C11.0117 9.96 10.5017 10.11 9.92832 10.11ZM9.91832 8.72C10.2117 8.72 10.465 8.63667 10.6783 8.47C10.8917 8.29667 11.055 8.04333 11.1683 7.71C11.2883 7.37 11.3483 6.95667 11.3483 6.47C11.3483 5.97667 11.2883 5.56333 11.1683 5.23C11.055 4.89667 10.8917 4.64667 10.6783 4.48C10.465 4.30667 10.2083 4.22 9.90832 4.22C9.62165 4.22 9.36832 4.30333 9.14832 4.47C8.93498 4.63667 8.77165 4.88667 8.65832 5.22C8.54498 5.55333 8.48832 5.96667 8.48832 6.46C8.48832 6.95333 8.54498 7.36667 8.65832 7.7C8.77165 8.03333 8.93498 8.28667 9.14832 8.46C9.36832 8.63333 9.62498 8.72 9.91832 8.72ZM15.0585 5.78C14.7851 5.78 14.5351 5.71667 14.3085 5.59C14.0885 5.45667 13.9118 5.28 13.7785 5.06C13.6451 4.83333 13.5785 4.58 13.5785 4.3C13.5785 4.02667 13.6451 3.78 13.7785 3.56C13.9118 3.34 14.0885 3.16667 14.3085 3.04C14.5285 2.90667 14.7751 2.84 15.0485 2.84C15.3351 2.84 15.5885 2.90667 15.8085 3.04C16.0351 3.16667 16.2151 3.34 16.3485 3.56C16.4818 3.78 16.5485 4.02667 16.5485 4.3C16.5485 4.58 16.4818 4.83333 16.3485 5.06C16.2151 5.28 16.0351 5.45667 15.8085 5.59C15.5885 5.71667 15.3385 5.78 15.0585 5.78ZM15.0585 4.74C15.1851 4.74 15.2885 4.7 15.3685 4.62C15.4485 4.54 15.4885 4.43667 15.4885 4.31C15.4885 4.18333 15.4485 4.08 15.3685 4C15.2885 3.92 15.1851 3.88 15.0585 3.88C14.9385 3.88 14.8385 3.92 14.7585 4C14.6785 4.08 14.6385 4.18333 14.6385 4.31C14.6385 4.43667 14.6785 4.54 14.7585 4.62C14.8385 4.7 14.9385 4.74 15.0585 4.74ZM18.2785 10.1C18.0051 10.1 17.7551 10.0333 17.5285 9.9C17.3085 9.76667 17.1318 9.59 16.9985 9.37C16.8651 9.14333 16.7985 8.89333 16.7985 8.62C16.7985 8.34 16.8651 8.09333 16.9985 7.88C17.1318 7.66 17.3085 7.48333 17.5285 7.35C17.7485 7.21667 17.9951 7.15 18.2685 7.15C18.5551 7.15 18.8085 7.21667 19.0285 7.35C19.2551 7.48333 19.4351 7.66 19.5685 7.88C19.7018 8.09333 19.7685 8.34 19.7685 8.62C19.7685 8.89333 19.7018 9.14333 19.5685 9.37C19.4351 9.59667 19.2551 9.77667 19.0285 9.91C18.8085 10.0367 18.5585 10.1 18.2785 10.1ZM18.2785 9.06C18.4051 9.06 18.5085 9.02 18.5885 8.94C18.6685 8.86 18.7085 8.75333 18.7085 8.62C18.7085 8.5 18.6685 8.4 18.5885 8.32C18.5085 8.23333 18.4051 8.19 18.2785 8.19C18.1585 8.19 18.0585 8.23333 17.9785 8.32C17.8985 8.4 17.8585 8.5 17.8585 8.62C17.8585 8.75333 17.8985 8.86 17.9785 8.94C18.0585 9.02 18.1585 9.06 18.2785 9.06ZM13.8585 10L18.0885 2.94H19.4885L15.2585 10H13.8585Z" fill="#A1A1A1"/>
<path d="M3.84308 59.11C3.34975 59.11 2.90308 59 2.50308 58.78C2.10975 58.56 1.79642 58.2667 1.56308 57.9C1.33642 57.5267 1.22308 57.11 1.22308 56.65C1.22308 56.05 1.43308 55.4433 1.85308 54.83L3.84308 51.94H5.61308L3.40308 55.02L2.81308 55.07C2.90642 54.91 3.00308 54.7733 3.10308 54.66C3.20975 54.54 3.34308 54.45 3.50308 54.39C3.66308 54.3233 3.86642 54.29 4.11308 54.29C4.55308 54.29 4.94642 54.3933 5.29308 54.6C5.64642 54.8 5.92975 55.0767 6.14308 55.43C6.35642 55.7767 6.46308 56.1767 6.46308 56.63C6.46308 57.09 6.34642 57.51 6.11308 57.89C5.87975 58.2633 5.56642 58.56 5.17308 58.78C4.77975 59 4.33642 59.11 3.84308 59.11ZM3.84308 57.74C4.04975 57.74 4.23642 57.69 4.40308 57.59C4.56975 57.49 4.69975 57.3533 4.79308 57.18C4.88642 57.0067 4.93308 56.8133 4.93308 56.6C4.93308 56.38 4.88642 56.1867 4.79308 56.02C4.69975 55.8467 4.56975 55.7133 4.40308 55.62C4.23642 55.52 4.04975 55.47 3.84308 55.47C3.62975 55.47 3.43975 55.52 3.27308 55.62C3.11308 55.7133 2.98642 55.8467 2.89308 56.02C2.79975 56.1867 2.75308 56.38 2.75308 56.6C2.75308 56.8133 2.79975 57.0067 2.89308 57.18C2.98642 57.3533 3.11308 57.49 3.27308 57.59C3.43975 57.69 3.62975 57.74 3.84308 57.74ZM10.0455 59.11C9.47884 59.11 8.96551 58.9567 8.50551 58.65C8.04551 58.3433 7.68217 57.9167 7.41551 57.37C7.15551 56.8167 7.02551 56.18 7.02551 55.46C7.02551 54.7333 7.15551 54.1 7.41551 53.56C7.67551 53.0133 8.03217 52.59 8.48551 52.29C8.93884 51.9833 9.45217 51.83 10.0255 51.83C10.6055 51.83 11.1222 51.9833 11.5755 52.29C12.0288 52.59 12.3855 53.0133 12.6455 53.56C12.9122 54.1067 13.0455 54.7433 13.0455 55.47C13.0455 56.1967 12.9122 56.8333 12.6455 57.38C12.3855 57.9267 12.0288 58.3533 11.5755 58.66C11.1288 58.96 10.6188 59.11 10.0455 59.11ZM10.0355 57.72C10.3288 57.72 10.5822 57.6367 10.7955 57.47C11.0088 57.2967 11.1722 57.0433 11.2855 56.71C11.4055 56.37 11.4655 55.9567 11.4655 55.47C11.4655 54.9767 11.4055 54.5633 11.2855 54.23C11.1722 53.8967 11.0088 53.6467 10.7955 53.48C10.5822 53.3067 10.3255 53.22 10.0255 53.22C9.73884 53.22 9.48551 53.3033 9.26551 53.47C9.05217 53.6367 8.88884 53.8867 8.77551 54.22C8.66217 54.5533 8.60551 54.9667 8.60551 55.46C8.60551 55.9533 8.66217 56.3667 8.77551 56.7C8.88884 57.0333 9.05217 57.2867 9.26551 57.46C9.48551 57.6333 9.74217 57.72 10.0355 57.72ZM15.1757 54.78C14.9023 54.78 14.6523 54.7167 14.4257 54.59C14.2057 54.4567 14.029 54.28 13.8957 54.06C13.7623 53.8333 13.6957 53.58 13.6957 53.3C13.6957 53.0267 13.7623 52.78 13.8957 52.56C14.029 52.34 14.2057 52.1667 14.4257 52.04C14.6457 51.9067 14.8923 51.84 15.1657 51.84C15.4523 51.84 15.7057 51.9067 15.9257 52.04C16.1523 52.1667 16.3323 52.34 16.4657 52.56C16.599 52.78 16.6657 53.0267 16.6657 53.3C16.6657 53.58 16.599 53.8333 16.4657 54.06C16.3323 54.28 16.1523 54.4567 15.9257 54.59C15.7057 54.7167 15.4557 54.78 15.1757 54.78ZM15.1757 53.74C15.3023 53.74 15.4057 53.7 15.4857 53.62C15.5657 53.54 15.6057 53.4367 15.6057 53.31C15.6057 53.1833 15.5657 53.08 15.4857 53C15.4057 52.92 15.3023 52.88 15.1757 52.88C15.0557 52.88 14.9557 52.92 14.8757 53C14.7957 53.08 14.7557 53.1833 14.7557 53.31C14.7557 53.4367 14.7957 53.54 14.8757 53.62C14.9557 53.7 15.0557 53.74 15.1757 53.74ZM18.3957 59.1C18.1223 59.1 17.8723 59.0333 17.6457 58.9C17.4257 58.7667 17.249 58.59 17.1157 58.37C16.9823 58.1433 16.9157 57.8933 16.9157 57.62C16.9157 57.34 16.9823 57.0933 17.1157 56.88C17.249 56.66 17.4257 56.4833 17.6457 56.35C17.8657 56.2167 18.1123 56.15 18.3857 56.15C18.6723 56.15 18.9257 56.2167 19.1457 56.35C19.3723 56.4833 19.5523 56.66 19.6857 56.88C19.819 57.0933 19.8857 57.34 19.8857 57.62C19.8857 57.8933 19.819 58.1433 19.6857 58.37C19.5523 58.5967 19.3723 58.7767 19.1457 58.91C18.9257 59.0367 18.6757 59.1 18.3957 59.1ZM18.3957 58.06C18.5223 58.06 18.6257 58.02 18.7057 57.94C18.7857 57.86 18.8257 57.7533 18.8257 57.62C18.8257 57.5 18.7857 57.4 18.7057 57.32C18.6257 57.2333 18.5223 57.19 18.3957 57.19C18.2757 57.19 18.1757 57.2333 18.0957 57.32C18.0157 57.4 17.9757 57.5 17.9757 57.62C17.9757 57.7533 18.0157 57.86 18.0957 57.94C18.1757 58.02 18.2757 58.06 18.3957 58.06ZM13.9757 59L18.2057 51.94H19.6057L15.3757 59H13.9757Z" fill="#A1A1A1"/>
<path d="M1.18308 105.55L3.50308 100.94H5.21308L2.84308 105.55H1.18308ZM1.18308 106.43V105.55L1.70308 105.1H6.84308L6.84308 106.43H1.18308ZM4.51308 108V103.63H6.05308L6.05308 108H4.51308ZM10.4068 108.11C9.84017 108.11 9.32683 107.957 8.86683 107.65C8.40683 107.343 8.0435 106.917 7.77683 106.37C7.51683 105.817 7.38683 105.18 7.38683 104.46C7.38683 103.733 7.51683 103.1 7.77683 102.56C8.03683 102.013 8.3935 101.59 8.84683 101.29C9.30017 100.983 9.8135 100.83 10.3868 100.83C10.9668 100.83 11.4835 100.983 11.9368 101.29C12.3902 101.59 12.7468 102.013 13.0068 102.56C13.2735 103.107 13.4068 103.743 13.4068 104.47C13.4068 105.197 13.2735 105.833 13.0068 106.38C12.7468 106.927 12.3902 107.353 11.9368 107.66C11.4902 107.96 10.9802 108.11 10.4068 108.11ZM10.3968 106.72C10.6902 106.72 10.9435 106.637 11.1568 106.47C11.3702 106.297 11.5335 106.043 11.6468 105.71C11.7668 105.37 11.8268 104.957 11.8268 104.47C11.8268 103.977 11.7668 103.563 11.6468 103.23C11.5335 102.897 11.3702 102.647 11.1568 102.48C10.9435 102.307 10.6868 102.22 10.3868 102.22C10.1002 102.22 9.84683 102.303 9.62683 102.47C9.4135 102.637 9.25017 102.887 9.13683 103.22C9.0235 103.553 8.96683 103.967 8.96683 104.46C8.96683 104.953 9.0235 105.367 9.13683 105.7C9.25017 106.033 9.4135 106.287 9.62683 106.46C9.84683 106.633 10.1035 106.72 10.3968 106.72ZM15.537 103.78C15.2637 103.78 15.0137 103.717 14.787 103.59C14.567 103.457 14.3903 103.28 14.257 103.06C14.1237 102.833 14.057 102.58 14.057 102.3C14.057 102.027 14.1237 101.78 14.257 101.56C14.3903 101.34 14.567 101.167 14.787 101.04C15.007 100.907 15.2537 100.84 15.527 100.84C15.8137 100.84 16.067 100.907 16.287 101.04C16.5137 101.167 16.6937 101.34 16.827 101.56C16.9603 101.78 17.027 102.027 17.027 102.3C17.027 102.58 16.9603 102.833 16.827 103.06C16.6937 103.28 16.5137 103.457 16.287 103.59C16.067 103.717 15.817 103.78 15.537 103.78ZM15.537 102.74C15.6637 102.74 15.767 102.7 15.847 102.62C15.927 102.54 15.967 102.437 15.967 102.31C15.967 102.183 15.927 102.08 15.847 102C15.767 101.92 15.6637 101.88 15.537 101.88C15.417 101.88 15.317 101.92 15.237 102C15.157 102.08 15.117 102.183 15.117 102.31C15.117 102.437 15.157 102.54 15.237 102.62C15.317 102.7 15.417 102.74 15.537 102.74ZM18.757 108.1C18.4837 108.1 18.2337 108.033 18.007 107.9C17.787 107.767 17.6103 107.59 17.477 107.37C17.3437 107.143 17.277 106.893 17.277 106.62C17.277 106.34 17.3437 106.093 17.477 105.88C17.6103 105.66 17.787 105.483 18.007 105.35C18.227 105.217 18.4737 105.15 18.747 105.15C19.0337 105.15 19.287 105.217 19.507 105.35C19.7337 105.483 19.9137 105.66 20.047 105.88C20.1803 106.093 20.247 106.34 20.247 106.62C20.247 106.893 20.1803 107.143 20.047 107.37C19.9137 107.597 19.7337 107.777 19.507 107.91C19.287 108.037 19.037 108.1 18.757 108.1ZM18.757 107.06C18.8837 107.06 18.987 107.02 19.067 106.94C19.147 106.86 19.187 106.753 19.187 106.62C19.187 106.5 19.147 106.4 19.067 106.32C18.987 106.233 18.8837 106.19 18.757 106.19C18.637 106.19 18.537 106.233 18.457 106.32C18.377 106.4 18.337 106.5 18.337 106.62C18.337 106.753 18.377 106.86 18.457 106.94C18.537 107.02 18.637 107.06 18.757 107.06ZM14.337 108L18.567 100.94H19.967L15.737 108H14.337Z" fill="#A1A1A1"/>
<path d="M1.21308 156.12L3.92308 153.32C4.08975 153.153 4.22308 153 4.32308 152.86C4.42308 152.72 4.49642 152.59 4.54308 152.47C4.58975 152.343 4.61308 152.217 4.61308 152.09C4.61308 151.817 4.52308 151.603 4.34308 151.45C4.16975 151.29 3.93975 151.21 3.65308 151.21C3.37308 151.21 3.11975 151.287 2.89308 151.44C2.67308 151.587 2.45975 151.83 2.25308 152.17L1.20308 151.26C1.48308 150.787 1.83975 150.43 2.27308 150.19C2.70642 149.95 3.20308 149.83 3.76308 149.83C4.24975 149.83 4.66975 149.92 5.02308 150.1C5.38308 150.28 5.65975 150.537 5.85308 150.87C6.05308 151.203 6.15308 151.593 6.15308 152.04C6.15308 152.32 6.11642 152.58 6.04308 152.82C5.96975 153.053 5.84975 153.287 5.68308 153.52C5.52308 153.747 5.30642 153.997 5.03308 154.27L3.15308 156.14L1.21308 156.12ZM1.21308 157V156.12L2.54308 155.66H6.29308V157H1.21308ZM9.95761 157.11C9.39095 157.11 8.87761 156.957 8.41761 156.65C7.95761 156.343 7.59428 155.917 7.32761 155.37C7.06761 154.817 6.93761 154.18 6.93761 153.46C6.93761 152.733 7.06761 152.1 7.32761 151.56C7.58761 151.013 7.94428 150.59 8.39761 150.29C8.85095 149.983 9.36428 149.83 9.93761 149.83C10.5176 149.83 11.0343 149.983 11.4876 150.29C11.9409 150.59 12.2976 151.013 12.5576 151.56C12.8243 152.107 12.9576 152.743 12.9576 153.47C12.9576 154.197 12.8243 154.833 12.5576 155.38C12.2976 155.927 11.9409 156.353 11.4876 156.66C11.0409 156.96 10.5309 157.11 9.95761 157.11ZM9.94761 155.72C10.2409 155.72 10.4943 155.637 10.7076 155.47C10.9209 155.297 11.0843 155.043 11.1976 154.71C11.3176 154.37 11.3776 153.957 11.3776 153.47C11.3776 152.977 11.3176 152.563 11.1976 152.23C11.0843 151.897 10.9209 151.647 10.7076 151.48C10.4943 151.307 10.2376 151.22 9.93761 151.22C9.65095 151.22 9.39761 151.303 9.17761 151.47C8.96428 151.637 8.80095 151.887 8.68761 152.22C8.57428 152.553 8.51761 152.967 8.51761 153.46C8.51761 153.953 8.57428 154.367 8.68761 154.7C8.80095 155.033 8.96428 155.287 9.17761 155.46C9.39761 155.633 9.65428 155.72 9.94761 155.72ZM15.0878 152.78C14.8144 152.78 14.5644 152.717 14.3378 152.59C14.1178 152.457 13.9411 152.28 13.8078 152.06C13.6744 151.833 13.6078 151.58 13.6078 151.3C13.6078 151.027 13.6744 150.78 13.8078 150.56C13.9411 150.34 14.1178 150.167 14.3378 150.04C14.5578 149.907 14.8044 149.84 15.0778 149.84C15.3644 149.84 15.6178 149.907 15.8378 150.04C16.0644 150.167 16.2444 150.34 16.3778 150.56C16.5111 150.78 16.5778 151.027 16.5778 151.3C16.5778 151.58 16.5111 151.833 16.3778 152.06C16.2444 152.28 16.0644 152.457 15.8378 152.59C15.6178 152.717 15.3678 152.78 15.0878 152.78ZM15.0878 151.74C15.2144 151.74 15.3178 151.7 15.3978 151.62C15.4778 151.54 15.5178 151.437 15.5178 151.31C15.5178 151.183 15.4778 151.08 15.3978 151C15.3178 150.92 15.2144 150.88 15.0878 150.88C14.9678 150.88 14.8678 150.92 14.7878 151C14.7078 151.08 14.6678 151.183 14.6678 151.31C14.6678 151.437 14.7078 151.54 14.7878 151.62C14.8678 151.7 14.9678 151.74 15.0878 151.74ZM18.3078 157.1C18.0344 157.1 17.7844 157.033 17.5578 156.9C17.3378 156.767 17.1611 156.59 17.0278 156.37C16.8944 156.143 16.8278 155.893 16.8278 155.62C16.8278 155.34 16.8944 155.093 17.0278 154.88C17.1611 154.66 17.3378 154.483 17.5578 154.35C17.7778 154.217 18.0244 154.15 18.2978 154.15C18.5844 154.15 18.8378 154.217 19.0578 154.35C19.2844 154.483 19.4644 154.66 19.5978 154.88C19.7311 155.093 19.7978 155.34 19.7978 155.62C19.7978 155.893 19.7311 156.143 19.5978 156.37C19.4644 156.597 19.2844 156.777 19.0578 156.91C18.8378 157.037 18.5878 157.1 18.3078 157.1ZM18.3078 156.06C18.4344 156.06 18.5378 156.02 18.6178 155.94C18.6978 155.86 18.7378 155.753 18.7378 155.62C18.7378 155.5 18.6978 155.4 18.6178 155.32C18.5378 155.233 18.4344 155.19 18.3078 155.19C18.1878 155.19 18.0878 155.233 18.0078 155.32C17.9278 155.4 17.8878 155.5 17.8878 155.62C17.8878 155.753 17.9278 155.86 18.0078 155.94C18.0878 156.02 18.1878 156.06 18.3078 156.06ZM13.8878 157L18.1178 149.94H19.5178L15.2878 157H13.8878Z" fill="#A1A1A1"/>
<path d="M60.7506 206.931C60.3638 207.154 59.9861 207.28 59.6174 207.308C59.2511 207.327 58.8937 207.267 58.5449 207.13L58.9492 205.73C59.1365 205.815 59.3211 205.854 59.503 205.85C59.6907 205.841 59.874 205.785 60.053 205.682C60.2262 205.582 60.3563 205.461 60.4433 205.318C60.527 205.17 60.568 205.008 60.5664 204.831C60.5615 204.65 60.5006 204.458 60.384 204.255L58.049 200.211L59.4173 199.421L61.7073 203.388C61.9706 203.844 62.1066 204.292 62.1152 204.734C62.1238 205.175 62.0139 205.585 61.7857 205.963C61.5576 206.341 61.2125 206.664 60.7506 206.931ZM65.7186 204.051C65.3318 204.274 64.9303 204.379 64.5144 204.365C64.1041 204.348 63.7145 204.226 63.3456 204.001C62.9823 203.771 62.6791 203.446 62.4357 203.025C62.1924 202.603 62.0623 202.178 62.0455 201.749C62.0345 201.316 62.1241 200.918 62.3144 200.554C62.5103 200.187 62.8018 199.892 63.1886 199.669C63.4715 199.505 63.7572 199.413 64.0457 199.393C64.34 199.37 64.6159 199.414 64.8736 199.527C65.1279 199.634 65.3354 199.807 65.4961 200.045L66.5461 201.864C66.6721 202.122 66.7196 202.391 66.6886 202.671C66.66 202.941 66.562 203.198 66.3943 203.441C66.2267 203.684 66.0015 203.887 65.7186 204.051ZM65.297 202.701C65.58 202.537 65.7547 202.313 65.8212 202.028C65.8844 201.738 65.8327 201.448 65.666 201.16C65.5527 200.963 65.4123 200.814 65.2448 200.71C65.0831 200.603 64.9067 200.551 64.7157 200.554C64.5271 200.547 64.3405 200.597 64.1557 200.704C63.971 200.81 63.8314 200.949 63.7371 201.119C63.6452 201.279 63.5993 201.46 63.5993 201.66C63.6052 201.857 63.6647 202.053 63.7781 202.25C63.8881 202.44 64.0268 202.587 64.1943 202.691C64.3618 202.794 64.5427 202.847 64.7371 202.851C64.9314 202.854 65.1181 202.804 65.297 202.701ZM66.8291 203.294L66.1741 202.16L65.7832 201.023L64.9941 200.116L64.3991 199.085L65.6981 198.335L68.1281 202.544L66.8291 203.294ZM71.841 200.4L70.456 198.002C70.3293 197.782 70.1584 197.646 69.9431 197.593C69.7303 197.531 69.52 197.56 69.3122 197.68C69.1678 197.764 69.0592 197.869 68.9861 197.996C68.9098 198.117 68.8732 198.253 68.8763 198.406C68.8761 198.552 68.9177 198.697 69.0011 198.842L68.3451 198.885C68.1551 198.556 68.0606 198.226 68.0616 197.894C68.0626 197.563 68.1518 197.257 68.3292 196.978C68.509 196.689 68.7605 196.452 69.0838 196.265C69.3956 196.085 69.7132 196.002 70.0366 196.015C70.3624 196.02 70.6646 196.103 70.9431 196.265C71.2217 196.428 71.4443 196.653 71.611 196.942L73.166 199.635L71.841 200.4ZM69.061 202.005L66.631 197.797L67.9561 197.032L70.3861 201.24L69.061 202.005ZM76.5495 197.682L73.0195 191.568L74.3705 190.788L77.9005 196.902L76.5495 197.682ZM72.5067 193.4L71.8417 192.248L74.2839 190.838L74.9489 191.99L72.5067 193.4Z" fill="#A2A2A2"/>
<path d="M89.1692 207.431C88.7824 207.654 88.4046 207.78 88.036 207.808C87.6697 207.827 87.3122 207.767 86.9635 207.63L87.3678 206.23C87.5551 206.315 87.7397 206.354 87.9216 206.35C88.1092 206.341 88.2926 206.285 88.4715 206.182C88.6447 206.082 88.7748 205.961 88.8619 205.818C88.9456 205.67 88.9866 205.508 88.985 205.331C88.98 205.15 88.9192 204.958 88.8026 204.755L86.4676 200.711L87.8359 199.921L90.1259 203.888C90.3892 204.344 90.5252 204.792 90.5338 205.234C90.5423 205.675 90.4325 206.085 90.2043 206.463C89.9761 206.841 89.6311 207.164 89.1692 207.431ZM94.1372 204.551C93.7503 204.774 93.3489 204.879 92.9329 204.865C92.5227 204.848 92.1331 204.726 91.7641 204.501C91.4009 204.271 91.0977 203.946 90.8543 203.525C90.611 203.103 90.4809 202.678 90.4641 202.249C90.4531 201.816 90.5427 201.418 90.7329 201.054C90.9289 200.687 91.2203 200.392 91.6072 200.169C91.8901 200.005 92.1758 199.913 92.4643 199.893C92.7585 199.87 93.0345 199.914 93.2922 200.027C93.5465 200.134 93.754 200.307 93.9147 200.545L94.9647 202.364C95.0907 202.622 95.1382 202.891 95.1072 203.171C95.0786 203.441 94.9805 203.698 94.8129 203.941C94.6453 204.184 94.4201 204.387 94.1372 204.551ZM93.7156 203.201C93.9985 203.037 94.1733 202.813 94.2398 202.528C94.303 202.238 94.2513 201.948 94.0846 201.66C93.9713 201.463 93.8308 201.314 93.6634 201.21C93.5016 201.103 93.3253 201.051 93.1343 201.054C92.9457 201.047 92.759 201.097 92.5743 201.204C92.3895 201.31 92.25 201.449 92.1557 201.619C92.0638 201.779 92.0178 201.96 92.0179 202.16C92.0237 202.357 92.0833 202.553 92.1967 202.75C92.3067 202.94 92.4454 203.087 92.6129 203.191C92.7804 203.294 92.9613 203.347 93.1557 203.351C93.35 203.354 93.5367 203.304 93.7156 203.201ZM95.2476 203.794L94.5926 202.66L94.2018 201.523L93.4126 200.616L92.8176 199.585L94.1167 198.835L96.5467 203.044L95.2476 203.794ZM100.26 200.9L98.8746 198.502C98.7479 198.282 98.5769 198.146 98.3617 198.093C98.1489 198.031 97.9386 198.06 97.7308 198.18C97.5864 198.264 97.4777 198.369 97.4047 198.496C97.3283 198.617 97.2917 198.753 97.2949 198.906C97.2947 199.052 97.3363 199.197 97.4196 199.342L96.7637 199.385C96.5737 199.056 96.4792 198.726 96.4802 198.394C96.4812 198.063 96.5704 197.757 96.7477 197.478C96.9275 197.189 97.1791 196.952 97.5024 196.765C97.8142 196.585 98.1318 196.502 98.4551 196.515C98.781 196.52 99.0832 196.603 99.3617 196.765C99.6403 196.928 99.8629 197.153 100.03 197.442L101.585 200.135L100.26 200.9ZM97.4796 202.505L95.0496 198.297L96.3746 197.532L98.8046 201.74L97.4796 202.505ZM103.385 198.08L104.332 194.3C104.393 194.072 104.432 193.873 104.448 193.702C104.465 193.53 104.463 193.381 104.444 193.254C104.421 193.121 104.378 193 104.314 192.89C104.178 192.653 103.993 192.513 103.761 192.471C103.53 192.419 103.291 192.464 103.043 192.608C102.801 192.748 102.619 192.941 102.5 193.187C102.383 193.424 102.32 193.741 102.311 194.139L100.946 193.876C100.952 193.326 101.083 192.839 101.338 192.414C101.593 191.99 101.963 191.638 102.448 191.358C102.87 191.114 103.279 190.982 103.674 190.961C104.076 190.937 104.444 191.021 104.778 191.213C105.118 191.402 105.4 191.69 105.623 192.077C105.763 192.319 105.861 192.563 105.918 192.807C105.971 193.046 105.984 193.308 105.956 193.593C105.931 193.87 105.868 194.194 105.768 194.568L105.075 197.127L103.385 198.08ZM103.825 198.842L103.385 198.08L104.307 197.017L107.554 195.142L108.224 196.302L103.825 198.842Z" fill="#A2A2A2"/>
<path d="M119.32 207.431C118.933 207.654 118.555 207.78 118.187 207.808C117.82 207.827 117.463 207.767 117.114 207.63L117.518 206.23C117.706 206.315 117.89 206.354 118.072 206.35C118.26 206.341 118.443 206.285 118.622 206.182C118.795 206.082 118.925 205.961 119.013 205.818C119.096 205.67 119.137 205.508 119.136 205.331C119.131 205.15 119.07 204.958 118.953 204.755L116.618 200.711L117.987 199.921L120.277 203.888C120.54 204.344 120.676 204.792 120.684 205.234C120.693 205.675 120.583 206.085 120.355 206.463C120.127 206.841 119.782 207.164 119.32 207.431ZM124.288 204.551C123.901 204.774 123.5 204.879 123.084 204.865C122.673 204.848 122.284 204.726 121.915 204.501C121.552 204.271 121.248 203.946 121.005 203.525C120.762 203.103 120.632 202.678 120.615 202.249C120.604 201.816 120.693 201.418 120.884 201.054C121.08 200.687 121.371 200.392 121.758 200.169C122.041 200.005 122.326 199.913 122.615 199.893C122.909 199.87 123.185 199.914 123.443 200.027C123.697 200.134 123.905 200.307 124.065 200.545L125.115 202.364C125.241 202.622 125.289 202.891 125.258 203.171C125.229 203.441 125.131 203.698 124.964 203.941C124.796 204.184 124.571 204.387 124.288 204.551ZM123.866 203.201C124.149 203.037 124.324 202.813 124.39 202.528C124.454 202.238 124.402 201.948 124.235 201.66C124.122 201.463 123.981 201.314 123.814 201.21C123.652 201.103 123.476 201.051 123.285 201.054C123.096 201.047 122.91 201.097 122.725 201.204C122.54 201.31 122.401 201.449 122.306 201.619C122.214 201.779 122.168 201.96 122.169 202.16C122.174 202.357 122.234 202.553 122.347 202.75C122.457 202.94 122.596 203.087 122.764 203.191C122.931 203.294 123.112 203.347 123.306 203.351C123.501 203.354 123.687 203.304 123.866 203.201ZM125.398 203.794L124.743 202.66L124.352 201.523L123.563 200.616L122.968 199.585L124.267 198.835L126.697 203.044L125.398 203.794ZM130.41 200.9L129.025 198.502C128.899 198.282 128.728 198.146 128.512 198.093C128.3 198.031 128.089 198.06 127.881 198.18C127.737 198.264 127.628 198.369 127.555 198.496C127.479 198.617 127.442 198.753 127.446 198.906C127.445 199.052 127.487 199.197 127.57 199.342L126.914 199.385C126.724 199.056 126.63 198.726 126.631 198.394C126.632 198.063 126.721 197.757 126.898 197.478C127.078 197.189 127.33 196.952 127.653 196.765C127.965 196.585 128.282 196.502 128.606 196.515C128.932 196.52 129.234 196.603 129.512 196.765C129.791 196.928 130.014 197.153 130.18 197.442L131.735 200.135L130.41 200.9ZM127.63 202.505L125.2 198.297L126.525 197.532L128.955 201.74L127.63 202.505ZM136.014 197.792C135.592 198.036 135.164 198.187 134.728 198.246C134.289 198.299 133.869 198.257 133.466 198.12L133.836 196.74C134.039 196.839 134.274 196.88 134.542 196.864C134.813 196.838 135.066 196.757 135.303 196.621C135.516 196.497 135.679 196.353 135.792 196.188C135.905 196.023 135.964 195.846 135.971 195.658C135.983 195.466 135.934 195.275 135.824 195.084C135.714 194.894 135.575 194.759 135.406 194.679C135.239 194.591 135.048 194.559 134.831 194.584C134.62 194.605 134.397 194.685 134.16 194.821C134.05 194.885 133.94 194.96 133.828 195.047C133.72 195.125 133.633 195.202 133.569 195.278L133.732 194.179C133.867 194.04 133.998 193.914 134.126 193.802C134.256 193.68 134.384 193.583 134.511 193.51C134.823 193.33 135.146 193.243 135.481 193.25C135.813 193.251 136.129 193.345 136.43 193.534C136.734 193.712 136.992 193.987 137.205 194.356C137.439 194.76 137.544 195.177 137.522 195.605C137.506 196.03 137.369 196.433 137.111 196.812C136.859 197.189 136.493 197.516 136.014 197.792ZM133.569 195.278L133.134 194.524L133.614 191.915L135.133 191.026L134.603 193.688L133.569 195.278ZM131.422 193.7L130.757 192.548L134.698 190.273L135.133 191.026L134.298 192.04L131.422 193.7Z" fill="#A2A2A2"/>
<path d="M149.47 207.431C149.084 207.654 148.706 207.78 148.337 207.808C147.971 207.827 147.614 207.767 147.265 207.63L147.669 206.23C147.856 206.315 148.041 206.354 148.223 206.35C148.41 206.341 148.594 206.285 148.773 206.182C148.946 206.082 149.076 205.961 149.163 205.818C149.247 205.67 149.288 205.508 149.286 205.331C149.281 205.15 149.22 204.958 149.104 204.755L146.769 200.711L148.137 199.921L150.427 203.888C150.69 204.344 150.826 204.792 150.835 205.234C150.844 205.675 150.734 206.085 150.506 206.463C150.277 206.841 149.932 207.164 149.47 207.431ZM154.438 204.551C154.052 204.774 153.65 204.879 153.234 204.865C152.824 204.848 152.434 204.726 152.065 204.501C151.702 204.271 151.399 203.946 151.156 203.525C150.912 203.103 150.782 202.678 150.765 202.249C150.754 201.816 150.844 201.418 151.034 201.054C151.23 200.687 151.522 200.392 151.908 200.169C152.191 200.005 152.477 199.913 152.766 199.893C153.06 199.87 153.336 199.914 153.593 200.027C153.848 200.134 154.055 200.307 154.216 200.545L155.266 202.364C155.392 202.622 155.439 202.891 155.408 203.171C155.38 203.441 155.282 203.698 155.114 203.941C154.947 204.184 154.721 204.387 154.438 204.551ZM154.017 203.201C154.3 203.037 154.475 202.813 154.541 202.528C154.604 202.238 154.553 201.948 154.386 201.66C154.273 201.463 154.132 201.314 153.965 201.21C153.803 201.103 153.627 201.051 153.436 201.054C153.247 201.047 153.06 201.097 152.876 201.204C152.691 201.31 152.551 201.449 152.457 201.619C152.365 201.779 152.319 201.96 152.319 202.16C152.325 202.357 152.385 202.553 152.498 202.75C152.608 202.94 152.747 203.087 152.914 203.191C153.082 203.294 153.263 203.347 153.457 203.351C153.651 203.354 153.838 203.304 154.017 203.201ZM155.549 203.794L154.894 202.66L154.503 201.523L153.714 200.616L153.119 199.585L154.418 198.835L156.848 203.044L155.549 203.794ZM160.561 200.9L159.176 198.502C159.049 198.282 158.878 198.146 158.663 198.093C158.45 198.031 158.24 198.06 158.032 198.18C157.888 198.264 157.779 198.369 157.706 198.496C157.63 198.617 157.593 198.753 157.596 198.906C157.596 199.052 157.638 199.197 157.721 199.342L157.065 199.385C156.875 199.056 156.78 198.726 156.781 198.394C156.782 198.063 156.872 197.757 157.049 197.478C157.229 197.189 157.48 196.952 157.804 196.765C158.115 196.585 158.433 196.502 158.756 196.515C159.082 196.52 159.384 196.603 159.663 196.765C159.942 196.928 160.164 197.153 160.331 197.442L161.886 200.135L160.561 200.9ZM157.781 202.505L155.351 198.297L156.676 197.532L159.106 201.74L157.781 202.505ZM162.875 196.735L162.579 191.583L164.06 190.728L164.313 195.905L162.875 196.735ZM163.315 197.497L162.875 196.735L163.101 196.086L167.552 193.516L168.217 194.667L163.315 197.497ZM166.984 197.192L164.799 193.407L166.133 192.637L168.318 196.422L166.984 197.192Z" fill="#A2A2A2"/>
<path d="M179.621 207.431C179.234 207.654 178.857 207.78 178.488 207.808C178.122 207.827 177.764 207.767 177.415 207.63L177.82 206.23C178.007 206.315 178.192 206.354 178.373 206.35C178.561 206.341 178.744 206.285 178.923 206.182C179.097 206.082 179.227 205.961 179.314 205.818C179.397 205.67 179.438 205.508 179.437 205.331C179.432 205.15 179.371 204.958 179.254 204.755L176.919 200.711L178.288 199.921L180.578 203.888C180.841 204.344 180.977 204.792 180.986 205.234C180.994 205.675 180.884 206.085 180.656 206.463C180.428 206.841 180.083 207.164 179.621 207.431ZM184.589 204.551C184.202 204.774 183.801 204.879 183.385 204.865C182.975 204.848 182.585 204.726 182.216 204.501C181.853 204.271 181.55 203.946 181.306 203.525C181.063 203.103 180.933 202.678 180.916 202.249C180.905 201.816 180.995 201.418 181.185 201.054C181.381 200.687 181.672 200.392 182.059 200.169C182.342 200.005 182.628 199.913 182.916 199.893C183.21 199.87 183.486 199.914 183.744 200.027C183.998 200.134 184.206 200.307 184.367 200.545L185.417 202.364C185.543 202.622 185.59 202.891 185.559 203.171C185.531 203.441 185.432 203.698 185.265 203.941C185.097 204.184 184.872 204.387 184.589 204.551ZM184.168 203.201C184.45 203.037 184.625 202.813 184.692 202.528C184.755 202.238 184.703 201.948 184.537 201.66C184.423 201.463 184.283 201.314 184.115 201.21C183.954 201.103 183.777 201.051 183.586 201.054C183.398 201.047 183.211 201.097 183.026 201.204C182.841 201.31 182.702 201.449 182.608 201.619C182.516 201.779 182.47 201.96 182.47 202.16C182.476 202.357 182.535 202.553 182.649 202.75C182.759 202.94 182.897 203.087 183.065 203.191C183.232 203.294 183.413 203.347 183.608 203.351C183.802 203.354 183.989 203.304 184.168 203.201ZM185.7 203.794L185.045 202.66L184.654 201.523L183.865 200.616L183.27 199.585L184.569 198.835L186.999 203.044L185.7 203.794ZM190.711 200.9L189.326 198.502C189.2 198.282 189.029 198.146 188.814 198.093C188.601 198.031 188.391 198.06 188.183 198.18C188.038 198.264 187.93 198.369 187.857 198.496C187.78 198.617 187.744 198.753 187.747 198.906C187.747 199.052 187.788 199.197 187.872 199.342L187.216 199.385C187.026 199.056 186.931 198.726 186.932 198.394C186.933 198.063 187.022 197.757 187.2 197.478C187.379 197.189 187.631 196.952 187.954 196.765C188.266 196.585 188.584 196.502 188.907 196.515C189.233 196.52 189.535 196.603 189.814 196.765C190.092 196.928 190.315 197.153 190.481 197.442L192.036 200.135L190.711 200.9ZM187.932 202.505L185.502 198.297L186.827 197.532L189.257 201.74L187.932 202.505ZM196.324 197.787C195.902 198.031 195.465 198.187 195.012 198.256C194.562 198.316 194.135 198.277 193.733 198.14L194.111 196.755C194.314 196.854 194.55 196.895 194.818 196.879C195.088 196.853 195.347 196.769 195.595 196.626C195.815 196.499 195.984 196.352 196.102 196.183C196.217 196.009 196.279 195.823 196.288 195.625C196.294 195.422 196.24 195.222 196.127 195.026C196.01 194.824 195.864 194.677 195.688 194.586C195.512 194.495 195.319 194.461 195.108 194.482C194.9 194.495 194.692 194.561 194.484 194.681C194.276 194.801 194.102 194.94 193.962 195.098C193.819 195.249 193.707 195.422 193.626 195.615L193.239 194.684C193.312 194.503 193.39 194.346 193.475 194.213C193.556 194.074 193.659 193.945 193.783 193.827C193.908 193.709 194.068 193.593 194.264 193.48C194.714 193.22 195.146 193.094 195.559 193.102C195.977 193.107 196.353 193.217 196.685 193.433C197.023 193.646 197.299 193.937 197.513 194.306C197.746 194.711 197.853 195.13 197.834 195.564C197.822 195.995 197.688 196.403 197.433 196.789C197.178 197.174 196.809 197.507 196.324 197.787ZM193.626 195.615L192.722 195.409L191.362 192.373L192.591 191.663L193.911 194.688L193.626 195.615ZM192.209 193.42L191.362 192.373L194.8 190.388L195.465 191.54L192.209 193.42Z" fill="#A2A2A2"/>
<path d="M209.772 207.431C209.385 207.654 209.007 207.78 208.639 207.808C208.272 207.827 207.915 207.767 207.566 207.63L207.97 206.23C208.158 206.315 208.342 206.354 208.524 206.35C208.712 206.341 208.895 206.285 209.074 206.182C209.247 206.082 209.377 205.961 209.464 205.818C209.548 205.67 209.589 205.508 209.588 205.331C209.583 205.15 209.522 204.958 209.405 204.755L207.07 200.711L208.438 199.921L210.728 203.888C210.992 204.344 211.128 204.792 211.136 205.234C211.145 205.675 211.035 206.085 210.807 206.463C210.579 206.841 210.234 207.164 209.772 207.431ZM214.74 204.551C214.353 204.774 213.951 204.879 213.535 204.865C213.125 204.848 212.736 204.726 212.367 204.501C212.003 204.271 211.7 203.946 211.457 203.525C211.214 203.103 211.083 202.678 211.067 202.249C211.056 201.816 211.145 201.418 211.335 201.054C211.531 200.687 211.823 200.392 212.21 200.169C212.493 200.005 212.778 199.913 213.067 199.893C213.361 199.87 213.637 199.914 213.895 200.027C214.149 200.134 214.357 200.307 214.517 200.545L215.567 202.364C215.693 202.622 215.741 202.891 215.71 203.171C215.681 203.441 215.583 203.698 215.415 203.941C215.248 204.184 215.023 204.387 214.74 204.551ZM214.318 203.201C214.601 203.037 214.776 202.813 214.842 202.528C214.906 202.238 214.854 201.948 214.687 201.66C214.574 201.463 214.433 201.314 214.266 201.21C214.104 201.103 213.928 201.051 213.737 201.054C213.548 201.047 213.362 201.097 213.177 201.204C212.992 201.31 212.853 201.449 212.758 201.619C212.666 201.779 212.62 201.96 212.62 202.16C212.626 202.357 212.686 202.553 212.799 202.75C212.909 202.94 213.048 203.087 213.215 203.191C213.383 203.294 213.564 203.347 213.758 203.351C213.953 203.354 214.139 203.304 214.318 203.201ZM215.85 203.794L215.195 202.66L214.804 201.523L214.015 200.616L213.42 199.585L214.719 198.835L217.149 203.044L215.85 203.794ZM220.862 200.9L219.477 198.502C219.35 198.282 219.179 198.146 218.964 198.093C218.751 198.031 218.541 198.06 218.333 198.18C218.189 198.264 218.08 198.369 218.007 198.496C217.931 198.617 217.894 198.753 217.897 198.906C217.897 199.052 217.939 199.197 218.022 199.342L217.366 199.385C217.176 199.056 217.082 198.726 217.083 198.394C217.084 198.063 217.173 197.757 217.35 197.478C217.53 197.189 217.782 196.952 218.105 196.765C218.417 196.585 218.734 196.502 219.058 196.515C219.384 196.52 219.686 196.603 219.964 196.765C220.243 196.928 220.465 197.153 220.632 197.442L222.187 200.135L220.862 200.9ZM218.082 202.505L215.652 198.297L216.977 197.532L219.407 201.74L218.082 202.505ZM226.76 197.622C226.333 197.869 225.891 197.997 225.435 198.006C224.984 198.013 224.566 197.915 224.181 197.714C223.798 197.504 223.491 197.2 223.261 196.802C222.961 196.282 222.84 195.652 222.897 194.911L223.175 191.413L224.708 190.528L224.334 194.3L223.848 194.639C223.849 194.453 223.864 194.287 223.894 194.138C223.927 193.981 223.997 193.837 224.106 193.705C224.211 193.567 224.37 193.436 224.584 193.313C224.965 193.093 225.357 192.986 225.761 192.991C226.167 192.988 226.551 193.086 226.912 193.285C227.27 193.479 227.562 193.772 227.789 194.165C228.019 194.563 228.128 194.985 228.116 195.431C228.101 195.871 227.978 196.284 227.747 196.671C227.516 197.059 227.187 197.376 226.76 197.622ZM226.075 196.436C226.254 196.332 226.391 196.196 226.485 196.026C226.579 195.856 226.624 195.673 226.618 195.476C226.612 195.279 226.556 195.088 226.449 194.904C226.339 194.713 226.202 194.569 226.038 194.471C225.87 194.368 225.691 194.317 225.5 194.32C225.306 194.317 225.119 194.367 224.94 194.47C224.755 194.577 224.616 194.715 224.521 194.885C224.43 195.046 224.387 195.224 224.392 195.421C224.395 195.612 224.451 195.803 224.561 195.994C224.668 196.178 224.805 196.322 224.972 196.426C225.14 196.529 225.318 196.584 225.506 196.591C225.701 196.594 225.89 196.542 226.075 196.436Z" fill="#A2A2A2"/>
<path d="M239.922 207.431C239.536 207.654 239.158 207.78 238.789 207.808C238.423 207.827 238.065 207.767 237.717 207.63L238.121 206.23C238.308 206.315 238.493 206.354 238.675 206.35C238.862 206.341 239.046 206.285 239.225 206.182C239.398 206.082 239.528 205.961 239.615 205.818C239.699 205.67 239.74 205.508 239.738 205.331C239.733 205.15 239.672 204.958 239.556 204.755L237.221 200.711L238.589 199.921L240.879 203.888C241.142 204.344 241.278 204.792 241.287 205.234C241.296 205.675 241.186 206.085 240.958 206.463C240.729 206.841 240.384 207.164 239.922 207.431ZM244.89 204.551C244.504 204.774 244.102 204.879 243.686 204.865C243.276 204.848 242.886 204.726 242.517 204.501C242.154 204.271 241.851 203.946 241.607 203.525C241.364 203.103 241.234 202.678 241.217 202.249C241.206 201.816 241.296 201.418 241.486 201.054C241.682 200.687 241.974 200.392 242.36 200.169C242.643 200.005 242.929 199.913 243.217 199.893C243.512 199.87 243.788 199.914 244.045 200.027C244.3 200.134 244.507 200.307 244.668 200.545L245.718 202.364C245.844 202.622 245.891 202.891 245.86 203.171C245.832 203.441 245.734 203.698 245.566 203.941C245.398 204.184 245.173 204.387 244.89 204.551ZM244.469 203.201C244.752 203.037 244.926 202.813 244.993 202.528C245.056 202.238 245.004 201.948 244.838 201.66C244.724 201.463 244.584 201.314 244.417 201.21C244.255 201.103 244.078 201.051 243.887 201.054C243.699 201.047 243.512 201.097 243.327 201.204C243.143 201.31 243.003 201.449 242.909 201.619C242.817 201.779 242.771 201.96 242.771 202.16C242.777 202.357 242.837 202.553 242.95 202.75C243.06 202.94 243.199 203.087 243.366 203.191C243.534 203.294 243.714 203.347 243.909 203.351C244.103 203.354 244.29 203.304 244.469 203.201ZM246.001 203.794L245.346 202.66L244.955 201.523L244.166 200.616L243.571 199.585L244.87 198.835L247.3 203.044L246.001 203.794ZM251.013 200.9L249.628 198.502C249.501 198.282 249.33 198.146 249.115 198.093C248.902 198.031 248.692 198.06 248.484 198.18C248.34 198.264 248.231 198.369 248.158 198.496C248.082 198.617 248.045 198.753 248.048 198.906C248.048 199.052 248.089 199.197 248.173 199.342L247.517 199.385C247.327 199.056 247.232 198.726 247.233 198.394C247.234 198.063 247.324 197.757 247.501 197.478C247.681 197.189 247.932 196.952 248.256 196.765C248.567 196.585 248.885 196.502 249.208 196.515C249.534 196.52 249.836 196.603 250.115 196.765C250.393 196.928 250.616 197.153 250.783 197.442L252.338 200.135L251.013 200.9ZM248.233 202.505L245.803 198.297L247.128 197.532L249.558 201.74L248.233 202.505ZM255.358 198.392L254.346 191.84L255.671 191.075L256.76 197.582L255.358 198.392ZM251.678 193.9L251.013 192.748L255.231 190.313L255.671 191.075L255.446 191.725L251.678 193.9Z" fill="#A2A2A2"/>
<path d="M270.073 207.431C269.686 207.654 269.308 207.78 268.94 207.808C268.574 207.827 268.216 207.767 267.867 207.63L268.272 206.23C268.459 206.315 268.643 206.354 268.825 206.35C269.013 206.341 269.196 206.285 269.375 206.182C269.549 206.082 269.679 205.961 269.766 205.818C269.849 205.67 269.89 205.508 269.889 205.331C269.884 205.15 269.823 204.958 269.706 204.755L267.371 200.711L268.74 199.921L271.03 203.888C271.293 204.344 271.429 204.792 271.438 205.234C271.446 205.675 271.336 206.085 271.108 206.463C270.88 206.841 270.535 207.164 270.073 207.431ZM275.041 204.551C274.654 204.774 274.253 204.879 273.837 204.865C273.427 204.848 273.037 204.726 272.668 204.501C272.305 204.271 272.001 203.946 271.758 203.525C271.515 203.103 271.385 202.678 271.368 202.249C271.357 201.816 271.447 201.418 271.637 201.054C271.833 200.687 272.124 200.392 272.511 200.169C272.794 200.005 273.08 199.913 273.368 199.893C273.662 199.87 273.938 199.914 274.196 200.027C274.45 200.134 274.658 200.307 274.818 200.545L275.868 202.364C275.994 202.622 276.042 202.891 276.011 203.171C275.982 203.441 275.884 203.698 275.717 203.941C275.549 204.184 275.324 204.387 275.041 204.551ZM274.619 203.201C274.902 203.037 275.077 202.813 275.144 202.528C275.207 202.238 275.155 201.948 274.988 201.66C274.875 201.463 274.735 201.314 274.567 201.21C274.405 201.103 274.229 201.051 274.038 201.054C273.85 201.047 273.663 201.097 273.478 201.204C273.293 201.31 273.154 201.449 273.059 201.619C272.968 201.779 272.922 201.96 272.922 202.16C272.928 202.357 272.987 202.553 273.1 202.75C273.21 202.94 273.349 203.087 273.517 203.191C273.684 203.294 273.865 203.347 274.059 203.351C274.254 203.354 274.44 203.304 274.619 203.201ZM276.151 203.794L275.496 202.66L275.106 201.523L274.316 200.616L273.721 199.585L275.02 198.835L277.45 203.044L276.151 203.794ZM281.163 200.9L279.778 198.502C279.652 198.282 279.481 198.146 279.266 198.093C279.053 198.031 278.842 198.06 278.635 198.18C278.49 198.264 278.382 198.369 278.309 198.496C278.232 198.617 278.196 198.753 278.199 198.906C278.199 199.052 278.24 199.197 278.323 199.342L277.667 199.385C277.477 199.056 277.383 198.726 277.384 198.394C277.385 198.063 277.474 197.757 277.652 197.478C277.831 197.189 278.083 196.952 278.406 196.765C278.718 196.585 279.036 196.502 279.359 196.515C279.685 196.52 279.987 196.603 280.266 196.765C280.544 196.928 280.767 197.153 280.933 197.442L282.488 200.135L281.163 200.9ZM278.383 202.505L275.953 198.297L277.278 197.532L279.708 201.74L278.383 202.505ZM287.009 197.652C286.571 197.906 286.142 198.049 285.723 198.083C285.309 198.114 284.932 198.047 284.591 197.883C284.255 197.715 283.987 197.457 283.787 197.111C283.62 196.822 283.525 196.531 283.502 196.237C283.484 195.939 283.531 195.654 283.643 195.381C283.761 195.105 283.939 194.86 284.177 194.646L284.311 194.938C284.05 195.019 283.798 195.037 283.557 194.992C283.312 194.941 283.088 194.84 282.884 194.688C282.681 194.536 282.516 194.35 282.39 194.13C282.203 193.807 282.119 193.475 282.137 193.133C282.158 192.782 282.274 192.45 282.485 192.135C282.696 191.821 282.989 191.556 283.364 191.339C283.745 191.119 284.122 190.998 284.494 190.975C284.872 190.95 285.215 191.017 285.523 191.178C285.834 191.33 286.083 191.567 286.269 191.89C286.396 192.11 286.474 192.346 286.504 192.598C286.54 192.846 286.519 193.09 286.441 193.327C286.359 193.559 286.218 193.768 286.017 193.953L285.822 193.696C286.133 193.594 286.434 193.562 286.726 193.601C287.024 193.637 287.294 193.739 287.537 193.907C287.78 194.074 287.985 194.302 288.152 194.591C288.352 194.937 288.441 195.298 288.418 195.673C288.396 196.047 288.265 196.408 288.026 196.753C287.793 197.096 287.454 197.396 287.009 197.652ZM286.339 196.492C286.513 196.392 286.646 196.269 286.738 196.123C286.828 195.971 286.873 195.81 286.875 195.64C286.883 195.466 286.841 195.301 286.751 195.145C286.658 194.984 286.536 194.866 286.385 194.791C286.237 194.707 286.076 194.669 285.903 194.677C285.727 194.678 285.553 194.729 285.379 194.829C285.206 194.929 285.075 195.055 284.985 195.207C284.893 195.353 284.845 195.511 284.844 195.681C284.839 195.846 284.883 196.009 284.976 196.17C285.066 196.326 285.185 196.446 285.334 196.53C285.482 196.613 285.644 196.654 285.82 196.653C285.993 196.645 286.166 196.592 286.339 196.492ZM284.809 193.842C285.012 193.725 285.139 193.567 285.193 193.366C285.249 193.157 285.221 192.954 285.107 192.758C284.991 192.556 284.829 192.429 284.623 192.379C284.419 192.32 284.217 192.348 284.014 192.465C283.818 192.578 283.69 192.737 283.631 192.94C283.571 193.144 283.6 193.347 283.717 193.549C283.83 193.745 283.991 193.871 284.201 193.928C284.41 193.984 284.613 193.955 284.809 193.842Z" fill="#A2A2A2"/>
<path d="M300.224 207.431C299.837 207.654 299.459 207.78 299.09 207.808C298.724 207.827 298.367 207.767 298.018 207.63L298.422 206.23C298.61 206.315 298.794 206.354 298.976 206.35C299.164 206.341 299.347 206.285 299.526 206.182C299.699 206.082 299.829 205.961 299.916 205.818C300 205.67 300.041 205.508 300.039 205.331C300.034 205.15 299.974 204.958 299.857 204.755L297.522 200.711L298.89 199.921L301.18 203.888C301.444 204.344 301.58 204.792 301.588 205.234C301.597 205.675 301.487 206.085 301.259 206.463C301.031 206.841 300.686 207.164 300.224 207.431ZM305.192 204.551C304.805 204.774 304.403 204.879 303.987 204.865C303.577 204.848 303.188 204.726 302.819 204.501C302.455 204.271 302.152 203.946 301.909 203.525C301.665 203.103 301.535 202.678 301.519 202.249C301.508 201.816 301.597 201.418 301.787 201.054C301.983 200.687 302.275 200.392 302.662 200.169C302.945 200.005 303.23 199.913 303.519 199.893C303.813 199.87 304.089 199.914 304.347 200.027C304.601 200.134 304.808 200.307 304.969 200.545L306.019 202.364C306.145 202.622 306.193 202.891 306.162 203.171C306.133 203.441 306.035 203.698 305.867 203.941C305.7 204.184 305.475 204.387 305.192 204.551ZM304.77 203.201C305.053 203.037 305.228 202.813 305.294 202.528C305.357 202.238 305.306 201.948 305.139 201.66C305.026 201.463 304.885 201.314 304.718 201.21C304.556 201.103 304.38 201.051 304.189 201.054C304 201.047 303.813 201.097 303.629 201.204C303.444 201.31 303.304 201.449 303.21 201.619C303.118 201.779 303.072 201.96 303.072 202.16C303.078 202.357 303.138 202.553 303.251 202.75C303.361 202.94 303.5 203.087 303.667 203.191C303.835 203.294 304.016 203.347 304.21 203.351C304.404 203.354 304.591 203.304 304.77 203.201ZM306.302 203.794L305.647 202.66L305.256 201.523L304.467 200.616L303.872 199.585L305.171 198.835L307.601 203.044L306.302 203.794ZM311.314 200.9L309.929 198.502C309.802 198.282 309.631 198.146 309.416 198.093C309.203 198.031 308.993 198.06 308.785 198.18C308.641 198.264 308.532 198.369 308.459 198.496C308.383 198.617 308.346 198.753 308.349 198.906C308.349 199.052 308.391 199.197 308.474 199.342L307.818 199.385C307.628 199.056 307.534 198.726 307.535 198.394C307.536 198.063 307.625 197.757 307.802 197.478C307.982 197.189 308.234 196.952 308.557 196.765C308.869 196.585 309.186 196.502 309.51 196.515C309.835 196.52 310.138 196.603 310.416 196.765C310.695 196.928 310.917 197.153 311.084 197.442L312.639 200.135L311.314 200.9ZM308.534 202.505L306.104 198.297L307.429 197.532L309.859 201.74L308.534 202.505ZM315.616 198.417L315.993 194.631L316.475 194.306C316.477 194.482 316.462 194.649 316.429 194.806C316.399 194.955 316.332 195.098 316.226 195.235C316.124 195.364 315.96 195.493 315.735 195.623C315.365 195.837 314.974 195.947 314.563 195.953C314.153 195.951 313.77 195.853 313.412 195.66C313.056 195.457 312.766 195.162 312.543 194.775C312.31 194.371 312.201 193.949 312.216 193.509C312.232 193.069 312.355 192.656 312.585 192.268C312.816 191.881 313.145 191.564 313.572 191.318C313.999 191.071 314.438 190.945 314.889 190.938C315.336 190.926 315.751 191.026 316.134 191.236C316.52 191.436 316.829 191.739 317.062 192.143C317.362 192.663 317.485 193.288 317.43 194.021L317.157 197.527L315.616 198.417ZM315.392 194.47C315.571 194.367 315.708 194.23 315.802 194.06C315.896 193.89 315.942 193.71 315.94 193.519C315.934 193.322 315.878 193.131 315.771 192.946C315.661 192.756 315.522 192.609 315.355 192.505C315.187 192.402 315.008 192.351 314.817 192.354C314.623 192.351 314.436 192.401 314.257 192.504C314.072 192.611 313.933 192.749 313.838 192.919C313.746 193.08 313.701 193.26 313.701 193.46C313.706 193.657 313.764 193.851 313.874 194.041C313.981 194.226 314.118 194.37 314.286 194.474C314.456 194.568 314.638 194.617 314.832 194.62C315.026 194.623 315.213 194.573 315.392 194.47Z" fill="#A2A2A2"/>
<path d="M330.374 208.681C329.987 208.904 329.61 209.03 329.241 209.058C328.875 209.077 328.517 209.017 328.169 208.88L328.573 207.48C328.76 207.565 328.945 207.604 329.127 207.6C329.314 207.591 329.498 207.535 329.677 207.432C329.85 207.332 329.98 207.211 330.067 207.068C330.151 206.92 330.192 206.758 330.19 206.581C330.185 206.4 330.124 206.208 330.008 206.005L327.673 201.961L329.041 201.171L331.331 205.138C331.594 205.594 331.73 206.042 331.739 206.484C331.747 206.925 331.638 207.335 331.409 207.713C331.181 208.091 330.836 208.414 330.374 208.681ZM335.342 205.801C334.955 206.024 334.554 206.129 334.138 206.115C333.728 206.098 333.338 205.976 332.969 205.751C332.606 205.521 332.303 205.196 332.059 204.775C331.816 204.353 331.686 203.928 331.669 203.499C331.658 203.066 331.748 202.668 331.938 202.304C332.134 201.937 332.425 201.642 332.812 201.419C333.095 201.255 333.381 201.163 333.669 201.143C333.964 201.12 334.24 201.164 334.497 201.277C334.752 201.384 334.959 201.557 335.12 201.795L336.17 203.614C336.296 203.872 336.343 204.141 336.312 204.421C336.284 204.691 336.186 204.948 336.018 205.191C335.85 205.434 335.625 205.637 335.342 205.801ZM334.921 204.451C335.204 204.287 335.378 204.063 335.445 203.778C335.508 203.488 335.456 203.198 335.29 202.91C335.176 202.713 335.036 202.564 334.868 202.46C334.707 202.353 334.53 202.301 334.339 202.304C334.151 202.297 333.964 202.347 333.779 202.454C333.595 202.56 333.455 202.699 333.361 202.869C333.269 203.029 333.223 203.21 333.223 203.41C333.229 203.607 333.288 203.803 333.402 204C333.512 204.19 333.65 204.337 333.818 204.441C333.985 204.544 334.166 204.597 334.361 204.601C334.555 204.604 334.742 204.554 334.921 204.451ZM336.453 205.044L335.798 203.91L335.407 202.773L334.618 201.866L334.023 200.835L335.322 200.085L337.752 204.294L336.453 205.044ZM341.465 202.15L340.08 199.752C339.953 199.532 339.782 199.396 339.567 199.343C339.354 199.281 339.144 199.31 338.936 199.43C338.791 199.514 338.683 199.619 338.61 199.746C338.533 199.867 338.497 200.003 338.5 200.156C338.5 200.302 338.541 200.447 338.625 200.592L337.969 200.635C337.779 200.306 337.684 199.976 337.685 199.644C337.686 199.313 337.775 199.007 337.953 198.728C338.133 198.439 338.384 198.202 338.708 198.015C339.019 197.835 339.337 197.752 339.66 197.765C339.986 197.77 340.288 197.853 340.567 198.015C340.845 198.178 341.068 198.403 341.235 198.692L342.79 201.385L341.465 202.15ZM338.685 203.755L336.255 199.547L337.58 198.782L340.01 202.99L338.685 203.755ZM346.173 199.432L342.643 193.318L343.994 192.538L347.524 198.652L346.173 199.432ZM342.13 195.15L341.465 193.998L343.908 192.588L344.573 193.74L342.13 195.15ZM351.043 196.748C350.552 197.031 350.031 197.155 349.479 197.119C348.927 197.084 348.399 196.896 347.895 196.556C347.393 196.207 346.962 195.72 346.602 195.097C346.239 194.467 346.035 193.854 345.99 193.256C345.942 192.653 346.039 192.108 346.282 191.621C346.521 191.129 346.889 190.74 347.385 190.453C347.888 190.163 348.412 190.037 348.958 190.076C349.5 190.109 350.021 190.298 350.519 190.641C351.024 190.981 351.457 191.466 351.821 192.095C352.184 192.725 352.387 193.343 352.429 193.949C352.477 194.553 352.382 195.101 352.143 195.593C351.906 196.076 351.539 196.461 351.043 196.748ZM350.339 195.549C350.593 195.402 350.771 195.203 350.872 194.952C350.97 194.696 350.985 194.395 350.917 194.049C350.85 193.695 350.696 193.307 350.452 192.885C350.206 192.458 349.947 192.13 349.677 191.901C349.412 191.669 349.145 191.535 348.877 191.497C348.606 191.453 348.34 191.507 348.08 191.657C347.832 191.8 347.654 191.999 347.547 192.253C347.446 192.504 347.429 192.802 347.498 193.148C347.566 193.493 347.724 193.879 347.971 194.307C348.217 194.734 348.473 195.063 348.738 195.296C349.003 195.528 349.271 195.665 349.542 195.709C349.819 195.749 350.085 195.696 350.339 195.549Z" fill="#A2A2A2"/>
<path d="M364.855 207.931C364.468 208.154 364.09 208.28 363.722 208.308C363.356 208.327 362.998 208.267 362.649 208.13L363.054 206.73C363.241 206.815 363.426 206.854 363.607 206.85C363.795 206.841 363.978 206.785 364.157 206.682C364.331 206.582 364.461 206.461 364.548 206.318C364.631 206.17 364.672 206.008 364.671 205.831C364.666 205.65 364.605 205.458 364.488 205.255L362.153 201.211L363.522 200.421L365.812 204.388C366.075 204.844 366.211 205.292 366.22 205.734C366.228 206.175 366.118 206.585 365.89 206.963C365.662 207.341 365.317 207.664 364.855 207.931ZM369.823 205.051C369.436 205.274 369.035 205.379 368.619 205.365C368.209 205.348 367.819 205.226 367.45 205.001C367.087 204.771 366.784 204.446 366.54 204.025C366.297 203.603 366.167 203.178 366.15 202.749C366.139 202.316 366.229 201.918 366.419 201.554C366.615 201.187 366.906 200.892 367.293 200.669C367.576 200.505 367.862 200.413 368.15 200.393C368.444 200.37 368.72 200.414 368.978 200.527C369.232 200.634 369.44 200.807 369.601 201.045L370.651 202.864C370.777 203.122 370.824 203.391 370.793 203.671C370.764 203.941 370.666 204.198 370.499 204.441C370.331 204.684 370.106 204.887 369.823 205.051ZM369.401 203.701C369.684 203.537 369.859 203.313 369.926 203.028C369.989 202.738 369.937 202.448 369.77 202.16C369.657 201.963 369.517 201.814 369.349 201.71C369.187 201.603 369.011 201.551 368.82 201.554C368.632 201.547 368.445 201.597 368.26 201.704C368.075 201.81 367.936 201.949 367.842 202.119C367.75 202.279 367.704 202.46 367.704 202.66C367.71 202.857 367.769 203.053 367.883 203.25C367.993 203.44 368.131 203.587 368.299 203.691C368.466 203.794 368.647 203.847 368.842 203.851C369.036 203.854 369.223 203.804 369.401 203.701ZM370.933 204.294L370.278 203.16L369.888 202.023L369.098 201.116L368.503 200.085L369.803 199.335L372.233 203.544L370.933 204.294ZM375.945 201.4L374.56 199.002C374.434 198.782 374.263 198.646 374.048 198.593C373.835 198.531 373.624 198.56 373.417 198.68C373.272 198.764 373.164 198.869 373.091 198.996C373.014 199.117 372.978 199.253 372.981 199.406C372.981 199.552 373.022 199.697 373.105 199.842L372.45 199.885C372.26 199.556 372.165 199.226 372.166 198.894C372.167 198.563 372.256 198.257 372.434 197.978C372.613 197.689 372.865 197.452 373.188 197.265C373.5 197.085 373.818 197.002 374.141 197.015C374.467 197.02 374.769 197.103 375.048 197.265C375.326 197.428 375.549 197.653 375.715 197.942L377.27 200.635L375.945 201.4ZM373.165 203.005L370.735 198.797L372.06 198.032L374.49 202.24L373.165 203.005ZM380.654 198.682L377.124 192.568L378.475 191.788L382.005 197.902L380.654 198.682ZM376.611 194.4L375.946 193.248L378.388 191.838L379.053 192.99L376.611 194.4ZM383.927 196.792L380.397 190.678L381.748 189.898L385.278 196.012L383.927 196.792ZM379.884 192.51L379.219 191.358L381.661 189.948L382.326 191.1L379.884 192.51Z" fill="#A2A2A2"/>
<path d="M396.738 208.431C396.351 208.654 395.973 208.78 395.605 208.808C395.238 208.827 394.881 208.767 394.532 208.63L394.936 207.23C395.124 207.315 395.308 207.354 395.49 207.35C395.678 207.341 395.861 207.285 396.04 207.182C396.213 207.082 396.343 206.961 396.43 206.818C396.514 206.67 396.555 206.508 396.554 206.331C396.549 206.15 396.488 205.958 396.371 205.755L394.036 201.711L395.404 200.921L397.694 204.888C397.958 205.344 398.094 205.792 398.102 206.234C398.111 206.675 398.001 207.085 397.773 207.463C397.545 207.841 397.2 208.164 396.738 208.431ZM401.706 205.551C401.319 205.774 400.917 205.879 400.501 205.865C400.091 205.848 399.702 205.726 399.333 205.501C398.969 205.271 398.666 204.946 398.423 204.525C398.18 204.103 398.049 203.678 398.033 203.249C398.022 202.816 398.111 202.418 398.301 202.054C398.497 201.687 398.789 201.392 399.176 201.169C399.459 201.005 399.744 200.913 400.033 200.893C400.327 200.87 400.603 200.914 400.861 201.027C401.115 201.134 401.323 201.307 401.483 201.545L402.533 203.364C402.659 203.622 402.707 203.891 402.676 204.171C402.647 204.441 402.549 204.698 402.381 204.941C402.214 205.184 401.989 205.387 401.706 205.551ZM401.284 204.201C401.567 204.037 401.742 203.813 401.808 203.528C401.872 203.238 401.82 202.948 401.653 202.66C401.54 202.463 401.399 202.314 401.232 202.21C401.07 202.103 400.894 202.051 400.703 202.054C400.514 202.047 400.328 202.097 400.143 202.204C399.958 202.31 399.819 202.449 399.724 202.619C399.632 202.779 399.586 202.96 399.586 203.16C399.592 203.357 399.652 203.553 399.765 203.75C399.875 203.94 400.014 204.087 400.181 204.191C400.349 204.294 400.53 204.347 400.724 204.351C400.919 204.354 401.105 204.304 401.284 204.201ZM402.816 204.794L402.161 203.66L401.77 202.523L400.981 201.616L400.386 200.585L401.685 199.835L404.115 204.044L402.816 204.794ZM407.828 201.9L406.443 199.502C406.316 199.282 406.145 199.146 405.93 199.093C405.717 199.031 405.507 199.06 405.299 199.18C405.155 199.264 405.046 199.369 404.973 199.496C404.897 199.617 404.86 199.753 404.863 199.906C404.863 200.052 404.905 200.197 404.988 200.342L404.332 200.385C404.142 200.056 404.048 199.726 404.049 199.394C404.05 199.063 404.139 198.757 404.316 198.478C404.496 198.189 404.748 197.952 405.071 197.765C405.383 197.585 405.7 197.502 406.024 197.515C406.35 197.52 406.652 197.603 406.93 197.765C407.209 197.928 407.431 198.153 407.598 198.442L409.153 201.135L407.828 201.9ZM405.048 203.505L402.618 199.297L403.943 198.532L406.373 202.74L405.048 203.505ZM412.537 199.182L409.007 193.068L410.358 192.288L413.888 198.402L412.537 199.182ZM408.494 194.9L407.829 193.748L410.271 192.338L410.936 193.49L408.494 194.9ZM414.226 197.19L415.173 193.41C415.234 193.183 415.273 192.983 415.29 192.812C415.306 192.641 415.305 192.492 415.285 192.364C415.262 192.231 415.219 192.11 415.156 192C415.019 191.763 414.835 191.624 414.602 191.581C414.372 191.529 414.133 191.575 413.885 191.718C413.642 191.858 413.461 192.051 413.341 192.297C413.224 192.534 413.161 192.852 413.152 193.249L411.788 192.986C411.794 192.436 411.924 191.949 412.179 191.525C412.435 191.1 412.805 190.748 413.29 190.468C413.711 190.225 414.12 190.093 414.516 190.072C414.918 190.048 415.286 190.132 415.62 190.324C415.96 190.512 416.241 190.8 416.465 191.187C416.605 191.429 416.703 191.673 416.759 191.917C416.813 192.156 416.825 192.418 416.798 192.704C416.772 192.98 416.71 193.305 416.61 193.678L415.917 196.238L414.226 197.19ZM414.666 197.952L414.226 197.19L415.148 196.127L418.396 194.252L419.066 195.412L414.666 197.952Z" fill="#A2A2A2"/>
<path d="M430.353 208.431C429.966 208.654 429.588 208.78 429.219 208.808C428.853 208.827 428.496 208.767 428.147 208.63L428.551 207.23C428.738 207.315 428.923 207.354 429.105 207.35C429.293 207.341 429.476 207.285 429.655 207.182C429.828 207.082 429.958 206.961 430.045 206.818C430.129 206.67 430.17 206.508 430.168 206.331C430.163 206.15 430.103 205.958 429.986 205.755L427.651 201.711L429.019 200.921L431.309 204.888C431.573 205.344 431.708 205.792 431.717 206.234C431.726 206.675 431.616 207.085 431.388 207.463C431.159 207.841 430.814 208.164 430.353 208.431ZM435.32 205.551C434.934 205.774 434.532 205.879 434.116 205.865C433.706 205.848 433.316 205.726 432.947 205.501C432.584 205.271 432.281 204.946 432.038 204.525C431.794 204.103 431.664 203.678 431.647 203.249C431.636 202.816 431.726 202.418 431.916 202.054C432.112 201.687 432.404 201.392 432.79 201.169C433.073 201.005 433.359 200.913 433.648 200.893C433.942 200.87 434.218 200.914 434.475 201.027C434.73 201.134 434.937 201.307 435.098 201.545L436.148 203.364C436.274 203.622 436.321 203.891 436.29 204.171C436.262 204.441 436.164 204.698 435.996 204.941C435.829 205.184 435.603 205.387 435.32 205.551ZM434.899 204.201C435.182 204.037 435.357 203.813 435.423 203.528C435.486 203.238 435.435 202.948 435.268 202.66C435.155 202.463 435.014 202.314 434.847 202.21C434.685 202.103 434.509 202.051 434.318 202.054C434.129 202.047 433.942 202.097 433.758 202.204C433.573 202.31 433.433 202.449 433.339 202.619C433.247 202.779 433.201 202.96 433.201 203.16C433.207 203.357 433.267 203.553 433.38 203.75C433.49 203.94 433.629 204.087 433.796 204.191C433.964 204.294 434.145 204.347 434.339 204.351C434.533 204.354 434.72 204.304 434.899 204.201ZM436.431 204.794L435.776 203.66L435.385 202.523L434.596 201.616L434.001 200.585L435.3 199.835L437.73 204.044L436.431 204.794ZM441.443 201.9L440.058 199.502C439.931 199.282 439.76 199.146 439.545 199.093C439.332 199.031 439.122 199.06 438.914 199.18C438.77 199.264 438.661 199.369 438.588 199.496C438.512 199.617 438.475 199.753 438.478 199.906C438.478 200.052 438.52 200.197 438.603 200.342L437.947 200.385C437.757 200.056 437.662 199.726 437.663 199.394C437.664 199.063 437.754 198.757 437.931 198.478C438.111 198.189 438.362 197.952 438.686 197.765C438.997 197.585 439.315 197.502 439.638 197.515C439.964 197.52 440.266 197.603 440.545 197.765C440.824 197.928 441.046 198.153 441.213 198.442L442.768 201.135L441.443 201.9ZM438.663 203.505L436.233 199.297L437.558 198.532L439.988 202.74L438.663 203.505ZM446.151 199.182L442.621 193.068L443.972 192.288L447.502 198.402L446.151 199.182ZM442.109 194.9L441.444 193.748L443.886 192.338L444.551 193.49L442.109 194.9ZM450.319 196.903C449.898 197.146 449.469 197.297 449.034 197.356C448.595 197.409 448.174 197.367 447.772 197.23L448.142 195.851C448.345 195.949 448.58 195.99 448.848 195.974C449.118 195.949 449.372 195.868 449.608 195.731C449.822 195.608 449.985 195.464 450.098 195.299C450.21 195.134 450.27 194.957 450.276 194.768C450.289 194.576 450.24 194.385 450.13 194.195C450.02 194.004 449.88 193.869 449.711 193.79C449.545 193.701 449.353 193.669 449.137 193.694C448.926 193.716 448.702 193.795 448.465 193.932C448.356 193.995 448.245 194.07 448.134 194.158C448.025 194.236 447.939 194.313 447.875 194.388L448.037 193.29C448.172 193.15 448.303 193.024 448.431 192.912C448.561 192.791 448.69 192.693 448.817 192.62C449.129 192.44 449.452 192.354 449.787 192.36C450.118 192.361 450.435 192.456 450.736 192.644C451.039 192.823 451.298 193.097 451.511 193.466C451.744 193.871 451.85 194.287 451.828 194.715C451.812 195.14 451.674 195.543 451.416 195.923C451.164 196.299 450.799 196.626 450.319 196.903ZM447.875 194.388L447.44 193.635L447.919 191.025L449.438 190.137L448.908 192.798L447.875 194.388ZM445.728 192.81L445.063 191.658L449.003 189.383L449.438 190.137L448.603 191.15L445.728 192.81Z" fill="#A2A2A2"/>
<path d="M463.967 208.431C463.58 208.654 463.203 208.78 462.834 208.808C462.468 208.827 462.11 208.767 461.762 208.63L462.166 207.23C462.353 207.315 462.538 207.354 462.72 207.35C462.907 207.341 463.091 207.285 463.27 207.182C463.443 207.082 463.573 206.961 463.66 206.818C463.744 206.67 463.785 206.508 463.783 206.331C463.778 206.15 463.717 205.958 463.601 205.755L461.266 201.711L462.634 200.921L464.924 204.888C465.187 205.344 465.323 205.792 465.332 206.234C465.34 206.675 465.231 207.085 465.002 207.463C464.774 207.841 464.429 208.164 463.967 208.431ZM468.935 205.551C468.548 205.774 468.147 205.879 467.731 205.865C467.321 205.848 466.931 205.726 466.562 205.501C466.199 205.271 465.896 204.946 465.652 204.525C465.409 204.103 465.279 203.678 465.262 203.249C465.251 202.816 465.341 202.418 465.531 202.054C465.727 201.687 466.018 201.392 466.405 201.169C466.688 201.005 466.974 200.913 467.262 200.893C467.557 200.87 467.833 200.914 468.09 201.027C468.345 201.134 468.552 201.307 468.713 201.545L469.763 203.364C469.889 203.622 469.936 203.891 469.905 204.171C469.877 204.441 469.779 204.698 469.611 204.941C469.443 205.184 469.218 205.387 468.935 205.551ZM468.514 204.201C468.797 204.037 468.971 203.813 469.038 203.528C469.101 203.238 469.049 202.948 468.883 202.66C468.769 202.463 468.629 202.314 468.461 202.21C468.3 202.103 468.123 202.051 467.932 202.054C467.744 202.047 467.557 202.097 467.372 202.204C467.188 202.31 467.048 202.449 466.954 202.619C466.862 202.779 466.816 202.96 466.816 203.16C466.822 203.357 466.881 203.553 466.995 203.75C467.105 203.94 467.243 204.087 467.411 204.191C467.578 204.294 467.759 204.347 467.954 204.351C468.148 204.354 468.335 204.304 468.514 204.201ZM470.046 204.794L469.391 203.66L469 202.523L468.211 201.616L467.616 200.585L468.915 199.835L471.345 204.044L470.046 204.794ZM475.058 201.9L473.673 199.502C473.546 199.282 473.375 199.146 473.16 199.093C472.947 199.031 472.737 199.06 472.529 199.18C472.384 199.264 472.276 199.369 472.203 199.496C472.126 199.617 472.09 199.753 472.093 199.906C472.093 200.052 472.134 200.197 472.218 200.342L471.562 200.385C471.372 200.056 471.277 199.726 471.278 199.394C471.279 199.063 471.368 198.757 471.546 198.478C471.726 198.189 471.977 197.952 472.3 197.765C472.612 197.585 472.93 197.502 473.253 197.515C473.579 197.52 473.881 197.603 474.16 197.765C474.438 197.928 474.661 198.153 474.828 198.442L476.383 201.135L475.058 201.9ZM472.278 203.505L469.848 199.297L471.173 198.532L473.603 202.74L472.278 203.505ZM479.766 199.182L476.236 193.068L477.587 192.288L481.117 198.402L479.766 199.182ZM475.723 194.9L475.058 193.748L477.501 192.338L478.166 193.49L475.723 194.9ZM480.645 195.846L480.349 190.693L481.83 189.838L482.083 195.016L480.645 195.846ZM481.085 196.608L480.645 195.846L480.87 195.196L485.322 192.626L485.987 193.778L481.085 196.608ZM484.754 196.302L482.569 192.518L483.903 191.748L486.088 195.532L484.754 196.302Z" fill="#A2A2A2"/>
<path d="M497.582 208.431C497.195 208.654 496.817 208.78 496.449 208.808C496.083 208.827 495.725 208.767 495.376 208.63L495.781 207.23C495.968 207.315 496.152 207.354 496.334 207.35C496.522 207.341 496.705 207.285 496.884 207.182C497.058 207.082 497.188 206.961 497.275 206.818C497.358 206.67 497.399 206.508 497.398 206.331C497.393 206.15 497.332 205.958 497.215 205.755L494.88 201.711L496.249 200.921L498.539 204.888C498.802 205.344 498.938 205.792 498.947 206.234C498.955 206.675 498.845 207.085 498.617 207.463C498.389 207.841 498.044 208.164 497.582 208.431ZM502.55 205.551C502.163 205.774 501.762 205.879 501.346 205.865C500.935 205.848 500.546 205.726 500.177 205.501C499.814 205.271 499.51 204.946 499.267 204.525C499.024 204.103 498.894 203.678 498.877 203.249C498.866 202.816 498.955 202.418 499.146 202.054C499.342 201.687 499.633 201.392 500.02 201.169C500.303 201.005 500.589 200.913 500.877 200.893C501.171 200.87 501.447 200.914 501.705 201.027C501.959 201.134 502.167 201.307 502.327 201.545L503.377 203.364C503.503 203.622 503.551 203.891 503.52 204.171C503.491 204.441 503.393 204.698 503.226 204.941C503.058 205.184 502.833 205.387 502.55 205.551ZM502.128 204.201C502.411 204.037 502.586 203.813 502.653 203.528C502.716 203.238 502.664 202.948 502.497 202.66C502.384 202.463 502.244 202.314 502.076 202.21C501.914 202.103 501.738 202.051 501.547 202.054C501.358 202.047 501.172 202.097 500.987 202.204C500.802 202.31 500.663 202.449 500.568 202.619C500.477 202.779 500.431 202.96 500.431 203.16C500.437 203.357 500.496 203.553 500.609 203.75C500.719 203.94 500.858 204.087 501.026 204.191C501.193 204.294 501.374 204.347 501.568 204.351C501.763 204.354 501.949 204.304 502.128 204.201ZM503.66 204.794L503.005 203.66L502.615 202.523L501.825 201.616L501.23 200.585L502.529 199.835L504.959 204.044L503.66 204.794ZM508.672 201.9L507.287 199.502C507.161 199.282 506.99 199.146 506.774 199.093C506.562 199.031 506.351 199.06 506.144 199.18C505.999 199.264 505.891 199.369 505.817 199.496C505.741 199.617 505.705 199.753 505.708 199.906C505.707 200.052 505.749 200.197 505.832 200.342L505.176 200.385C504.986 200.056 504.892 199.726 504.893 199.394C504.894 199.063 504.983 198.757 505.161 198.478C505.34 198.189 505.592 197.952 505.915 197.765C506.227 197.585 506.545 197.502 506.868 197.515C507.194 197.52 507.496 197.603 507.775 197.765C508.053 197.928 508.276 198.153 508.442 198.442L509.997 201.135L508.672 201.9ZM505.892 203.505L503.462 199.297L504.787 198.532L507.217 202.74L505.892 203.505ZM513.381 199.182L509.851 193.068L511.202 192.288L514.732 198.402L513.381 199.182ZM509.338 194.9L508.673 193.748L511.115 192.338L511.78 193.49L509.338 194.9ZM517.558 196.898C517.136 197.141 516.699 197.297 516.246 197.366C515.796 197.426 515.369 197.387 514.967 197.25L515.345 195.866C515.548 195.964 515.784 196.005 516.051 195.989C516.322 195.964 516.581 195.88 516.829 195.736C517.049 195.61 517.217 195.462 517.336 195.294C517.451 195.119 517.513 194.934 517.522 194.736C517.528 194.532 517.474 194.333 517.36 194.136C517.244 193.934 517.098 193.788 516.922 193.697C516.746 193.606 516.553 193.571 516.342 193.593C516.134 193.605 515.926 193.671 515.718 193.791C515.51 193.911 515.336 194.05 515.196 194.208C515.053 194.36 514.941 194.532 514.86 194.725L514.473 193.794C514.545 193.614 514.624 193.457 514.709 193.323C514.79 193.184 514.893 193.055 515.017 192.937C515.141 192.819 515.302 192.704 515.498 192.59C515.948 192.33 516.38 192.204 516.792 192.212C517.211 192.217 517.586 192.328 517.919 192.544C518.257 192.756 518.533 193.047 518.746 193.417C518.98 193.821 519.087 194.24 519.068 194.674C519.055 195.105 518.922 195.514 518.667 195.899C518.412 196.285 518.043 196.618 517.558 196.898ZM514.86 194.725L513.956 194.52L512.596 191.483L513.825 190.773L515.145 193.799L514.86 194.725ZM513.442 192.53L512.596 191.483L516.034 189.498L516.699 190.65L513.442 192.53Z" fill="#A2A2A2"/>
<path d="M531.197 208.431C530.81 208.654 530.432 208.78 530.063 208.808C529.697 208.827 529.34 208.767 528.991 208.63L529.395 207.23C529.583 207.315 529.767 207.354 529.949 207.35C530.137 207.341 530.32 207.285 530.499 207.182C530.672 207.082 530.802 206.961 530.889 206.818C530.973 206.67 531.014 206.508 531.013 206.331C531.008 206.15 530.947 205.958 530.83 205.755L528.495 201.711L529.863 200.921L532.153 204.888C532.417 205.344 532.553 205.792 532.561 206.234C532.57 206.675 532.46 207.085 532.232 207.463C532.004 207.841 531.659 208.164 531.197 208.431ZM536.165 205.551C535.778 205.774 535.376 205.879 534.96 205.865C534.55 205.848 534.161 205.726 533.792 205.501C533.428 205.271 533.125 204.946 532.882 204.525C532.639 204.103 532.508 203.678 532.492 203.249C532.481 202.816 532.57 202.418 532.76 202.054C532.956 201.687 533.248 201.392 533.635 201.169C533.918 201.005 534.203 200.913 534.492 200.893C534.786 200.87 535.062 200.914 535.32 201.027C535.574 201.134 535.782 201.307 535.942 201.545L536.992 203.364C537.118 203.622 537.166 203.891 537.135 204.171C537.106 204.441 537.008 204.698 536.84 204.941C536.673 205.184 536.448 205.387 536.165 205.551ZM535.743 204.201C536.026 204.037 536.201 203.813 536.267 203.528C536.331 203.238 536.279 202.948 536.112 202.66C535.999 202.463 535.858 202.314 535.691 202.21C535.529 202.103 535.353 202.051 535.162 202.054C534.973 202.047 534.787 202.097 534.602 202.204C534.417 202.31 534.278 202.449 534.183 202.619C534.091 202.779 534.045 202.96 534.045 203.16C534.051 203.357 534.111 203.553 534.224 203.75C534.334 203.94 534.473 204.087 534.64 204.191C534.808 204.294 534.989 204.347 535.183 204.351C535.378 204.354 535.564 204.304 535.743 204.201ZM537.275 204.794L536.62 203.66L536.229 202.523L535.44 201.616L534.845 200.585L536.144 199.835L538.574 204.044L537.275 204.794ZM542.287 201.9L540.902 199.502C540.775 199.282 540.604 199.146 540.389 199.093C540.176 199.031 539.966 199.06 539.758 199.18C539.614 199.264 539.505 199.369 539.432 199.496C539.356 199.617 539.319 199.753 539.322 199.906C539.322 200.052 539.364 200.197 539.447 200.342L538.791 200.385C538.601 200.056 538.507 199.726 538.508 199.394C538.509 199.063 538.598 198.757 538.775 198.478C538.955 198.189 539.207 197.952 539.53 197.765C539.842 197.585 540.159 197.502 540.483 197.515C540.808 197.52 541.111 197.603 541.389 197.765C541.668 197.928 541.89 198.153 542.057 198.442L543.612 201.135L542.287 201.9ZM539.507 203.505L537.077 199.297L538.402 198.532L540.832 202.74L539.507 203.505ZM546.996 199.182L543.466 193.068L544.817 192.288L548.347 198.402L546.996 199.182ZM542.953 194.9L542.288 193.748L544.73 192.338L545.395 193.49L542.953 194.9ZM551.458 196.733C551.031 196.979 550.589 197.107 550.133 197.117C549.682 197.123 549.264 197.026 548.879 196.825C548.496 196.615 548.189 196.311 547.959 195.912C547.659 195.393 547.538 194.762 547.595 194.021L547.873 190.523L549.406 189.638L549.032 193.411L548.546 193.749C548.547 193.564 548.562 193.397 548.592 193.249C548.625 193.092 548.695 192.947 548.804 192.815C548.909 192.677 549.068 192.547 549.282 192.423C549.663 192.203 550.055 192.096 550.459 192.102C550.865 192.098 551.249 192.196 551.61 192.396C551.968 192.589 552.26 192.882 552.487 193.275C552.717 193.673 552.826 194.095 552.814 194.541C552.799 194.981 552.676 195.395 552.445 195.782C552.214 196.169 551.885 196.486 551.458 196.733ZM550.773 195.546C550.952 195.443 551.089 195.306 551.183 195.136C551.277 194.966 551.322 194.783 551.316 194.586C551.31 194.389 551.254 194.199 551.147 194.014C551.037 193.823 550.9 193.679 550.736 193.582C550.568 193.478 550.389 193.428 550.198 193.43C550.004 193.427 549.817 193.477 549.638 193.58C549.453 193.687 549.314 193.825 549.219 193.995C549.128 194.156 549.085 194.335 549.09 194.532C549.093 194.723 549.149 194.913 549.259 195.104C549.366 195.289 549.503 195.433 549.67 195.536C549.838 195.64 550.016 195.695 550.204 195.701C550.399 195.705 550.588 195.653 550.773 195.546Z" fill="#A2A2A2"/>
<path d="M564.811 208.181C564.425 208.404 564.047 208.53 563.678 208.558C563.312 208.577 562.955 208.517 562.606 208.38L563.01 206.98C563.197 207.065 563.382 207.104 563.564 207.1C563.752 207.091 563.935 207.035 564.114 206.932C564.287 206.832 564.417 206.711 564.504 206.568C564.588 206.42 564.629 206.258 564.627 206.081C564.622 205.9 564.561 205.708 564.445 205.505L562.11 201.461L563.478 200.671L565.768 204.638C566.031 205.094 566.167 205.542 566.176 205.984C566.185 206.425 566.075 206.835 565.847 207.213C565.618 207.591 565.273 207.914 564.811 208.181ZM569.779 205.301C569.393 205.524 568.991 205.629 568.575 205.615C568.165 205.598 567.775 205.476 567.406 205.251C567.043 205.021 566.74 204.696 566.497 204.275C566.253 203.853 566.123 203.428 566.106 202.999C566.095 202.566 566.185 202.168 566.375 201.804C566.571 201.437 566.863 201.142 567.249 200.919C567.532 200.755 567.818 200.663 568.107 200.643C568.401 200.62 568.677 200.664 568.934 200.777C569.189 200.884 569.396 201.057 569.557 201.295L570.607 203.114C570.733 203.372 570.78 203.641 570.749 203.921C570.721 204.191 570.623 204.448 570.455 204.691C570.288 204.934 570.062 205.137 569.779 205.301ZM569.358 203.951C569.641 203.787 569.816 203.563 569.882 203.278C569.945 202.988 569.894 202.698 569.727 202.41C569.614 202.213 569.473 202.064 569.306 201.96C569.144 201.853 568.968 201.801 568.777 201.804C568.588 201.797 568.401 201.847 568.217 201.954C568.032 202.06 567.892 202.199 567.798 202.369C567.706 202.529 567.66 202.71 567.66 202.91C567.666 203.107 567.726 203.303 567.839 203.5C567.949 203.69 568.088 203.837 568.255 203.941C568.423 204.044 568.604 204.097 568.798 204.101C568.992 204.104 569.179 204.054 569.358 203.951ZM570.89 204.544L570.235 203.41L569.844 202.273L569.055 201.366L568.46 200.335L569.759 199.585L572.189 203.794L570.89 204.544ZM575.902 201.65L574.517 199.252C574.39 199.032 574.219 198.896 574.004 198.843C573.791 198.781 573.581 198.81 573.373 198.93C573.229 199.014 573.12 199.119 573.047 199.246C572.971 199.367 572.934 199.503 572.937 199.656C572.937 199.802 572.979 199.947 573.062 200.092L572.406 200.135C572.216 199.806 572.121 199.476 572.122 199.144C572.123 198.813 572.213 198.507 572.39 198.228C572.57 197.939 572.821 197.702 573.145 197.515C573.456 197.335 573.774 197.252 574.097 197.265C574.423 197.27 574.725 197.353 575.004 197.515C575.283 197.678 575.505 197.903 575.672 198.192L577.227 200.885L575.902 201.65ZM573.122 203.255L570.692 199.047L572.017 198.282L574.447 202.49L573.122 203.255ZM580.61 198.932L577.08 192.818L578.431 192.038L581.961 198.152L580.61 198.932ZM576.568 194.65L575.903 193.498L578.345 192.088L579.01 193.24L576.568 194.65ZM583.52 197.252L582.508 190.7L583.833 189.935L584.923 196.442L583.52 197.252ZM579.841 192.76L579.176 191.608L583.393 189.173L583.833 189.935L583.608 190.585L579.841 192.76Z" fill="#A2A2A2"/>
<path d="M597.56 208.431C597.173 208.654 596.796 208.78 596.427 208.808C596.061 208.827 595.703 208.767 595.354 208.63L595.759 207.23C595.946 207.315 596.131 207.354 596.313 207.35C596.5 207.341 596.684 207.285 596.863 207.182C597.036 207.082 597.166 206.961 597.253 206.818C597.337 206.67 597.378 206.508 597.376 206.331C597.371 206.15 597.31 205.958 597.194 205.755L594.859 201.711L596.227 200.921L598.517 204.888C598.78 205.344 598.916 205.792 598.925 206.234C598.933 206.675 598.824 207.085 598.595 207.463C598.367 207.841 598.022 208.164 597.56 208.431ZM602.528 205.551C602.141 205.774 601.74 205.879 601.324 205.865C600.914 205.848 600.524 205.726 600.155 205.501C599.792 205.271 599.489 204.946 599.245 204.525C599.002 204.103 598.872 203.678 598.855 203.249C598.844 202.816 598.934 202.418 599.124 202.054C599.32 201.687 599.611 201.392 599.998 201.169C600.281 201.005 600.567 200.913 600.855 200.893C601.15 200.87 601.425 200.914 601.683 201.027C601.938 201.134 602.145 201.307 602.306 201.545L603.356 203.364C603.482 203.622 603.529 203.891 603.498 204.171C603.47 204.441 603.372 204.698 603.204 204.941C603.036 205.184 602.811 205.387 602.528 205.551ZM602.107 204.201C602.39 204.037 602.564 203.813 602.631 203.528C602.694 203.238 602.642 202.948 602.476 202.66C602.362 202.463 602.222 202.314 602.054 202.21C601.893 202.103 601.716 202.051 601.525 202.054C601.337 202.047 601.15 202.097 600.965 202.204C600.781 202.31 600.641 202.449 600.547 202.619C600.455 202.779 600.409 202.96 600.409 203.16C600.415 203.357 600.474 203.553 600.588 203.75C600.698 203.94 600.836 204.087 601.004 204.191C601.171 204.294 601.352 204.347 601.547 204.351C601.741 204.354 601.928 204.304 602.107 204.201ZM603.639 204.794L602.984 203.66L602.593 202.523L601.804 201.616L601.209 200.585L602.508 199.835L604.938 204.044L603.639 204.794ZM608.651 201.9L607.266 199.502C607.139 199.282 606.968 199.146 606.753 199.093C606.54 199.031 606.33 199.06 606.122 199.18C605.977 199.264 605.869 199.369 605.796 199.496C605.719 199.617 605.683 199.753 605.686 199.906C605.686 200.052 605.727 200.197 605.811 200.342L605.155 200.385C604.965 200.056 604.87 199.726 604.871 199.394C604.872 199.063 604.961 198.757 605.139 198.478C605.319 198.189 605.57 197.952 605.893 197.765C606.205 197.585 606.523 197.502 606.846 197.515C607.172 197.52 607.474 197.603 607.753 197.765C608.031 197.928 608.254 198.153 608.421 198.442L609.976 201.135L608.651 201.9ZM605.871 203.505L603.441 199.297L604.766 198.532L607.196 202.74L605.871 203.505ZM613.359 199.182L609.829 193.068L611.18 192.288L614.71 198.402L613.359 199.182ZM609.316 194.9L608.651 193.748L611.093 192.338L611.758 193.49L609.316 194.9ZM617.77 196.763C617.331 197.016 616.902 197.16 616.483 197.194C616.069 197.225 615.692 197.158 615.351 196.993C615.015 196.825 614.747 196.568 614.547 196.221C614.381 195.933 614.285 195.641 614.262 195.347C614.244 195.049 614.291 194.764 614.403 194.492C614.521 194.216 614.699 193.971 614.937 193.756L615.071 194.048C614.81 194.13 614.559 194.148 614.317 194.103C614.072 194.052 613.848 193.95 613.645 193.798C613.441 193.646 613.276 193.46 613.15 193.241C612.963 192.917 612.879 192.585 612.897 192.243C612.918 191.893 613.034 191.56 613.245 191.246C613.456 190.931 613.749 190.666 614.125 190.449C614.506 190.229 614.882 190.108 615.254 190.086C615.632 190.06 615.975 190.128 616.283 190.288C616.594 190.44 616.843 190.677 617.029 191.001C617.156 191.22 617.235 191.456 617.265 191.708C617.3 191.957 617.279 192.2 617.201 192.438C617.119 192.669 616.978 192.878 616.777 193.063L616.582 192.806C616.893 192.704 617.194 192.672 617.486 192.712C617.784 192.748 618.054 192.849 618.297 193.017C618.54 193.184 618.745 193.413 618.912 193.701C619.112 194.048 619.201 194.408 619.178 194.783C619.156 195.158 619.025 195.518 618.786 195.864C618.553 196.206 618.214 196.506 617.77 196.763ZM617.1 195.602C617.273 195.502 617.406 195.379 617.499 195.233C617.588 195.082 617.634 194.92 617.635 194.75C617.643 194.576 617.602 194.412 617.512 194.256C617.418 194.094 617.296 193.976 617.145 193.901C616.997 193.818 616.836 193.78 616.664 193.787C616.487 193.789 616.313 193.839 616.14 193.939C615.966 194.039 615.835 194.165 615.746 194.317C615.653 194.463 615.606 194.621 615.604 194.791C615.599 194.956 615.643 195.119 615.736 195.281C615.826 195.437 615.945 195.556 616.094 195.64C616.242 195.724 616.404 195.765 616.581 195.763C616.753 195.756 616.926 195.702 617.1 195.602ZM615.57 192.952C615.772 192.835 615.9 192.677 615.953 192.477C616.009 192.267 615.981 192.064 615.867 191.868C615.751 191.666 615.589 191.54 615.383 191.489C615.18 191.43 614.977 191.458 614.775 191.575C614.578 191.688 614.45 191.847 614.391 192.051C614.331 192.254 614.36 192.457 614.477 192.659C614.59 192.856 614.751 192.982 614.961 193.038C615.17 193.094 615.373 193.065 615.57 192.952Z" fill="#A2A2A2"/>
<circle cx="171.347" cy="251.5" r="5" fill="#D08726"/>
</svg>
