<svg width="643" height="128" viewBox="0 0 643 128" fill="none" xmlns="http://www.w3.org/2000/svg">
<line x1="28.7188" y1="5.5" x2="642.719" y2="5.5" stroke="#F2F2F2"/>
<line x1="28.7188" y1="54.5" x2="642.719" y2="54.5" stroke="#F2F2F2"/>
<line x1="28.7188" y1="103.5" x2="642.719" y2="103.5" stroke="#F2F2F2"/>
<rect x="65.8337" y="35" width="6" height="22" rx="3" fill="#D08726"/>
<rect x="65.8337" y="65" width="6" height="67" rx="3" fill="#478F96"/>
<rect x="97.8337" y="13" width="6" height="28" rx="3" fill="#D08726"/>
<rect x="97.8337" y="49" width="6" height="103" rx="3" fill="#478F96"/>
<rect x="129.834" y="52" width="6" height="15" rx="3" fill="#D08726"/>
<rect x="129.834" y="75" width="6" height="16" rx="3" fill="#478F96"/>
<rect x="129.834" y="99" width="6" height="77" rx="3" fill="#CA6B6E"/>
<rect x="161.834" y="61" width="6" height="11" rx="3" fill="#D08726"/>
<rect x="161.834" y="80" width="6" height="31" rx="3" fill="#478F96"/>
<rect x="161.834" y="119" width="6" height="57" rx="3" fill="#CA6B6E"/>
<rect x="193.834" y="47" width="6" height="59" rx="3" fill="#D08726"/>
<rect x="193.834" y="114" width="6" height="31" rx="3" fill="#478F96"/>
<rect x="225.834" y="58" width="6" height="11" rx="3" fill="#D08726"/>
<rect x="225.834" y="77" width="6" height="60" rx="3" fill="#478F96"/>
<rect x="257.834" y="8" width="6" height="25" rx="3" fill="#D08726"/>
<rect x="257.834" y="41" width="6" height="42" rx="3" fill="#478F96"/>
<rect x="257.834" y="91" width="6" height="85" rx="3" fill="#CA6B6E"/>
<rect x="289.834" y="36" width="6" height="25" rx="3" fill="#D08726"/>
<rect x="289.834" y="69" width="6" height="65" rx="3" fill="#478F96"/>
<rect x="321.834" y="30" width="6" height="49" rx="3" fill="#D08726"/>
<rect x="321.834" y="87" width="6" height="65" rx="3" fill="#478F96"/>
<rect x="353.834" y="52" width="6" height="64" rx="3" fill="#D08726"/>
<rect x="353.834" y="124" width="6" height="21" rx="3" fill="#478F96"/>
<rect x="385.834" y="91" width="6" height="25" rx="3" fill="#D08726"/>
<rect x="385.834" y="124" width="6" height="21" rx="3" fill="#478F96"/>
<rect x="417.834" y="57" width="6" height="25" rx="3" fill="#D08726"/>
<rect x="417.834" y="90" width="6" height="21" rx="3" fill="#478F96"/>
<rect x="417.834" y="119" width="6" height="57" rx="3" fill="#CA6B6E"/>
<rect x="449.834" y="18" width="6" height="53" rx="3" fill="#D08726"/>
<rect x="449.834" y="79" width="6" height="58" rx="3" fill="#478F96"/>
<rect x="481.834" y="26" width="6" height="53" rx="3" fill="#D08726"/>
<rect x="481.834" y="87" width="6" height="21" rx="3" fill="#478F96"/>
<rect x="481.834" y="116" width="6" height="60" rx="3" fill="#CA6B6E"/>
<rect x="513.834" y="51" width="6" height="25" rx="3" fill="#D08726"/>
<rect x="513.834" y="84" width="6" height="21" rx="3" fill="#478F96"/>
<rect x="513.834" y="113" width="6" height="63" rx="3" fill="#CA6B6E"/>
<rect x="545.834" y="21" width="6" height="12" rx="3" fill="#D08726"/>
<rect x="545.834" y="41" width="6" height="42" rx="3" fill="#478F96"/>
<rect x="545.834" y="91" width="6" height="85" rx="3" fill="#CA6B6E"/>
<rect x="577.834" y="88" width="6" height="12" rx="3" fill="#D08726"/>
<rect x="577.834" y="108" width="6" height="21" rx="3" fill="#478F96"/>
<rect x="609.834" y="20" width="6" height="25" rx="3" fill="#D08726"/>
<rect x="609.834" y="53" width="6" height="58" rx="3" fill="#478F96"/>
<rect x="609.834" y="119" width="6" height="57" rx="3" fill="#CA6B6E"/>
<path d="M3.41144 10.11C2.90477 10.11 2.46144 10.02 2.08144 9.84C1.70811 9.66 1.41477 9.41333 1.20144 9.1C0.994774 8.78667 0.89144 8.43 0.89144 8.03C0.89144 7.69667 0.954774 7.39667 1.08144 7.13C1.21477 6.86333 1.39811 6.64 1.63144 6.46C1.87144 6.28 2.14811 6.15667 2.46144 6.09L2.43144 6.41C2.16477 6.35 1.93811 6.24 1.75144 6.08C1.56477 5.91333 1.42144 5.71333 1.32144 5.48C1.22144 5.24667 1.17144 5.00333 1.17144 4.75C1.17144 4.37667 1.26477 4.04667 1.45144 3.76C1.64477 3.46667 1.91144 3.23667 2.25144 3.07C2.59144 2.90333 2.97811 2.82 3.41144 2.82C3.85144 2.82 4.23811 2.90333 4.57144 3.07C4.91144 3.23667 5.17477 3.46667 5.36144 3.76C5.55477 4.04667 5.65144 4.37667 5.65144 4.75C5.65144 5.00333 5.60144 5.24667 5.50144 5.48C5.40811 5.71333 5.26811 5.91333 5.08144 6.08C4.89477 6.24 4.66811 6.35 4.40144 6.41L4.36144 6.09C4.68144 6.15667 4.95811 6.28 5.19144 6.46C5.43144 6.64 5.61477 6.86333 5.74144 7.13C5.86811 7.39667 5.93144 7.69667 5.93144 8.03C5.93144 8.43 5.82811 8.78667 5.62144 9.1C5.41477 9.41333 5.12144 9.66 4.74144 9.84C4.36811 10.02 3.92477 10.11 3.41144 10.11ZM3.41144 8.77C3.61144 8.77 3.78811 8.73 3.94144 8.65C4.09477 8.56333 4.21477 8.44667 4.30144 8.3C4.39477 8.15333 4.44144 7.99 4.44144 7.81C4.44144 7.62333 4.39477 7.46 4.30144 7.32C4.21477 7.17333 4.09477 7.06 3.94144 6.98C3.78811 6.89333 3.61144 6.85 3.41144 6.85C3.21144 6.85 3.03477 6.89333 2.88144 6.98C2.72811 7.06 2.60811 7.17333 2.52144 7.32C2.43477 7.46 2.39144 7.62333 2.39144 7.81C2.39144 7.99 2.43477 8.15333 2.52144 8.3C2.60811 8.44667 2.72811 8.56333 2.88144 8.65C3.03477 8.73 3.21144 8.77 3.41144 8.77ZM3.41144 5.71C3.64477 5.71 3.83477 5.63667 3.98144 5.49C4.13477 5.33667 4.21144 5.14667 4.21144 4.92C4.21144 4.68667 4.13477 4.49667 3.98144 4.35C3.83477 4.19667 3.64477 4.12 3.41144 4.12C3.18477 4.12 2.99477 4.19333 2.84144 4.34C2.68811 4.48667 2.61144 4.67667 2.61144 4.91C2.61144 5.13667 2.68811 5.32667 2.84144 5.48C2.99477 5.63333 3.18477 5.71 3.41144 5.71ZM9.55668 10.11C8.99001 10.11 8.47667 9.95667 8.01667 9.65C7.55667 9.34333 7.19334 8.91667 6.92667 8.37C6.66667 7.81667 6.53667 7.18 6.53667 6.46C6.53667 5.73333 6.66667 5.1 6.92667 4.56C7.18667 4.01333 7.54334 3.59 7.99667 3.29C8.45001 2.98333 8.96334 2.83 9.53667 2.83C10.1167 2.83 10.6333 2.98333 11.0867 3.29C11.54 3.59 11.8967 4.01333 12.1567 4.56C12.4233 5.10667 12.5567 5.74333 12.5567 6.47C12.5567 7.19667 12.4233 7.83333 12.1567 8.38C11.8967 8.92667 11.54 9.35333 11.0867 9.66C10.64 9.96 10.13 10.11 9.55668 10.11ZM9.54667 8.72C9.84001 8.72 10.0933 8.63667 10.3067 8.47C10.52 8.29667 10.6833 8.04333 10.7967 7.71C10.9167 7.37 10.9767 6.95667 10.9767 6.47C10.9767 5.97667 10.9167 5.56333 10.7967 5.23C10.6833 4.89667 10.52 4.64667 10.3067 4.48C10.0933 4.30667 9.83667 4.22 9.53667 4.22C9.25001 4.22 8.99667 4.30333 8.77667 4.47C8.56334 4.63667 8.40001 4.88667 8.28667 5.22C8.17334 5.55333 8.11667 5.96667 8.11667 6.46C8.11667 6.95333 8.17334 7.36667 8.28667 7.7C8.40001 8.03333 8.56334 8.28667 8.77667 8.46C8.99667 8.63333 9.25334 8.72 9.54667 8.72ZM14.6868 5.78C14.4135 5.78 14.1635 5.71667 13.9368 5.59C13.7168 5.45667 13.5402 5.28 13.4068 5.06C13.2735 4.83333 13.2068 4.58 13.2068 4.3C13.2068 4.02667 13.2735 3.78 13.4068 3.56C13.5402 3.34 13.7168 3.16667 13.9368 3.04C14.1568 2.90667 14.4035 2.84 14.6768 2.84C14.9635 2.84 15.2168 2.90667 15.4368 3.04C15.6635 3.16667 15.8435 3.34 15.9768 3.56C16.1102 3.78 16.1768 4.02667 16.1768 4.3C16.1768 4.58 16.1102 4.83333 15.9768 5.06C15.8435 5.28 15.6635 5.45667 15.4368 5.59C15.2168 5.71667 14.9668 5.78 14.6868 5.78ZM14.6868 4.74C14.8135 4.74 14.9168 4.7 14.9968 4.62C15.0768 4.54 15.1168 4.43667 15.1168 4.31C15.1168 4.18333 15.0768 4.08 14.9968 4C14.9168 3.92 14.8135 3.88 14.6868 3.88C14.5668 3.88 14.4668 3.92 14.3868 4C14.3068 4.08 14.2668 4.18333 14.2668 4.31C14.2668 4.43667 14.3068 4.54 14.3868 4.62C14.4668 4.7 14.5668 4.74 14.6868 4.74ZM17.9068 10.1C17.6335 10.1 17.3835 10.0333 17.1568 9.9C16.9368 9.76667 16.7602 9.59 16.6268 9.37C16.4935 9.14333 16.4268 8.89333 16.4268 8.62C16.4268 8.34 16.4935 8.09333 16.6268 7.88C16.7602 7.66 16.9368 7.48333 17.1568 7.35C17.3768 7.21667 17.6235 7.15 17.8968 7.15C18.1835 7.15 18.4368 7.21667 18.6568 7.35C18.8835 7.48333 19.0635 7.66 19.1968 7.88C19.3302 8.09333 19.3968 8.34 19.3968 8.62C19.3968 8.89333 19.3302 9.14333 19.1968 9.37C19.0635 9.59667 18.8835 9.77667 18.6568 9.91C18.4368 10.0367 18.1868 10.1 17.9068 10.1ZM17.9068 9.06C18.0335 9.06 18.1368 9.02 18.2168 8.94C18.2968 8.86 18.3368 8.75333 18.3368 8.62C18.3368 8.5 18.2968 8.4 18.2168 8.32C18.1368 8.23333 18.0335 8.19 17.9068 8.19C17.7868 8.19 17.6868 8.23333 17.6068 8.32C17.5268 8.4 17.4868 8.5 17.4868 8.62C17.4868 8.75333 17.5268 8.86 17.6068 8.94C17.6868 9.02 17.7868 9.06 17.9068 9.06ZM13.4868 10L17.7168 2.94H19.1168L14.8868 10H13.4868Z" fill="#A1A1A1"/>
<path d="M3.47144 59.11C2.97811 59.11 2.53144 59 2.13144 58.78C1.73811 58.56 1.42477 58.2667 1.19144 57.9C0.964774 57.5267 0.85144 57.11 0.85144 56.65C0.85144 56.05 1.06144 55.4433 1.48144 54.83L3.47144 51.94H5.24144L3.03144 55.02L2.44144 55.07C2.53477 54.91 2.63144 54.7733 2.73144 54.66C2.83811 54.54 2.97144 54.45 3.13144 54.39C3.29144 54.3233 3.49477 54.29 3.74144 54.29C4.18144 54.29 4.57477 54.3933 4.92144 54.6C5.27477 54.8 5.55811 55.0767 5.77144 55.43C5.98477 55.7767 6.09144 56.1767 6.09144 56.63C6.09144 57.09 5.97477 57.51 5.74144 57.89C5.50811 58.2633 5.19477 58.56 4.80144 58.78C4.40811 59 3.96477 59.11 3.47144 59.11ZM3.47144 57.74C3.67811 57.74 3.86477 57.69 4.03144 57.59C4.19811 57.49 4.32811 57.3533 4.42144 57.18C4.51477 57.0067 4.56144 56.8133 4.56144 56.6C4.56144 56.38 4.51477 56.1867 4.42144 56.02C4.32811 55.8467 4.19811 55.7133 4.03144 55.62C3.86477 55.52 3.67811 55.47 3.47144 55.47C3.25811 55.47 3.06811 55.52 2.90144 55.62C2.74144 55.7133 2.61477 55.8467 2.52144 56.02C2.42811 56.1867 2.38144 56.38 2.38144 56.6C2.38144 56.8133 2.42811 57.0067 2.52144 57.18C2.61477 57.3533 2.74144 57.49 2.90144 57.59C3.06811 57.69 3.25811 57.74 3.47144 57.74ZM9.67386 59.11C9.1072 59.11 8.59386 58.9567 8.13386 58.65C7.67386 58.3433 7.31053 57.9167 7.04386 57.37C6.78386 56.8167 6.65386 56.18 6.65386 55.46C6.65386 54.7333 6.78386 54.1 7.04386 53.56C7.30386 53.0133 7.66053 52.59 8.11386 52.29C8.5672 51.9833 9.08053 51.83 9.65386 51.83C10.2339 51.83 10.7505 51.9833 11.2039 52.29C11.6572 52.59 12.0139 53.0133 12.2739 53.56C12.5405 54.1067 12.6739 54.7433 12.6739 55.47C12.6739 56.1967 12.5405 56.8333 12.2739 57.38C12.0139 57.9267 11.6572 58.3533 11.2039 58.66C10.7572 58.96 10.2472 59.11 9.67386 59.11ZM9.66386 57.72C9.9572 57.72 10.2105 57.6367 10.4239 57.47C10.6372 57.2967 10.8005 57.0433 10.9139 56.71C11.0339 56.37 11.0939 55.9567 11.0939 55.47C11.0939 54.9767 11.0339 54.5633 10.9139 54.23C10.8005 53.8967 10.6372 53.6467 10.4239 53.48C10.2105 53.3067 9.95386 53.22 9.65386 53.22C9.3672 53.22 9.11386 53.3033 8.89386 53.47C8.68053 53.6367 8.5172 53.8867 8.40386 54.22C8.29053 54.5533 8.23386 54.9667 8.23386 55.46C8.23386 55.9533 8.29053 56.3667 8.40386 56.7C8.5172 57.0333 8.68053 57.2867 8.89386 57.46C9.11386 57.6333 9.37053 57.72 9.66386 57.72ZM14.804 54.78C14.5307 54.78 14.2807 54.7167 14.054 54.59C13.834 54.4567 13.6574 54.28 13.524 54.06C13.3907 53.8333 13.324 53.58 13.324 53.3C13.324 53.0267 13.3907 52.78 13.524 52.56C13.6574 52.34 13.834 52.1667 14.054 52.04C14.274 51.9067 14.5207 51.84 14.794 51.84C15.0807 51.84 15.334 51.9067 15.554 52.04C15.7807 52.1667 15.9607 52.34 16.094 52.56C16.2274 52.78 16.294 53.0267 16.294 53.3C16.294 53.58 16.2274 53.8333 16.094 54.06C15.9607 54.28 15.7807 54.4567 15.554 54.59C15.334 54.7167 15.084 54.78 14.804 54.78ZM14.804 53.74C14.9307 53.74 15.034 53.7 15.114 53.62C15.194 53.54 15.234 53.4367 15.234 53.31C15.234 53.1833 15.194 53.08 15.114 53C15.034 52.92 14.9307 52.88 14.804 52.88C14.684 52.88 14.584 52.92 14.504 53C14.424 53.08 14.384 53.1833 14.384 53.31C14.384 53.4367 14.424 53.54 14.504 53.62C14.584 53.7 14.684 53.74 14.804 53.74ZM18.024 59.1C17.7507 59.1 17.5007 59.0333 17.274 58.9C17.054 58.7667 16.8774 58.59 16.744 58.37C16.6107 58.1433 16.544 57.8933 16.544 57.62C16.544 57.34 16.6107 57.0933 16.744 56.88C16.8774 56.66 17.054 56.4833 17.274 56.35C17.494 56.2167 17.7407 56.15 18.014 56.15C18.3007 56.15 18.554 56.2167 18.774 56.35C19.0007 56.4833 19.1807 56.66 19.314 56.88C19.4474 57.0933 19.514 57.34 19.514 57.62C19.514 57.8933 19.4474 58.1433 19.314 58.37C19.1807 58.5967 19.0007 58.7767 18.774 58.91C18.554 59.0367 18.304 59.1 18.024 59.1ZM18.024 58.06C18.1507 58.06 18.254 58.02 18.334 57.94C18.414 57.86 18.454 57.7533 18.454 57.62C18.454 57.5 18.414 57.4 18.334 57.32C18.254 57.2333 18.1507 57.19 18.024 57.19C17.904 57.19 17.804 57.2333 17.724 57.32C17.644 57.4 17.604 57.5 17.604 57.62C17.604 57.7533 17.644 57.86 17.724 57.94C17.804 58.02 17.904 58.06 18.024 58.06ZM13.604 59L17.834 51.94H19.234L15.004 59H13.604Z" fill="#A1A1A1"/>
<path d="M0.81144 105.55L3.13144 100.94H4.84144L2.47144 105.55H0.81144ZM0.81144 106.43V105.55L1.33144 105.1H6.47144L6.47144 106.43H0.81144ZM4.14144 108V103.63H5.68144L5.68144 108H4.14144ZM10.0352 108.11C9.46852 108.11 8.95519 107.957 8.49519 107.65C8.03519 107.343 7.67186 106.917 7.40519 106.37C7.14519 105.817 7.01519 105.18 7.01519 104.46C7.01519 103.733 7.14519 103.1 7.40519 102.56C7.66519 102.013 8.02186 101.59 8.47519 101.29C8.92852 100.983 9.44186 100.83 10.0152 100.83C10.5952 100.83 11.1119 100.983 11.5652 101.29C12.0185 101.59 12.3752 102.013 12.6352 102.56C12.9019 103.107 13.0352 103.743 13.0352 104.47C13.0352 105.197 12.9019 105.833 12.6352 106.38C12.3752 106.927 12.0185 107.353 11.5652 107.66C11.1185 107.96 10.6085 108.11 10.0352 108.11ZM10.0252 106.72C10.3185 106.72 10.5719 106.637 10.7852 106.47C10.9985 106.297 11.1619 106.043 11.2752 105.71C11.3952 105.37 11.4552 104.957 11.4552 104.47C11.4552 103.977 11.3952 103.563 11.2752 103.23C11.1619 102.897 10.9985 102.647 10.7852 102.48C10.5719 102.307 10.3152 102.22 10.0152 102.22C9.72852 102.22 9.47519 102.303 9.25519 102.47C9.04186 102.637 8.87852 102.887 8.76519 103.22C8.65186 103.553 8.59519 103.967 8.59519 104.46C8.59519 104.953 8.65186 105.367 8.76519 105.7C8.87852 106.033 9.04186 106.287 9.25519 106.46C9.47519 106.633 9.73186 106.72 10.0252 106.72ZM15.1653 103.78C14.892 103.78 14.642 103.717 14.4153 103.59C14.1953 103.457 14.0187 103.28 13.8853 103.06C13.752 102.833 13.6853 102.58 13.6853 102.3C13.6853 102.027 13.752 101.78 13.8853 101.56C14.0187 101.34 14.1953 101.167 14.4153 101.04C14.6353 100.907 14.882 100.84 15.1553 100.84C15.442 100.84 15.6953 100.907 15.9153 101.04C16.142 101.167 16.322 101.34 16.4553 101.56C16.5887 101.78 16.6553 102.027 16.6553 102.3C16.6553 102.58 16.5887 102.833 16.4553 103.06C16.322 103.28 16.142 103.457 15.9153 103.59C15.6953 103.717 15.4453 103.78 15.1653 103.78ZM15.1653 102.74C15.292 102.74 15.3953 102.7 15.4753 102.62C15.5553 102.54 15.5953 102.437 15.5953 102.31C15.5953 102.183 15.5553 102.08 15.4753 102C15.3953 101.92 15.292 101.88 15.1653 101.88C15.0453 101.88 14.9453 101.92 14.8653 102C14.7853 102.08 14.7453 102.183 14.7453 102.31C14.7453 102.437 14.7853 102.54 14.8653 102.62C14.9453 102.7 15.0453 102.74 15.1653 102.74ZM18.3853 108.1C18.112 108.1 17.862 108.033 17.6353 107.9C17.4153 107.767 17.2387 107.59 17.1053 107.37C16.972 107.143 16.9053 106.893 16.9053 106.62C16.9053 106.34 16.972 106.093 17.1053 105.88C17.2387 105.66 17.4153 105.483 17.6353 105.35C17.8553 105.217 18.102 105.15 18.3753 105.15C18.662 105.15 18.9153 105.217 19.1353 105.35C19.362 105.483 19.542 105.66 19.6753 105.88C19.8087 106.093 19.8753 106.34 19.8753 106.62C19.8753 106.893 19.8087 107.143 19.6753 107.37C19.542 107.597 19.362 107.777 19.1353 107.91C18.9153 108.037 18.6653 108.1 18.3853 108.1ZM18.3853 107.06C18.512 107.06 18.6153 107.02 18.6953 106.94C18.7753 106.86 18.8153 106.753 18.8153 106.62C18.8153 106.5 18.7753 106.4 18.6953 106.32C18.6153 106.233 18.512 106.19 18.3853 106.19C18.2653 106.19 18.1653 106.233 18.0853 106.32C18.0053 106.4 17.9653 106.5 17.9653 106.62C17.9653 106.753 18.0053 106.86 18.0853 106.94C18.1653 107.02 18.2653 107.06 18.3853 107.06ZM13.9653 108L18.1953 100.94H19.5953L15.3653 108H13.9653Z" fill="#A1A1A1"/>
</svg>
