<svg width="40" height="28" viewBox="0 0 40 28" fill="none" xmlns="http://www.w3.org/2000/svg">
<path d="M36.81 10.5234L33.3334 7.04675V24.0001C33.3334 24.8841 32.9822 25.732 32.3571 26.3571C31.7319 26.9822 30.8841 27.3334 30 27.3334H18.3334V24.0001H30V7.04675L26.5234 10.5234L24.1667 8.16675L31.6667 0.666748L39.1667 8.16675L36.81 10.5234ZM10 20.9534V4.00008H21.6667V0.666748H10C9.11599 0.666748 8.26814 1.01794 7.64302 1.64306C7.0179 2.26818 6.66671 3.11603 6.66671 4.00008V20.9534L3.19004 17.4767L0.833374 19.8334L8.33337 27.3334L15.8334 19.8334L13.4767 17.4767L10 20.9534Z" fill="black"/>
</svg>
