<svg width="34" height="34" viewBox="0 0 34 34" fill="none" xmlns="http://www.w3.org/2000/svg">
<path d="M9.50004 2.83325C8.837 2.83325 8.20111 3.09664 7.73227 3.56549C7.26343 4.03433 7.00004 4.67021 7.00004 5.33325C7.00004 5.99629 7.26343 6.63218 7.73227 7.10102C8.20111 7.56986 8.837 7.83325 9.50004 7.83325C10.1631 7.83325 10.799 7.56986 11.2678 7.10102C11.7366 6.63218 12 5.99629 12 5.33325C12 4.67021 11.7366 4.03433 11.2678 3.56549C10.799 3.09664 10.1631 2.83325 9.50004 2.83325ZM4.50004 5.33325C4.50004 4.00717 5.02682 2.7354 5.96451 1.79772C6.90219 0.860036 8.17396 0.333252 9.50004 0.333252C10.8261 0.333252 12.0979 0.860036 13.0356 1.79772C13.9733 2.7354 14.5 4.00717 14.5 5.33325C14.5 6.65933 13.9733 7.9311 13.0356 8.86879C12.0979 9.80647 10.8261 10.3333 9.50004 10.3333C8.17396 10.3333 6.90219 9.80647 5.96451 8.86879C5.02682 7.9311 4.50004 6.65933 4.50004 5.33325ZM3.28004 11.9999C1.65004 11.9999 0.333374 13.3183 0.333374 14.9466V15.5466C0.333374 15.8916 0.333374 17.8933 1.50004 19.8383C2.41337 21.3549 3.96171 22.7166 6.45837 23.3266C6.80032 22.4176 7.41954 21.6392 8.22837 21.1016C5.55671 20.8166 4.29337 19.6299 3.64504 18.5516C2.83837 17.2083 2.83337 15.7783 2.83337 15.5416V14.9466C2.83337 14.6999 3.03337 14.4999 3.28004 14.4999H10.3834C10.4935 13.6186 10.7797 12.7684 11.225 11.9999H3.28004ZM22.775 11.9999C23.21 12.7533 23.5034 13.5983 23.615 14.4999H30.72C30.9667 14.4999 31.1667 14.6999 31.1667 14.9466V15.5416C31.1667 15.7783 31.1617 17.2083 30.355 18.5499C29.7067 19.6299 28.4434 20.8166 25.7717 21.1016C26.5717 21.6349 27.1984 22.4116 27.5417 23.3266C30.0384 22.7166 31.5867 21.3549 32.4984 19.8383C33.6667 17.8933 33.6667 15.8933 33.6667 15.5449V14.9449C33.6667 13.3199 32.3484 11.9999 30.72 11.9999H22.775ZM22 5.33325C22 4.67021 22.2634 4.03433 22.7323 3.56549C23.2011 3.09664 23.837 2.83325 24.5 2.83325C25.1631 2.83325 25.799 3.09664 26.2678 3.56549C26.7366 4.03433 27 4.67021 27 5.33325C27 5.99629 26.7366 6.63218 26.2678 7.10102C25.799 7.56986 25.1631 7.83325 24.5 7.83325C23.837 7.83325 23.2011 7.56986 22.7323 7.10102C22.2634 6.63218 22 5.99629 22 5.33325ZM24.5 0.333252C23.174 0.333252 21.9022 0.860036 20.9645 1.79772C20.0268 2.7354 19.5 4.00717 19.5 5.33325C19.5 6.65933 20.0268 7.9311 20.9645 8.86879C21.9022 9.80647 23.174 10.3333 24.5 10.3333C25.8261 10.3333 27.0979 9.80647 28.0356 8.86879C28.9733 7.9311 29.5 6.65933 29.5 5.33325C29.5 4.00717 28.9733 2.7354 28.0356 1.79772C27.0979 0.860036 25.8261 0.333252 24.5 0.333252ZM17 12.8333C16.6717 12.8333 16.3466 12.8979 16.0433 13.0236C15.74 13.1492 15.4644 13.3333 15.2323 13.5655C15.0001 13.7976 14.816 14.0732 14.6903 14.3765C14.5647 14.6799 14.5 15.0049 14.5 15.3333C14.5 15.6616 14.5647 15.9866 14.6903 16.29C14.816 16.5933 15.0001 16.8689 15.2323 17.101C15.4644 17.3332 15.74 17.5173 16.0433 17.643C16.3466 17.7686 16.6717 17.8333 17 17.8333C17.6631 17.8333 18.299 17.5699 18.7678 17.101C19.2366 16.6322 19.5 15.9963 19.5 15.3333C19.5 14.6702 19.2366 14.0343 18.7678 13.5655C18.299 13.0966 17.6631 12.8333 17 12.8333ZM12 15.3333C12 14.0072 12.5268 12.7354 13.4645 11.7977C14.4022 10.86 15.674 10.3333 17 10.3333C18.3261 10.3333 19.5979 10.86 20.5356 11.7977C21.4733 12.7354 22 14.0072 22 15.3333C22 16.6593 21.4733 17.9311 20.5356 18.8688C19.5979 19.8065 18.3261 20.3333 17 20.3333C15.674 20.3333 14.4022 19.8065 13.4645 18.8688C12.5268 17.9311 12 16.6593 12 15.3333ZM7.83337 24.9466C7.83337 23.3166 9.15171 21.9999 10.78 21.9999H23.22C24.8484 21.9999 26.1667 23.3183 26.1667 24.9466V25.5466C26.1667 25.8916 26.1667 27.8932 25 29.8382C23.7617 31.8949 21.355 33.6666 17 33.6666C12.645 33.6666 10.2367 31.8949 9.00004 29.8382C7.83337 27.8932 7.83337 25.8933 7.83337 25.5449V24.9466ZM10.78 24.4999C10.7214 24.4999 10.6633 24.5115 10.6091 24.5339C10.5549 24.5564 10.5057 24.5893 10.4642 24.6307C10.4227 24.6722 10.3898 24.7215 10.3674 24.7757C10.3449 24.8298 10.3334 24.8879 10.3334 24.9466V25.5416C10.3334 25.7783 10.3384 27.2083 11.145 28.5499C11.8884 29.7883 13.44 31.1666 17 31.1666C20.56 31.1666 22.1117 29.7883 22.855 28.5499C23.6617 27.2083 23.6667 25.7783 23.6667 25.5416V24.9466C23.6667 24.8281 23.6196 24.7145 23.5359 24.6307C23.4521 24.547 23.3385 24.4999 23.22 24.4999H10.78Z" fill="black"/>
</svg>
