<svg width="37" height="37" viewBox="0 0 37 37" fill="none" xmlns="http://www.w3.org/2000/svg">
<path d="M25.7533 0.978271L27.3633 1.41327C29.3323 1.94607 31.1271 2.98577 32.5688 4.42867C34.0106 5.87157 35.0488 7.66724 35.58 9.6366L36.0133 11.2449L32.7967 12.1133L32.3617 10.5049C31.9821 9.09823 31.2403 7.81562 30.2103 6.78506C29.1803 5.75449 27.8982 5.01199 26.4917 4.63161L24.8833 4.19494L25.7533 0.978271ZM0.666665 1.33327H14.9667L17.445 12.4833L14.345 15.5833C16.1669 18.4206 18.5789 20.832 21.4167 22.6533L24.5167 19.5549L35.6667 22.0333V36.3333H34C27.584 36.3433 21.3027 34.493 15.9167 31.0066C11.9454 28.4365 8.56348 25.0545 5.99333 21.0833C2.507 15.6972 0.656776 9.4159 0.666665 2.99994V1.33327ZM4.045 4.6666C4.32539 9.86655 5.96245 14.9024 8.79333 19.2733C11.1073 22.8481 14.1518 25.8927 17.7267 28.2066C22.0974 31.0376 27.1334 32.6747 32.3333 32.9549V24.7066L25.5783 23.2066L21.955 26.8316L20.85 26.2033C16.6545 23.8188 13.1811 20.3454 10.7967 16.1499L10.1683 15.0449L13.7933 11.4216L12.2933 4.6666H4.045ZM24.23 6.60827L25.84 7.04327C26.8245 7.30967 27.7219 7.82952 28.4427 8.55097C29.1636 9.27242 29.6827 10.1703 29.9483 11.1549L30.3817 12.7633L27.165 13.6316L26.73 12.0233C26.616 11.6012 26.3934 11.2165 26.0842 10.9074C25.7751 10.5982 25.3904 10.3756 24.9683 10.2616L23.36 9.8266L24.23 6.60827Z" fill="black"/>
</svg>
