<svg width="155" height="48" viewBox="0 0 155 48" fill="none" xmlns="http://www.w3.org/2000/svg">
<rect x="0.959656" y="0.5" width="153.083" height="47" rx="11.5" stroke="#E1E1E1"/>
<path d="M32.3612 30.16C31.7212 30.16 31.1559 30.0373 30.6652 29.792C30.1852 29.536 29.7906 29.1947 29.4812 28.768L30.5372 27.792C30.7399 28.0907 30.9906 28.32 31.2892 28.48C31.5986 28.64 31.9399 28.72 32.3132 28.72C32.6866 28.72 33.0172 28.64 33.3052 28.48C33.5932 28.32 33.8172 28.0853 33.9772 27.776C34.1479 27.456 34.2332 27.0667 34.2332 26.608V18.896H35.7372V26.528C35.7372 27.264 35.5879 27.904 35.2892 28.448C35.0012 28.992 34.6012 29.4133 34.0892 29.712C33.5879 30.0107 33.0119 30.16 32.3612 30.16ZM41.2111 30.16C40.5178 30.16 39.8884 29.9893 39.3231 29.648C38.7578 29.296 38.3098 28.8213 37.9791 28.224C37.6591 27.6267 37.4991 26.9547 37.4991 26.208C37.4991 25.4613 37.6591 24.7893 37.9791 24.192C38.3098 23.5947 38.7524 23.12 39.3071 22.768C39.8724 22.416 40.5071 22.24 41.2111 22.24C41.7871 22.24 42.2991 22.3627 42.7471 22.608C43.2058 22.8427 43.5738 23.1733 43.8511 23.6C44.1284 24.016 44.2831 24.5013 44.3151 25.056V27.344C44.2831 27.888 44.1284 28.3733 43.8511 28.8C43.5844 29.2267 43.2218 29.5627 42.7631 29.808C42.3151 30.0427 41.7978 30.16 41.2111 30.16ZM41.4511 28.8C42.1658 28.8 42.7418 28.56 43.1791 28.08C43.6164 27.5893 43.8351 26.9653 43.8351 26.208C43.8351 25.6853 43.7338 25.232 43.5311 24.848C43.3391 24.4533 43.0618 24.1493 42.6991 23.936C42.3364 23.712 41.9151 23.6 41.4351 23.6C40.9551 23.6 40.5284 23.712 40.1551 23.936C39.7924 24.16 39.5044 24.4693 39.2911 24.864C39.0884 25.248 38.9871 25.6907 38.9871 26.192C38.9871 26.704 39.0884 27.1573 39.2911 27.552C39.5044 27.936 39.7978 28.24 40.1711 28.464C40.5444 28.688 40.9711 28.8 41.4511 28.8ZM43.7391 30V27.952L44.0111 26.096L43.7391 24.256V22.4H45.1951V30H43.7391ZM52.6676 30V25.568C52.6676 24.992 52.4863 24.5173 52.1236 24.144C51.7609 23.7707 51.2916 23.584 50.7156 23.584C50.3316 23.584 49.9903 23.6693 49.6916 23.84C49.3929 24.0107 49.1583 24.2453 48.9876 24.544C48.8169 24.8427 48.7316 25.184 48.7316 25.568L48.1396 25.232C48.1396 24.656 48.2676 24.144 48.5236 23.696C48.7796 23.248 49.1369 22.896 49.5956 22.64C50.0543 22.3733 50.5716 22.24 51.1476 22.24C51.7236 22.24 52.2303 22.384 52.6676 22.672C53.1156 22.96 53.4676 23.3387 53.7236 23.808C53.9796 24.2667 54.1076 24.7573 54.1076 25.28V30H52.6676ZM47.2916 30V22.4H48.7316V30H47.2916ZM58.8573 29.088L62.9533 24.768C63.3693 24.3413 63.6947 23.9733 63.9293 23.664C64.164 23.344 64.3293 23.0507 64.4253 22.784C64.532 22.5173 64.5853 22.24 64.5853 21.952C64.5853 21.3867 64.404 20.944 64.0413 20.624C63.6787 20.304 63.2093 20.144 62.6333 20.144C62.068 20.144 61.572 20.2827 61.1453 20.56C60.7187 20.8267 60.34 21.2427 60.0093 21.808L58.9533 20.928C59.3907 20.2027 59.9187 19.6587 60.5373 19.296C61.156 18.9227 61.8707 18.736 62.6813 18.736C63.364 18.736 63.956 18.8693 64.4573 19.136C64.9693 19.4027 65.364 19.776 65.6413 20.256C65.9187 20.736 66.0573 21.296 66.0573 21.936C66.0573 22.3947 65.9987 22.8053 65.8813 23.168C65.7747 23.5307 65.5773 23.904 65.2893 24.288C65.012 24.6613 64.6227 25.1093 64.1213 25.632L60.8093 29.04L58.8573 29.088ZM58.8573 30V29.088L60.1373 28.656H66.3133V30H58.8573ZM72.2656 30.16C71.4336 30.16 70.6709 29.9253 69.9776 29.456C69.2949 28.9867 68.7509 28.3253 68.3456 27.472C67.9403 26.608 67.7376 25.5947 67.7376 24.432C67.7376 23.2693 67.9349 22.2613 68.3296 21.408C68.7349 20.5547 69.2789 19.8987 69.9616 19.44C70.6443 18.9707 71.3963 18.736 72.2176 18.736C73.0603 18.736 73.8229 18.9707 74.5056 19.44C75.1883 19.8987 75.7269 20.5547 76.1216 21.408C76.5269 22.2613 76.7296 23.2747 76.7296 24.448C76.7296 25.6107 76.5269 26.624 76.1216 27.488C75.7269 28.3413 75.1883 29.0027 74.5056 29.472C73.8336 29.9307 73.0869 30.16 72.2656 30.16ZM72.2336 28.736C72.8203 28.736 73.3323 28.576 73.7696 28.256C74.2176 27.9253 74.5696 27.44 74.8256 26.8C75.0816 26.16 75.2096 25.3707 75.2096 24.432C75.2096 23.4933 75.0816 22.7093 74.8256 22.08C74.5696 21.44 74.2176 20.96 73.7696 20.64C73.3216 20.3093 72.8043 20.144 72.2176 20.144C71.6416 20.144 71.1296 20.3093 70.6816 20.64C70.2336 20.96 69.8816 21.44 69.6256 22.08C69.3803 22.7093 69.2576 23.4933 69.2576 24.432C69.2576 25.3707 69.3803 26.16 69.6256 26.8C69.8816 27.44 70.2336 27.9253 70.6816 28.256C71.1296 28.576 71.6469 28.736 72.2336 28.736ZM77.9823 29.088L82.0783 24.768C82.4943 24.3413 82.8197 23.9733 83.0543 23.664C83.289 23.344 83.4543 23.0507 83.5503 22.784C83.657 22.5173 83.7103 22.24 83.7103 21.952C83.7103 21.3867 83.529 20.944 83.1663 20.624C82.8037 20.304 82.3343 20.144 81.7583 20.144C81.193 20.144 80.697 20.2827 80.2703 20.56C79.8437 20.8267 79.465 21.2427 79.1343 21.808L78.0783 20.928C78.5157 20.2027 79.0437 19.6587 79.6623 19.296C80.281 18.9227 80.9957 18.736 81.8063 18.736C82.489 18.736 83.081 18.8693 83.5823 19.136C84.0943 19.4027 84.489 19.776 84.7663 20.256C85.0437 20.736 85.1823 21.296 85.1823 21.936C85.1823 22.3947 85.1237 22.8053 85.0063 23.168C84.8997 23.5307 84.7023 23.904 84.4143 24.288C84.137 24.6613 83.7477 25.1093 83.2463 25.632L79.9343 29.04L77.9823 29.088ZM77.9823 30V29.088L79.2623 28.656H85.4383V30H77.9823ZM86.6386 26.176L90.6866 18.896H92.3826L88.2546 26.176H86.6386ZM86.6386 27.104V26.176L87.2786 25.76H95.1506V27.104H86.6386ZM92.0626 30V22.656H93.5506V30H92.0626Z" fill="#383838"/>
<g clip-path="url(#clip0_134_405)">
<path d="M116.001 24.9766L120.126 20.8516L121.305 22.0299L116.001 27.3332L110.698 22.0299L111.876 20.8516L116.001 24.9766Z" fill="#383838"/>
</g>
<defs>
<clipPath id="clip0_134_405">
<rect width="20" height="20" fill="white" transform="translate(106.001 14)"/>
</clipPath>
</defs>
</svg>
