<svg width="42" height="45" viewBox="0 0 42 45" fill="none" xmlns="http://www.w3.org/2000/svg">
<g filter="url(#filter0_d_136_701)">
<path d="M13.5 5.83325C12.8369 5.83325 12.2011 6.09664 11.7322 6.56549C11.2634 7.03433 11 7.67021 11 8.33325C11 8.99629 11.2634 9.63218 11.7322 10.101C12.2011 10.5699 12.8369 10.8333 13.5 10.8333C14.163 10.8333 14.7989 10.5699 15.2677 10.101C15.7366 9.63218 16 8.99629 16 8.33325C16 7.67021 15.7366 7.03433 15.2677 6.56549C14.7989 6.09664 14.163 5.83325 13.5 5.83325ZM8.49998 8.33325C8.49998 7.00717 9.02676 5.7354 9.96445 4.79772C10.9021 3.86004 12.1739 3.33325 13.5 3.33325C14.8261 3.33325 16.0978 3.86004 17.0355 4.79772C17.9732 5.7354 18.5 7.00717 18.5 8.33325C18.5 9.65933 17.9732 10.9311 17.0355 11.8688C16.0978 12.8065 14.8261 13.3333 13.5 13.3333C12.1739 13.3333 10.9021 12.8065 9.96445 11.8688C9.02676 10.9311 8.49998 9.65933 8.49998 8.33325ZM7.27998 14.9999C5.64998 14.9999 4.33331 16.3183 4.33331 17.9466V18.5466C4.33331 18.8916 4.33331 20.8933 5.49998 22.8383C6.41331 24.3549 7.96165 25.7166 10.4583 26.3266C10.8003 25.4176 11.4195 24.6392 12.2283 24.1016C9.55665 23.8166 8.29331 22.6299 7.64498 21.5516C6.83831 20.2083 6.83331 18.7783 6.83331 18.5416V17.9466C6.83331 17.6999 7.03331 17.4999 7.27998 17.4999H14.3833C14.4934 16.6186 14.7796 15.7684 15.225 14.9999H7.27998ZM26.775 14.9999C27.21 15.7533 27.5033 16.5983 27.615 17.4999H34.72C34.9666 17.4999 35.1666 17.6999 35.1666 17.9466V18.5416C35.1666 18.7783 35.1616 20.2083 34.355 21.5499C33.7066 22.6299 32.4433 23.8166 29.7716 24.1016C30.5716 24.6349 31.1983 25.4116 31.5416 26.3266C34.0383 25.7166 35.5866 24.3549 36.4983 22.8383C37.6666 20.8933 37.6666 18.8933 37.6666 18.5449V17.9449C37.6666 16.3199 36.3483 14.9999 34.72 14.9999H26.775ZM26 8.33325C26 7.67021 26.2634 7.03433 26.7322 6.56549C27.2011 6.09664 27.8369 5.83325 28.5 5.83325C29.163 5.83325 29.7989 6.09664 30.2677 6.56549C30.7366 7.03433 31 7.67021 31 8.33325C31 8.99629 30.7366 9.63218 30.2677 10.101C29.7989 10.5699 29.163 10.8333 28.5 10.8333C27.8369 10.8333 27.2011 10.5699 26.7322 10.101C26.2634 9.63218 26 8.99629 26 8.33325ZM28.5 3.33325C27.1739 3.33325 25.9021 3.86004 24.9644 4.79772C24.0268 5.7354 23.5 7.00717 23.5 8.33325C23.5 9.65933 24.0268 10.9311 24.9644 11.8688C25.9021 12.8065 27.1739 13.3333 28.5 13.3333C29.8261 13.3333 31.0978 12.8065 32.0355 11.8688C32.9732 10.9311 33.5 9.65933 33.5 8.33325C33.5 7.00717 32.9732 5.7354 32.0355 4.79772C31.0978 3.86004 29.8261 3.33325 28.5 3.33325ZM21 15.8333C20.6717 15.8333 20.3466 15.8979 20.0433 16.0236C19.74 16.1492 19.4644 16.3333 19.2322 16.5655C19.0001 16.7976 18.8159 17.0732 18.6903 17.3765C18.5646 17.6799 18.5 18.0049 18.5 18.3333C18.5 18.6616 18.5646 18.9866 18.6903 19.29C18.8159 19.5933 19.0001 19.8689 19.2322 20.101C19.4644 20.3332 19.74 20.5173 20.0433 20.643C20.3466 20.7686 20.6717 20.8333 21 20.8333C21.663 20.8333 22.2989 20.5699 22.7677 20.101C23.2366 19.6322 23.5 18.9963 23.5 18.3333C23.5 17.6702 23.2366 17.0343 22.7677 16.5655C22.2989 16.0966 21.663 15.8333 21 15.8333ZM16 18.3333C16 17.0072 16.5268 15.7354 17.4644 14.7977C18.4021 13.86 19.6739 13.3333 21 13.3333C22.3261 13.3333 23.5978 13.86 24.5355 14.7977C25.4732 15.7354 26 17.0072 26 18.3333C26 19.6593 25.4732 20.9311 24.5355 21.8688C23.5978 22.8065 22.3261 23.3333 21 23.3333C19.6739 23.3333 18.4021 22.8065 17.4644 21.8688C16.5268 20.9311 16 19.6593 16 18.3333ZM11.8333 27.9466C11.8333 26.3166 13.1516 24.9999 14.78 24.9999H27.22C28.8483 24.9999 30.1666 26.3183 30.1666 27.9466V28.5466C30.1666 28.8916 30.1666 30.8932 29 32.8382C27.7616 34.8949 25.355 36.6666 21 36.6666C16.645 36.6666 14.2366 34.8949 13 32.8382C11.8333 30.8932 11.8333 28.8933 11.8333 28.5449V27.9466ZM14.78 27.4999C14.7213 27.4999 14.6632 27.5115 14.609 27.5339C14.5549 27.5564 14.5056 27.5893 14.4641 27.6307C14.4227 27.6722 14.3898 27.7215 14.3673 27.7757C14.3449 27.8298 14.3333 27.8879 14.3333 27.9466V28.5416C14.3333 28.7783 14.3383 30.2083 15.145 31.5499C15.8883 32.7883 17.44 34.1666 21 34.1666C24.56 34.1666 26.1116 32.7883 26.855 31.5499C27.6616 30.2083 27.6666 28.7783 27.6666 28.5416V27.9466C27.6666 27.8281 27.6196 27.7145 27.5358 27.6307C27.4521 27.547 27.3384 27.4999 27.22 27.4999H14.78Z" fill="black"/>
</g>
<defs>
<filter id="filter0_d_136_701" x="-3" y="0" width="48" height="48" filterUnits="userSpaceOnUse" color-interpolation-filters="sRGB">
<feFlood flood-opacity="0" result="BackgroundImageFix"/>
<feColorMatrix in="SourceAlpha" type="matrix" values="0 0 0 0 0 0 0 0 0 0 0 0 0 0 0 0 0 0 127 0" result="hardAlpha"/>
<feOffset dy="4"/>
<feGaussianBlur stdDeviation="2"/>
<feComposite in2="hardAlpha" operator="out"/>
<feColorMatrix type="matrix" values="0 0 0 0 0 0 0 0 0 0 0 0 0 0 0 0 0 0 0.25 0"/>
<feBlend mode="normal" in2="BackgroundImageFix" result="effect1_dropShadow_136_701"/>
<feBlend mode="normal" in="SourceGraphic" in2="effect1_dropShadow_136_701" result="shape"/>
</filter>
</defs>
</svg>
