<svg width="40" height="40" viewBox="0 0 40 40" fill="none" xmlns="http://www.w3.org/2000/svg">
<path d="M36.81 16.5232L33.3333 13.0465V29.9998C33.3333 30.8839 32.9821 31.7317 32.357 32.3569C31.7319 32.982 30.884 33.3332 30 33.3332H18.3333V29.9998H30V13.0465L26.5233 16.5232L24.1666 14.1665L31.6666 6.6665L39.1666 14.1665L36.81 16.5232ZM9.99998 26.9532V9.99984H21.6666V6.6665H9.99998C9.11592 6.6665 8.26808 7.01769 7.64296 7.64281C7.01784 8.26794 6.66665 9.11578 6.66665 9.99984V26.9532L3.18998 23.4765L0.833313 25.8332L8.33331 33.3332L15.8333 25.8332L13.4766 23.4765L9.99998 26.9532Z" fill="black"/>
</svg>
