<svg width="24" height="24" viewBox="0 0 24 24" fill="none" xmlns="http://www.w3.org/2000/svg">
<path fill-rule="evenodd" clip-rule="evenodd" d="M8.30781 0C8.55262 0 8.7874 0.0972496 8.96051 0.270355C9.13362 0.443461 9.23087 0.678243 9.23087 0.923051V2.77654C11.4295 2.80968 13.6246 2.9621 15.8067 3.23314C15.927 3.24817 16.0432 3.28675 16.1486 3.34669C16.254 3.40662 16.3466 3.48673 16.4211 3.58245C16.4955 3.67816 16.5504 3.7876 16.5826 3.90452C16.6147 4.02144 16.6235 4.14355 16.6085 4.26388C16.5935 4.38421 16.5549 4.5004 16.495 4.60581C16.435 4.71123 16.3549 4.80381 16.2592 4.87827C16.1635 4.95272 16.054 5.0076 15.9371 5.03976C15.8202 5.07192 15.6981 5.08074 15.5778 5.0657C14.7633 4.96371 13.9467 4.87918 13.1286 4.81217C12.4106 7.61303 11.1705 10.2532 9.47332 12.5941C9.86469 13.0667 10.2733 13.5209 10.7041 13.9578C10.8658 14.1342 10.9527 14.3666 10.9464 14.6059C10.94 14.8452 10.841 15.0727 10.6701 15.2403C10.4993 15.408 10.27 15.5027 10.0306 15.5045C9.79125 15.5063 9.56054 15.4151 9.38717 15.25C9.01409 14.8715 8.6541 14.4803 8.30781 14.0771C6.36496 16.3476 4.00118 18.2208 1.34678 19.5933C1.12923 19.7056 0.875979 19.7268 0.642748 19.6524C0.409517 19.578 0.215407 19.4139 0.103122 19.1964C-0.00916366 18.9788 -0.0304275 18.7256 0.0440079 18.4924C0.118443 18.2591 0.282481 18.065 0.500034 17.9527C3.0521 16.6327 5.31101 14.8104 7.14108 12.5953C6.06725 11.1125 5.174 9.50697 4.48023 7.8127C4.393 7.58726 4.39768 7.33659 4.49328 7.11456C4.58888 6.89253 4.76776 6.71687 4.99149 6.62531C5.21522 6.53376 5.46593 6.53363 5.68975 6.62494C5.91358 6.71625 6.09265 6.89172 6.18849 7.11365C6.75443 8.49499 7.46482 9.81263 8.30781 11.0446C9.63556 9.10418 10.6301 6.95575 11.2505 4.68787C7.84176 4.51882 4.42479 4.64524 1.03786 5.0657C0.794852 5.09606 0.549733 5.02864 0.356432 4.87827C0.16313 4.72789 0.0374809 4.50689 0.00712467 4.26388C-0.0232316 4.02087 0.044192 3.77575 0.194563 3.58245C0.344934 3.38915 0.565935 3.2635 0.808948 3.23314C2.99096 2.96156 5.18616 2.80913 7.38476 2.77654V0.923051C7.38476 0.678243 7.48201 0.443461 7.65512 0.270355C7.82823 0.0972496 8.06301 0 8.30781 0ZM16.6153 8.30746C16.791 8.30739 16.9632 8.35751 17.1114 8.45191C17.2597 8.54631 17.3779 8.68108 17.4522 8.84037L23.9135 22.6861C23.9648 22.796 23.9938 22.915 23.9991 23.0361C24.0044 23.1572 23.9858 23.2782 23.9443 23.3922C23.9028 23.5061 23.8393 23.6108 23.7573 23.7002C23.6754 23.7896 23.5767 23.8619 23.4668 23.9132C23.2448 24.0166 22.9908 24.0277 22.7607 23.9439C22.5306 23.8601 22.3432 23.6884 22.2397 23.4664L20.7653 20.3071H12.4652L10.9908 23.4664C10.8873 23.6884 10.6999 23.8601 10.4698 23.9439C10.2397 24.0277 9.98573 24.0166 9.76377 23.9132C9.54181 23.8097 9.37005 23.6223 9.28627 23.3922C9.20248 23.1621 9.21354 22.9081 9.31702 22.6861L15.7784 8.84037C15.8527 8.68108 15.9709 8.54631 16.1191 8.45191C16.2674 8.35751 16.4395 8.30739 16.6153 8.30746ZM13.3268 18.461H19.9038L16.6153 11.4138L13.3268 18.461Z" fill="black"/>
</svg>
