<svg width="231" height="57" viewBox="0 0 231 57" fill="none" xmlns="http://www.w3.org/2000/svg">
<circle cx="28.1298" cy="28.8701" r="24.9091" stroke="#76A9FA" stroke-width="2"/>
<path fill-rule="evenodd" clip-rule="evenodd" d="M19.0937 21.1813C18.9989 23.393 19.4758 26.3007 20.5873 29.3547C21.6989 32.4086 23.2026 34.9426 24.6969 36.5758C25.4457 37.3943 26.1573 37.9483 26.7776 38.2464C27.3938 38.5424 27.8414 38.5527 28.1614 38.4362C28.4815 38.3197 28.8177 38.0241 29.0994 37.4013C29.383 36.7743 29.572 35.8925 29.6196 34.7841C29.7145 32.5724 29.2375 29.6647 28.126 26.6108C27.0145 23.5569 25.5108 21.0229 24.0164 19.3896C23.2676 18.5711 22.556 18.0171 21.9357 17.7191C21.3195 17.4231 20.872 17.4127 20.5519 17.5292C20.2319 17.6457 19.8956 17.9413 19.6139 18.5642C19.3303 19.1912 19.1413 20.073 19.0937 21.1813ZM17.7917 17.7399C18.217 16.7996 18.8876 16.0067 19.8679 15.6499C20.8482 15.293 21.8715 15.4694 22.8018 15.9164C23.7279 16.3613 24.6383 17.1064 25.492 18.0396C27.2029 19.9095 28.8267 22.6884 30.0054 25.9268C31.1841 29.1651 31.7264 32.3377 31.6178 34.8698C31.5635 36.1334 31.3451 37.2894 30.9217 38.2256C30.4963 39.1659 29.8258 39.9588 28.8455 40.3156C27.8652 40.6724 26.8418 40.496 25.9116 40.0491C24.9854 39.6042 24.075 38.859 23.2213 37.9259C21.5104 36.056 19.8866 33.2771 18.7079 30.0387C17.5293 26.8003 16.987 23.6278 17.0956 21.0956C17.1498 19.832 17.3682 18.676 17.7917 17.7399ZM8.98673 33.16C10.4835 34.791 12.8769 36.5098 15.8223 37.8833C18.7677 39.2567 21.6228 39.9853 23.8343 40.0835C24.9426 40.1328 25.8375 40.0213 26.4869 39.7934C27.1319 39.5671 27.4557 39.2579 27.5996 38.9492C27.7435 38.6405 27.7723 38.1938 27.5311 37.5541C27.2882 36.9102 26.7983 36.153 26.0483 35.3357C24.5515 33.7047 22.1581 31.9859 19.2127 30.6124C16.2673 29.239 13.4122 28.5104 11.2007 28.4122C10.0924 28.3629 9.19748 28.4744 8.54813 28.7023C7.9031 28.9286 7.57933 29.2378 7.43539 29.5465C7.29145 29.8552 7.26274 30.3019 7.50393 30.9415C7.74675 31.5855 8.23665 32.3427 8.98673 33.16ZM5.63256 31.6472C5.26842 30.6815 5.18189 29.6467 5.62277 28.7012C6.06366 27.7558 6.91199 27.1569 7.88581 26.8151C8.85529 26.4749 10.0259 26.358 11.2894 26.4141C13.8214 26.5266 16.9346 27.3434 20.058 28.7998C23.1813 30.2562 25.8081 32.1161 27.5218 33.9834C28.377 34.9152 29.0399 35.8871 29.4024 36.8485C29.7666 37.8142 29.8531 38.849 29.4122 39.7944C28.9713 40.7399 28.123 41.3388 27.1492 41.6806C26.1797 42.0208 25.0091 42.1377 23.7456 42.0816C21.2136 41.9691 18.1004 41.1523 14.977 39.6959C11.8537 38.2395 9.22692 36.3796 7.51321 34.5123C6.65804 33.5805 5.99508 32.6086 5.63256 31.6472ZM27.9034 37.4032C28.1851 38.026 28.5213 38.3216 28.8414 38.4381C29.1614 38.5546 29.609 38.5442 30.2252 38.2482C30.8455 37.9502 31.5571 37.3962 32.3059 36.5777C33.8003 34.9445 35.304 32.4104 36.4155 29.3565C37.527 26.3026 38.004 23.3949 37.9091 21.1832C37.8615 20.0749 37.6725 19.193 37.3889 18.566C37.1072 17.9432 36.771 17.6476 36.4509 17.5311C36.1309 17.4146 35.6833 17.4249 35.0671 17.721C34.4468 18.019 33.7352 18.573 32.9864 19.3915C31.4921 21.0247 29.9883 23.5588 28.8768 26.6127C27.7653 29.6666 27.2884 32.5743 27.3832 34.786C27.4308 35.8943 27.6198 36.7761 27.9034 37.4032ZM25.3851 34.8717C25.2764 32.3395 25.8188 29.167 26.9974 25.9286C28.1761 22.6903 29.7999 19.9114 31.5108 18.0414C32.3645 17.1083 33.2749 16.3632 34.2011 15.9182C35.1313 15.4713 36.1546 15.2949 37.135 15.6517C38.1153 16.0085 38.7858 16.8014 39.2112 17.7418C39.6346 18.6779 39.853 19.8339 39.9072 21.0975C40.0159 23.6297 39.4736 26.8022 38.2949 30.0406C37.1162 33.2789 35.4924 36.0578 33.7815 37.9278C32.9278 38.8609 32.0174 39.606 31.0913 40.051C30.161 40.4979 29.1377 40.6743 28.1574 40.3175C27.177 39.9607 26.5065 39.1678 26.0812 38.2274C25.6577 37.2913 25.4393 36.1353 25.3851 34.8717ZM29.4745 37.5487C29.2333 38.1884 29.2621 38.6351 29.406 38.9438C29.5499 39.2525 29.8737 39.5617 30.5187 39.788C31.1681 40.0159 32.063 40.1274 33.1713 40.0781C35.3828 39.9799 38.2379 39.2513 41.1833 37.8779C44.1287 36.5044 46.5221 34.7856 48.0189 33.1546C48.769 32.3373 49.2589 31.5801 49.5017 30.9361C49.7429 30.2965 49.7142 29.8498 49.5702 29.5411C49.4263 29.2324 49.1025 28.9232 48.4575 28.6969C47.8081 28.469 46.9132 28.3575 45.8049 28.4068C43.5934 28.505 40.7383 29.2336 37.7929 30.607C34.8475 31.9805 32.4541 33.6993 30.9573 35.3303C30.2073 36.1476 29.7174 36.9048 29.4745 37.5487ZM29.4838 33.978C31.1975 32.1107 33.8243 30.2508 36.9476 28.7944C40.071 27.338 43.1842 26.5212 45.7162 26.4087C46.9797 26.3526 48.1503 26.4695 49.1198 26.8097C50.0936 27.1515 50.9419 27.7504 51.3828 28.6958C51.8237 29.6413 51.7372 30.6761 51.373 31.6418C51.0105 32.6032 50.3476 33.5751 49.4924 34.5069C47.7787 36.3742 45.1519 38.2341 42.0286 39.6905C38.9053 41.1469 35.792 41.9637 33.26 42.0762C31.9965 42.1323 30.8259 42.0154 29.8564 41.6752C28.8826 41.3334 28.0343 40.7345 27.5934 39.789C27.1525 38.8436 27.239 37.8088 27.6032 36.8431C27.9657 35.8817 28.6286 34.9098 29.4838 33.978ZM28.5001 40.1948C29.6441 40.1948 30.5715 39.2674 30.5715 38.1233C30.5715 36.9793 29.6441 36.0519 28.5001 36.0519C27.3561 36.0519 26.4287 36.9793 26.4287 38.1233C26.4287 39.2674 27.3561 40.1948 28.5001 40.1948ZM28.5001 42.1948C30.7487 42.1948 32.5715 40.3719 32.5715 38.1233C32.5715 35.8747 30.7487 34.0519 28.5001 34.0519C26.2515 34.0519 24.4287 35.8747 24.4287 38.1233C24.4287 40.3719 26.2515 42.1948 28.5001 42.1948Z" fill="#76A9FA"/>
<path d="M94.022 15.274V41.5H88.658V26.416C88.658 26.068 88.664 25.69 88.676 25.282C88.7 24.874 88.736 24.46 88.784 24.04L81.818 37.522C81.602 37.942 81.308 38.26 80.936 38.476C80.576 38.692 80.162 38.8 79.694 38.8H78.866C78.398 38.8 77.978 38.692 77.606 38.476C77.246 38.26 76.958 37.942 76.742 37.522L69.776 24.004C69.812 24.436 69.842 24.862 69.866 25.282C69.89 25.69 69.902 26.068 69.902 26.416V41.5H64.538V15.274H69.182C69.446 15.274 69.674 15.28 69.866 15.292C70.07 15.304 70.25 15.34 70.406 15.4C70.562 15.46 70.7 15.556 70.82 15.688C70.952 15.808 71.078 15.982 71.198 16.21L77.948 29.512C78.188 29.968 78.416 30.442 78.632 30.934C78.86 31.426 79.076 31.93 79.28 32.446C79.484 31.918 79.694 31.402 79.91 30.898C80.138 30.394 80.378 29.914 80.63 29.458L87.362 16.21C87.482 15.982 87.602 15.808 87.722 15.688C87.854 15.556 87.998 15.46 88.154 15.4C88.31 15.34 88.484 15.304 88.676 15.292C88.88 15.28 89.114 15.274 89.378 15.274H94.022ZM103.909 22.834V41.5H98.3285V22.834H103.909ZM104.485 17.722C104.485 18.166 104.395 18.586 104.215 18.982C104.035 19.366 103.789 19.708 103.477 20.008C103.165 20.296 102.799 20.53 102.379 20.71C101.971 20.878 101.533 20.962 101.064 20.962C100.609 20.962 100.183 20.878 99.7865 20.71C99.3905 20.53 99.0365 20.296 98.7245 20.008C98.4245 19.708 98.1845 19.366 98.0045 18.982C97.8365 18.586 97.7525 18.166 97.7525 17.722C97.7525 17.266 97.8365 16.84 98.0045 16.444C98.1845 16.048 98.4245 15.7 98.7245 15.4C99.0365 15.1 99.3905 14.866 99.7865 14.698C100.183 14.53 100.609 14.446 101.064 14.446C101.533 14.446 101.971 14.53 102.379 14.698C102.799 14.866 103.165 15.1 103.477 15.4C103.789 15.7 104.035 16.048 104.215 16.444C104.395 16.84 104.485 17.266 104.485 17.722ZM112.948 24.85C113.308 24.514 113.68 24.202 114.064 23.914C114.448 23.626 114.856 23.386 115.288 23.194C115.732 22.99 116.206 22.834 116.71 22.726C117.226 22.606 117.784 22.546 118.384 22.546C119.404 22.546 120.304 22.726 121.084 23.086C121.876 23.434 122.542 23.926 123.082 24.562C123.622 25.186 124.03 25.936 124.306 26.812C124.582 27.676 124.72 28.618 124.72 29.638V41.5H119.14V29.638C119.14 28.726 118.93 28.018 118.51 27.514C118.09 26.998 117.472 26.74 116.656 26.74C116.044 26.74 115.468 26.872 114.928 27.136C114.4 27.388 113.884 27.736 113.38 28.18V41.5H107.8V22.834H111.256C111.952 22.834 112.408 23.146 112.624 23.77L112.948 24.85ZM139.653 27.838C139.233 27.37 138.777 27.046 138.285 26.866C137.793 26.674 137.277 26.578 136.737 26.578C136.221 26.578 135.747 26.68 135.315 26.884C134.883 27.088 134.505 27.418 134.181 27.874C133.869 28.318 133.623 28.9 133.443 29.62C133.263 30.34 133.173 31.21 133.173 32.23C133.173 33.214 133.245 34.042 133.389 34.714C133.533 35.386 133.731 35.932 133.983 36.352C134.247 36.76 134.559 37.054 134.919 37.234C135.279 37.414 135.681 37.504 136.125 37.504C136.533 37.504 136.899 37.468 137.223 37.396C137.559 37.312 137.865 37.198 138.141 37.054C138.417 36.91 138.675 36.73 138.915 36.514C139.167 36.286 139.413 36.028 139.653 35.74V27.838ZM145.233 14.554V41.5H141.777C141.081 41.5 140.625 41.188 140.409 40.564L139.977 39.142C139.605 39.538 139.215 39.898 138.807 40.222C138.399 40.546 137.955 40.828 137.475 41.068C137.007 41.296 136.497 41.47 135.945 41.59C135.405 41.722 134.817 41.788 134.181 41.788C133.209 41.788 132.309 41.572 131.481 41.14C130.653 40.708 129.939 40.084 129.339 39.268C128.739 38.452 128.265 37.456 127.917 36.28C127.581 35.092 127.413 33.742 127.413 32.23C127.413 30.838 127.605 29.548 127.989 28.36C128.373 27.16 128.913 26.128 129.609 25.264C130.317 24.388 131.163 23.704 132.147 23.212C133.131 22.72 134.217 22.474 135.405 22.474C136.377 22.474 137.193 22.612 137.853 22.888C138.513 23.164 139.113 23.536 139.653 24.004V14.554H145.233ZM153.845 41.5H150.605V15.796H164.969V18.64H153.845V27.748H164.285V30.592H153.845V41.5ZM184.411 22.834V41.5H180.955C180.259 41.5 179.803 41.188 179.587 40.564L179.263 39.484C178.903 39.832 178.531 40.15 178.147 40.438C177.763 40.714 177.349 40.954 176.905 41.158C176.473 41.35 175.999 41.5 175.483 41.608C174.979 41.728 174.427 41.788 173.827 41.788C172.807 41.788 171.901 41.614 171.109 41.266C170.329 40.906 169.669 40.408 169.129 39.772C168.589 39.136 168.181 38.386 167.905 37.522C167.629 36.658 167.491 35.71 167.491 34.678V22.834H173.071V34.678C173.071 35.602 173.281 36.316 173.701 36.82C174.121 37.324 174.739 37.576 175.555 37.576C176.167 37.576 176.737 37.45 177.265 37.198C177.805 36.934 178.327 36.58 178.831 36.136V22.834H184.411ZM193.783 14.554V41.5H188.203V14.554H193.783Z" fill="#76A9FA"/>
</svg>
