<svg width="40" height="40" viewBox="0 0 40 40" fill="none" xmlns="http://www.w3.org/2000/svg">
<path d="M7.69167 31.6668C6.925 31.6668 6.285 31.4102 5.77167 30.8968C5.25722 30.3824 5 29.7418 5 28.9752V11.0252C5 10.2585 5.25722 9.6185 5.77167 9.10516C6.285 8.59072 6.925 8.3335 7.69167 8.3335H15.9933L19.3267 11.6668H32.3083C33.075 11.6668 33.715 11.9241 34.2283 12.4385C34.7428 12.9518 35 13.5918 35 14.3585V28.9752C35 29.7418 34.7433 30.3818 34.23 30.8952C33.7156 31.4096 33.075 31.6668 32.3083 31.6668H7.69167ZM7.69167 30.0002H32.3083C32.6072 30.0002 32.8528 29.9041 33.045 29.7118C33.2372 29.5196 33.3333 29.2741 33.3333 28.9752V14.3585C33.3333 14.0596 33.2372 13.8141 33.045 13.6218C32.8528 13.4296 32.6072 13.3335 32.3083 13.3335H18.6583L15.325 10.0002H7.69167C7.39278 10.0002 7.14722 10.0963 6.955 10.2885C6.76278 10.4807 6.66667 10.7263 6.66667 11.0252V28.9752C6.66667 29.2741 6.76278 29.5196 6.955 29.7118C7.14722 29.9041 7.39278 30.0002 7.69167 30.0002Z" fill="black"/>
</svg>
