<svg width="40" height="40" viewBox="0 0 40 40" fill="none" xmlns="http://www.w3.org/2000/svg">
<path d="M20 13.3335C21.7681 13.3335 23.4638 14.0359 24.7141 15.2861C25.9643 16.5364 26.6667 18.2321 26.6667 20.0002C26.6667 21.7683 25.9643 23.464 24.7141 24.7142C23.4638 25.9645 21.7681 26.6668 20 26.6668C18.2319 26.6668 16.5362 25.9645 15.286 24.7142C14.0357 23.464 13.3334 21.7683 13.3334 20.0002C13.3334 18.2321 14.0357 16.5364 15.286 15.2861C16.5362 14.0359 18.2319 13.3335 20 13.3335ZM20 16.6668C19.116 16.6668 18.2681 17.018 17.643 17.6431C17.0179 18.2683 16.6667 19.1161 16.6667 20.0002C16.6667 20.8842 17.0179 21.7321 17.643 22.3572C18.2681 22.9823 19.116 23.3335 20 23.3335C20.8841 23.3335 21.7319 22.9823 22.357 22.3572C22.9822 21.7321 23.3334 20.8842 23.3334 20.0002C23.3334 19.1161 22.9822 18.2683 22.357 17.6431C21.7319 17.018 20.8841 16.6668 20 16.6668ZM16.6667 36.6668C16.25 36.6668 15.9 36.3668 15.8334 35.9668L15.2167 31.5502C14.1667 31.1335 13.2667 30.5668 12.4 29.9002L8.25002 31.5835C7.88336 31.7168 7.43336 31.5835 7.23336 31.2168L3.90002 25.4502C3.79802 25.2784 3.76206 25.0754 3.79887 24.8791C3.83568 24.6828 3.94274 24.5066 4.10002 24.3835L7.61669 21.6168L7.50002 20.0002L7.61669 18.3335L4.10002 15.6168C3.94274 15.4937 3.83568 15.3175 3.79887 15.1212C3.76206 14.9249 3.79802 14.7219 3.90002 14.5502L7.23336 8.7835C7.43336 8.41683 7.88336 8.26683 8.25002 8.41683L12.4 10.0835C13.2667 9.4335 14.1667 8.86683 15.2167 8.45016L15.8334 4.0335C15.9 3.6335 16.25 3.3335 16.6667 3.3335H23.3334C23.75 3.3335 24.1 3.6335 24.1667 4.0335L24.7834 8.45016C25.8334 8.86683 26.7334 9.4335 27.6 10.0835L31.75 8.41683C32.1167 8.26683 32.5667 8.41683 32.7667 8.7835L36.1 14.5502C36.3167 14.9168 36.2167 15.3668 35.9 15.6168L32.3834 18.3335L32.5 20.0002L32.3834 21.6668L35.9 24.3835C36.2167 24.6335 36.3167 25.0835 36.1 25.4502L32.7667 31.2168C32.5667 31.5835 32.1167 31.7335 31.75 31.5835L27.6 29.9168C26.7334 30.5668 25.8334 31.1335 24.7834 31.5502L24.1667 35.9668C24.1 36.3668 23.75 36.6668 23.3334 36.6668H16.6667ZM18.75 6.66683L18.1334 11.0168C16.1334 11.4335 14.3667 12.5002 13.0834 13.9835L9.06669 12.2502L7.81669 14.4168L11.3334 17.0002C10.6667 18.9446 10.6667 21.0557 11.3334 23.0002L7.80002 25.6002L9.05002 27.7668L13.1 26.0335C14.3834 27.5002 16.1334 28.5668 18.1167 28.9668L18.7334 33.3335H21.2667L21.8834 28.9835C23.8667 28.5668 25.6167 27.5002 26.9 26.0335L30.95 27.7668L32.2 25.6002L28.6667 23.0168C29.3334 21.0668 29.3334 18.9502 28.6667 17.0002L32.1834 14.4168L30.9334 12.2502L26.9167 13.9835C25.6071 12.4674 23.8306 11.4296 21.8667 11.0335L21.25 6.66683H18.75Z" fill="black"/>
</svg>
