<svg width="231" height="58" viewBox="0 0 231 58" fill="none" xmlns="http://www.w3.org/2000/svg">
<circle cx="28.1299" cy="29.3701" r="24.9091" stroke="#76A9FA" stroke-width="2"/>
<path fill-rule="evenodd" clip-rule="evenodd" d="M19.0936 21.6814C18.9988 23.8931 19.4757 26.8008 20.5872 29.8547C21.6987 32.9086 23.2025 35.4426 24.6968 37.0759C25.4456 37.8944 26.1572 38.4484 26.7775 38.7464C27.3937 39.0424 27.8413 39.0528 28.1613 38.9363C28.4814 38.8198 28.8176 38.5242 29.0993 37.9013C29.3829 37.2743 29.5719 36.3925 29.6195 35.2842C29.7144 33.0725 29.2374 30.1648 28.1259 27.1108C27.0144 24.0569 25.5107 21.5229 24.0163 19.8897C23.2675 19.0712 22.5559 18.5172 21.9356 18.2192C21.3194 17.9231 20.8718 17.9128 20.5518 18.0293C20.2317 18.1458 19.8955 18.4414 19.6138 19.0642C19.3302 19.6912 19.1412 20.5731 19.0936 21.6814ZM17.7916 18.2399C18.2169 17.2996 18.8874 16.5067 19.8678 16.1499C20.8481 15.7931 21.8714 15.9695 22.8017 16.4164C23.7278 16.8613 24.6382 17.6065 25.4919 18.5396C27.2028 20.4095 28.8266 23.1884 30.0053 26.4268C31.184 29.6652 31.7263 32.8377 31.6176 35.3699C31.5634 36.6335 31.345 37.7895 30.9216 38.7256C30.4962 39.6659 29.8257 40.4589 28.8454 40.8157C27.865 41.1725 26.8417 40.9961 25.9115 40.5491C24.9853 40.1042 24.0749 39.3591 23.2212 38.4259C21.5103 36.556 19.8865 33.7771 18.7078 30.5387C17.5292 27.3004 16.9868 24.1278 17.0955 21.5957C17.1497 20.3321 17.3681 19.1761 17.7916 18.2399ZM8.98663 33.66C10.4834 35.291 12.8767 37.0099 15.8222 38.3833C18.7676 39.7568 21.6227 40.4853 23.8342 40.5836C24.9425 40.6328 25.8374 40.5214 26.4868 40.2935C27.1318 40.0671 27.4556 39.7579 27.5995 39.4493C27.7434 39.1406 27.7722 38.6938 27.531 38.0542C27.2881 37.4103 26.7982 36.6531 26.0482 35.8358C24.5513 34.2048 22.158 32.4859 19.2126 31.1125C16.2672 29.739 13.4121 29.0105 11.2006 28.9122C10.0923 28.863 9.19737 28.9744 8.54802 29.2023C7.903 29.4287 7.57922 29.7378 7.43528 30.0465C7.29134 30.3552 7.26263 30.802 7.50382 31.4416C7.74664 32.0855 8.23654 32.8427 8.98663 33.66ZM5.63245 32.1473C5.26831 31.1816 5.18178 30.1468 5.62267 29.2013C6.06355 28.2558 6.91188 27.6569 7.8857 27.3152C8.85519 26.9749 10.0258 26.8581 11.2893 26.9142C13.8213 27.0267 16.9345 27.8434 20.0579 29.2999C23.1812 30.7563 25.808 32.6161 27.5217 34.4835C28.3769 35.4153 29.0398 36.3871 29.4023 37.3485C29.7665 38.3142 29.853 39.349 29.4121 40.2945C28.9712 41.24 28.1229 41.8389 27.1491 42.1806C26.1796 42.5209 25.009 42.6377 23.7455 42.5816C21.2134 42.4691 18.1002 41.6524 14.9769 40.1959C11.8536 38.7395 9.22681 36.8797 7.5131 35.0123C6.65793 34.0805 5.99497 33.1086 5.63245 32.1473ZM27.9033 37.9032C28.185 38.526 28.5212 38.8216 28.8413 38.9381C29.1613 39.0546 29.6089 39.0443 30.2251 38.7483C30.8454 38.4503 31.557 37.8962 32.3058 37.0778C33.8002 35.4445 35.3039 32.9105 36.4154 29.8566C37.5269 26.8027 38.0039 23.8949 37.909 21.6832C37.8614 20.5749 37.6724 19.6931 37.3888 19.0661C37.1071 18.4432 36.7709 18.1476 36.4508 18.0311C36.1308 17.9147 35.6832 17.925 35.067 18.221C34.4467 18.519 33.7351 19.0731 32.9863 19.8915C31.492 21.5248 29.9882 24.0588 28.8767 27.1127C27.7652 30.1666 27.2883 33.0744 27.3831 35.286C27.4307 36.3944 27.6197 37.2762 27.9033 37.9032ZM25.385 35.3718C25.2763 32.8396 25.8187 29.667 26.9973 26.4287C28.176 23.1903 29.7998 20.4114 31.5107 18.5415C32.3644 17.6083 33.2748 16.8632 34.2009 16.4183C35.1312 15.9713 36.1545 15.795 37.1349 16.1518C38.1152 16.5086 38.7857 17.3015 39.211 18.2418C39.6345 19.1779 39.8529 20.3339 39.9071 21.5975C40.0158 24.1297 39.4734 27.3022 38.2948 30.5406C37.1161 33.779 35.4923 36.5579 33.7814 38.4278C32.9277 39.3609 32.0173 40.1061 31.0912 40.551C30.1609 40.9979 29.1376 41.1743 28.1573 40.8175C27.1769 40.4607 26.5064 39.6678 26.0811 38.7275C25.6576 37.7913 25.4392 36.6354 25.385 35.3718ZM29.4744 38.0488C29.2332 38.6884 29.262 39.1352 29.4059 39.4439C29.5498 39.7525 29.8736 40.0617 30.5186 40.2881C31.168 40.516 32.0629 40.6274 33.1712 40.5782C35.3827 40.4799 38.2378 39.7514 41.1832 38.3779C44.1286 37.0045 46.522 35.2856 48.0188 33.6546C48.7689 32.8373 49.2588 32.0801 49.5016 31.4362C49.7428 30.7966 49.714 30.3498 49.5701 30.0411C49.4262 29.7324 49.1024 29.4233 48.4574 29.1969C47.808 28.969 46.9131 28.8576 45.8048 28.9068C43.5933 29.0051 40.7382 29.7336 37.7928 31.1071C34.8474 32.4805 32.454 34.1994 30.9572 35.8304C30.2071 36.6477 29.7172 37.4049 29.4744 38.0488ZM29.4837 34.4781C31.1974 32.6107 33.8242 30.7509 36.9475 29.2945C40.0709 27.838 43.1841 27.0213 45.7161 26.9088C46.9796 26.8527 48.1502 26.9695 49.1197 27.3098C50.0935 27.6515 50.9418 28.2504 51.3827 29.1959C51.8236 30.1414 51.7371 31.1762 51.3729 32.1419C51.0104 33.1032 50.3475 34.0751 49.4923 35.0069C47.7786 36.8743 45.1518 38.7341 42.0285 40.1905C38.9051 41.647 35.7919 42.4637 33.2599 42.5762C31.9964 42.6323 30.8258 42.5155 29.8563 42.1752C28.8825 41.8335 28.0342 41.2346 27.5933 40.2891C27.1524 39.3436 27.2389 38.3088 27.6031 37.3431C27.9656 36.3817 28.6285 35.4099 29.4837 34.4781ZM28.5 40.6948C29.644 40.6948 30.5714 39.7674 30.5714 38.6234C30.5714 37.4794 29.644 36.552 28.5 36.552C27.356 36.552 26.4286 37.4794 26.4286 38.6234C26.4286 39.7674 27.356 40.6948 28.5 40.6948ZM28.5 42.6948C30.7486 42.6948 32.5714 40.872 32.5714 38.6234C32.5714 36.3748 30.7486 34.552 28.5 34.552C26.2514 34.552 24.4286 36.3748 24.4286 38.6234C24.4286 40.872 26.2514 42.6948 28.5 42.6948Z" fill="#76A9FA"/>
<path d="M94.022 15.774V42H88.658V26.916C88.658 26.568 88.664 26.19 88.676 25.782C88.7 25.374 88.736 24.96 88.784 24.54L81.818 38.022C81.602 38.442 81.308 38.76 80.936 38.976C80.576 39.192 80.162 39.3 79.694 39.3H78.866C78.398 39.3 77.978 39.192 77.606 38.976C77.246 38.76 76.958 38.442 76.742 38.022L69.776 24.504C69.812 24.936 69.842 25.362 69.866 25.782C69.89 26.19 69.902 26.568 69.902 26.916V42H64.538V15.774H69.182C69.446 15.774 69.674 15.78 69.866 15.792C70.07 15.804 70.25 15.84 70.406 15.9C70.562 15.96 70.7 16.056 70.82 16.188C70.952 16.308 71.078 16.482 71.198 16.71L77.948 30.012C78.188 30.468 78.416 30.942 78.632 31.434C78.86 31.926 79.076 32.43 79.28 32.946C79.484 32.418 79.694 31.902 79.91 31.398C80.138 30.894 80.378 30.414 80.63 29.958L87.362 16.71C87.482 16.482 87.602 16.308 87.722 16.188C87.854 16.056 87.998 15.96 88.154 15.9C88.31 15.84 88.484 15.804 88.676 15.792C88.88 15.78 89.114 15.774 89.378 15.774H94.022ZM103.909 23.334V42H98.3285V23.334H103.909ZM104.485 18.222C104.485 18.666 104.395 19.086 104.215 19.482C104.035 19.866 103.789 20.208 103.477 20.508C103.165 20.796 102.799 21.03 102.379 21.21C101.971 21.378 101.533 21.462 101.064 21.462C100.609 21.462 100.183 21.378 99.7865 21.21C99.3905 21.03 99.0365 20.796 98.7245 20.508C98.4245 20.208 98.1845 19.866 98.0045 19.482C97.8365 19.086 97.7525 18.666 97.7525 18.222C97.7525 17.766 97.8365 17.34 98.0045 16.944C98.1845 16.548 98.4245 16.2 98.7245 15.9C99.0365 15.6 99.3905 15.366 99.7865 15.198C100.183 15.03 100.609 14.946 101.064 14.946C101.533 14.946 101.971 15.03 102.379 15.198C102.799 15.366 103.165 15.6 103.477 15.9C103.789 16.2 104.035 16.548 104.215 16.944C104.395 17.34 104.485 17.766 104.485 18.222ZM112.948 25.35C113.308 25.014 113.68 24.702 114.064 24.414C114.448 24.126 114.856 23.886 115.288 23.694C115.732 23.49 116.206 23.334 116.71 23.226C117.226 23.106 117.784 23.046 118.384 23.046C119.404 23.046 120.304 23.226 121.084 23.586C121.876 23.934 122.542 24.426 123.082 25.062C123.622 25.686 124.03 26.436 124.306 27.312C124.582 28.176 124.72 29.118 124.72 30.138V42H119.14V30.138C119.14 29.226 118.93 28.518 118.51 28.014C118.09 27.498 117.472 27.24 116.656 27.24C116.044 27.24 115.468 27.372 114.928 27.636C114.4 27.888 113.884 28.236 113.38 28.68V42H107.8V23.334H111.256C111.952 23.334 112.408 23.646 112.624 24.27L112.948 25.35ZM139.653 28.338C139.233 27.87 138.777 27.546 138.285 27.366C137.793 27.174 137.277 27.078 136.737 27.078C136.221 27.078 135.747 27.18 135.315 27.384C134.883 27.588 134.505 27.918 134.181 28.374C133.869 28.818 133.623 29.4 133.443 30.12C133.263 30.84 133.173 31.71 133.173 32.73C133.173 33.714 133.245 34.542 133.389 35.214C133.533 35.886 133.731 36.432 133.983 36.852C134.247 37.26 134.559 37.554 134.919 37.734C135.279 37.914 135.681 38.004 136.125 38.004C136.533 38.004 136.899 37.968 137.223 37.896C137.559 37.812 137.865 37.698 138.141 37.554C138.417 37.41 138.675 37.23 138.915 37.014C139.167 36.786 139.413 36.528 139.653 36.24V28.338ZM145.233 15.054V42H141.777C141.081 42 140.625 41.688 140.409 41.064L139.977 39.642C139.605 40.038 139.215 40.398 138.807 40.722C138.399 41.046 137.955 41.328 137.475 41.568C137.007 41.796 136.497 41.97 135.945 42.09C135.405 42.222 134.817 42.288 134.181 42.288C133.209 42.288 132.309 42.072 131.481 41.64C130.653 41.208 129.939 40.584 129.339 39.768C128.739 38.952 128.265 37.956 127.917 36.78C127.581 35.592 127.413 34.242 127.413 32.73C127.413 31.338 127.605 30.048 127.989 28.86C128.373 27.66 128.913 26.628 129.609 25.764C130.317 24.888 131.163 24.204 132.147 23.712C133.131 23.22 134.217 22.974 135.405 22.974C136.377 22.974 137.193 23.112 137.853 23.388C138.513 23.664 139.113 24.036 139.653 24.504V15.054H145.233ZM153.845 42H150.605V16.296H164.969V19.14H153.845V28.248H164.285V31.092H153.845V42ZM184.411 23.334V42H180.955C180.259 42 179.803 41.688 179.587 41.064L179.263 39.984C178.903 40.332 178.531 40.65 178.147 40.938C177.763 41.214 177.349 41.454 176.905 41.658C176.473 41.85 175.999 42 175.483 42.108C174.979 42.228 174.427 42.288 173.827 42.288C172.807 42.288 171.901 42.114 171.109 41.766C170.329 41.406 169.669 40.908 169.129 40.272C168.589 39.636 168.181 38.886 167.905 38.022C167.629 37.158 167.491 36.21 167.491 35.178V23.334H173.071V35.178C173.071 36.102 173.281 36.816 173.701 37.32C174.121 37.824 174.739 38.076 175.555 38.076C176.167 38.076 176.737 37.95 177.265 37.698C177.805 37.434 178.327 37.08 178.831 36.636V23.334H184.411ZM193.783 15.054V42H188.203V15.054H193.783Z" fill="#76A9FA"/>
</svg>
