<svg width="30" height="24" viewBox="0 0 30 24" fill="none" xmlns="http://www.w3.org/2000/svg">
<path d="M2.69167 23.6666C1.925 23.6666 1.285 23.4099 0.771667 22.8966C0.257222 22.3821 0 21.7416 0 20.9749V3.02492C0 2.25825 0.257222 1.61825 0.771667 1.10492C1.285 0.590474 1.925 0.333252 2.69167 0.333252H10.9933L14.3267 3.66659H27.3083C28.075 3.66659 28.715 3.92381 29.2283 4.43825C29.7428 4.95159 30 5.59159 30 6.35825V20.9749C30 21.7416 29.7433 22.3816 29.23 22.8949C28.7156 23.4094 28.075 23.6666 27.3083 23.6666H2.69167ZM2.69167 21.9999H27.3083C27.6072 21.9999 27.8528 21.9038 28.045 21.7116C28.2372 21.5194 28.3333 21.2738 28.3333 20.9749V6.35825C28.3333 6.05936 28.2372 5.81381 28.045 5.62159C27.8528 5.42936 27.6072 5.33325 27.3083 5.33325H13.6583L10.325 1.99992H2.69167C2.39278 1.99992 2.14722 2.09603 1.955 2.28825C1.76278 2.48047 1.66667 2.72603 1.66667 3.02492V20.9749C1.66667 21.2738 1.76278 21.5194 1.955 21.7116C2.14722 21.9038 2.39278 21.9999 2.69167 21.9999Z" fill="black"/>
</svg>
