<svg width="36" height="36" viewBox="0 0 36 36" fill="none" xmlns="http://www.w3.org/2000/svg">
<path d="M13 31.3333H8.00004C6.23193 31.3333 4.53624 30.6309 3.286 29.3806C2.03575 28.1304 1.33337 26.4347 1.33337 24.6666V9.66659C1.33337 7.89848 2.03575 6.20278 3.286 4.95254C4.53624 3.7023 6.23193 2.99992 8.00004 2.99992H26.3334C28.1015 2.99992 29.7972 3.7023 31.0474 4.95254C32.2977 6.20278 33 7.89848 33 9.66659V14.6666M11.3334 1.33325V4.66659M23 1.33325V4.66659M1.33337 11.3333H33M28.8334 24.0716L26.3334 26.5716" stroke="black" stroke-width="2" stroke-linecap="round" stroke-linejoin="round"/>
<path d="M26.3334 34.6667C30.9358 34.6667 34.6667 30.9357 34.6667 26.3333C34.6667 21.731 30.9358 18 26.3334 18C21.731 18 18.0001 21.731 18.0001 26.3333C18.0001 30.9357 21.731 34.6667 26.3334 34.6667Z" stroke="black" stroke-width="2" stroke-linecap="round" stroke-linejoin="round"/>
</svg>
