<svg width="34" height="34" viewBox="0 0 34 34" fill="none" xmlns="http://www.w3.org/2000/svg">
<path d="M17 10.3335C18.7681 10.3335 20.4638 11.0359 21.7141 12.2861C22.9643 13.5364 23.6667 15.2321 23.6667 17.0002C23.6667 18.7683 22.9643 20.464 21.7141 21.7142C20.4638 22.9645 18.7681 23.6668 17 23.6668C15.2319 23.6668 13.5362 22.9645 12.286 21.7142C11.0357 20.464 10.3334 18.7683 10.3334 17.0002C10.3334 15.2321 11.0357 13.5364 12.286 12.2861C13.5362 11.0359 15.2319 10.3335 17 10.3335ZM17 13.6668C16.116 13.6668 15.2681 14.018 14.643 14.6431C14.0179 15.2683 13.6667 16.1161 13.6667 17.0002C13.6667 17.8842 14.0179 18.7321 14.643 19.3572C15.2681 19.9823 16.116 20.3335 17 20.3335C17.8841 20.3335 18.7319 19.9823 19.357 19.3572C19.9822 18.7321 20.3334 17.8842 20.3334 17.0002C20.3334 16.1161 19.9822 15.2683 19.357 14.6431C18.7319 14.018 17.8841 13.6668 17 13.6668ZM13.6667 33.6668C13.25 33.6668 12.9 33.3668 12.8334 32.9668L12.2167 28.5502C11.1667 28.1335 10.2667 27.5668 9.40003 26.9002L5.25002 28.5835C4.88336 28.7168 4.43336 28.5835 4.23336 28.2168L0.900024 22.4502C0.798017 22.2784 0.762056 22.0754 0.798865 21.8791C0.835675 21.6828 0.942735 21.5066 1.10002 21.3835L4.61669 18.6168L4.50002 17.0002L4.61669 15.3335L1.10002 12.6168C0.942735 12.4937 0.835675 12.3175 0.798865 12.1212C0.762056 11.9249 0.798017 11.7219 0.900024 11.5502L4.23336 5.7835C4.43336 5.41683 4.88336 5.26683 5.25002 5.41683L9.40003 7.0835C10.2667 6.4335 11.1667 5.86683 12.2167 5.45016L12.8334 1.0335C12.9 0.633496 13.25 0.333496 13.6667 0.333496H20.3334C20.75 0.333496 21.1 0.633496 21.1667 1.0335L21.7834 5.45016C22.8334 5.86683 23.7334 6.4335 24.6 7.0835L28.75 5.41683C29.1167 5.26683 29.5667 5.41683 29.7667 5.7835L33.1 11.5502C33.3167 11.9168 33.2167 12.3668 32.9 12.6168L29.3834 15.3335L29.5 17.0002L29.3834 18.6668L32.9 21.3835C33.2167 21.6335 33.3167 22.0835 33.1 22.4502L29.7667 28.2168C29.5667 28.5835 29.1167 28.7335 28.75 28.5835L24.6 26.9168C23.7334 27.5668 22.8334 28.1335 21.7834 28.5502L21.1667 32.9668C21.1 33.3668 20.75 33.6668 20.3334 33.6668H13.6667ZM15.75 3.66683L15.1334 8.01683C13.1334 8.4335 11.3667 9.50016 10.0834 10.9835L6.06669 9.25016L4.81669 11.4168L8.33336 14.0002C7.66669 15.9446 7.66669 18.0557 8.33336 20.0002L4.80002 22.6002L6.05002 24.7668L10.1 23.0335C11.3834 24.5002 13.1334 25.5668 15.1167 25.9668L15.7334 30.3335H18.2667L18.8834 25.9835C20.8667 25.5668 22.6167 24.5002 23.9 23.0335L27.95 24.7668L29.2 22.6002L25.6667 20.0168C26.3334 18.0668 26.3334 15.9502 25.6667 14.0002L29.1834 11.4168L27.9334 9.25016L23.9167 10.9835C22.6071 9.46737 20.8306 8.42962 18.8667 8.0335L18.25 3.66683H15.75Z" fill="black"/>
</svg>
