<svg width="22" height="23" viewBox="0 0 22 23" fill="none" xmlns="http://www.w3.org/2000/svg">
<path d="M11.6517 12.6501L9.12114 15.2835C9.01801 15.3904 8.93616 15.5176 8.8803 15.6578C8.82445 15.7979 8.79569 15.9482 8.79569 16.1C8.79569 16.2518 8.82445 16.4022 8.8803 16.5423C8.93616 16.6824 9.01801 16.8096 9.12114 16.9165C9.22342 17.0243 9.34511 17.1099 9.47919 17.1683C9.61327 17.2266 9.75708 17.2567 9.90232 17.2567C10.0476 17.2567 10.1914 17.2266 10.3255 17.1683C10.4595 17.1099 10.5812 17.0243 10.6835 16.9165L15.0845 12.3166C15.1847 12.2072 15.2632 12.0782 15.3156 11.9371C15.4256 11.6571 15.4256 11.343 15.3156 11.0631C15.2632 10.9219 15.1847 10.7929 15.0845 10.6836L10.6835 6.08358C10.5809 5.97636 10.4591 5.89131 10.3251 5.83328C10.1911 5.77525 10.0474 5.74538 9.90232 5.74538C9.75725 5.74538 9.61359 5.77525 9.47955 5.83328C9.34551 5.89131 9.22373 5.97636 9.12114 6.08358C9.01855 6.19081 8.93718 6.3181 8.88166 6.4582C8.82614 6.59829 8.79756 6.74844 8.79756 6.90008C8.79756 7.05172 8.82614 7.20187 8.88166 7.34196C8.93718 7.48206 9.01855 7.60935 9.12114 7.71658L11.6517 10.3501H1.10026C0.808452 10.3501 0.528597 10.4712 0.322258 10.6869C0.11592 10.9026 0 11.1951 0 11.5001C0 11.8051 0.11592 12.0976 0.322258 12.3132C0.528597 12.5289 0.808452 12.6501 1.10026 12.6501H11.6517ZM11.0026 0.000114647C8.9463 -0.00948066 6.9286 0.583406 5.17833 1.71153C3.42807 2.83965 2.01529 4.45785 1.10026 6.38258C0.968945 6.65708 0.947338 6.97486 1.04019 7.26601C1.13304 7.55715 1.33275 7.79782 1.59537 7.93507C1.858 8.07232 2.16203 8.09491 2.44059 7.99786C2.71915 7.90081 2.94941 7.69207 3.08072 7.41758C3.7763 5.9494 4.83435 4.702 6.14555 3.80428C7.45674 2.90656 8.97351 2.39109 10.5391 2.31113C12.1047 2.23118 13.6623 2.58964 15.051 3.34948C16.4397 4.10932 17.609 5.24297 18.4382 6.63328C19.2674 8.02358 19.7264 9.6201 19.7677 11.2578C19.809 12.8956 19.4311 14.5152 18.673 15.9492C17.915 17.3832 16.8044 18.5796 15.4559 19.4148C14.1074 20.25 12.57 20.6937 11.0026 20.7C9.36197 20.7074 7.75259 20.2312 6.35915 19.3261C4.96572 18.4209 3.84469 17.1234 3.12473 15.5825C2.99342 15.308 2.76316 15.0993 2.4846 15.0023C2.20604 14.9052 1.90201 14.9278 1.63938 15.065C1.37676 15.2023 1.17705 15.443 1.0842 15.7341C0.991349 16.0253 1.01296 16.343 1.14427 16.6175C2.01658 18.4524 3.34206 20.0103 4.98359 21.1302C6.62512 22.25 8.52309 22.8912 10.4812 22.9873C12.4393 23.0835 14.3864 22.6311 16.1211 21.6769C17.8559 20.7228 19.3152 19.3016 20.3483 17.5603C21.3813 15.819 21.9505 13.8209 21.9969 11.7726C22.0434 9.72431 21.5654 7.70024 20.6125 5.90974C19.6596 4.11925 18.2663 2.62735 16.5768 1.58838C14.8873 0.549403 12.9628 0.00107656 11.0026 0.000114647Z" fill="black"/>
</svg>
