<svg width="40" height="40" viewBox="0 0 40 40" fill="none" xmlns="http://www.w3.org/2000/svg">
<path d="M26.7533 2.97852L28.3633 3.41352C30.3323 3.94631 32.1271 4.98601 33.5688 6.42891C35.0106 7.87181 36.0488 9.66749 36.58 11.6368L37.0133 13.2452L33.7967 14.1135L33.3617 12.5052C32.9821 11.0985 32.2403 9.81587 31.2103 8.7853C30.1803 7.75474 28.8982 7.01223 27.4917 6.63185L25.8833 6.19518L26.7533 2.97852ZM1.66667 3.33352H15.9667L18.445 14.4835L15.345 17.5835C17.1669 20.4209 19.5789 22.8323 22.4167 24.6535L25.5167 21.5552L36.6667 24.0335V38.3335H35C28.584 38.3435 22.3027 36.4933 16.9167 33.0069C12.9454 30.4367 9.56348 27.0547 6.99333 23.0835C3.507 17.6974 1.65678 11.4161 1.66667 5.00018V3.33352ZM5.045 6.66685C5.32539 11.8668 6.96245 16.9027 9.79333 21.2735C12.1073 24.8484 15.1518 27.8929 18.7267 30.2069C23.0974 33.0379 28.1334 34.6749 33.3333 34.9552V26.7069L26.5783 25.2069L22.955 28.8319L21.85 28.2035C17.6545 25.8191 14.1811 22.3456 11.7967 18.1502L11.1683 17.0452L14.7933 13.4219L13.2933 6.66685H5.045ZM25.23 8.60852L26.84 9.04352C27.8245 9.30992 28.7219 9.82976 29.4427 10.5512C30.1636 11.2727 30.6827 12.1705 30.9483 13.1552L31.3817 14.7635L28.165 15.6318L27.73 14.0235C27.616 13.6015 27.3934 13.2167 27.0842 12.9076C26.7751 12.5985 26.3904 12.3758 25.9683 12.2618L24.36 11.8268L25.23 8.60852Z" fill="black"/>
</svg>
