<svg width="159" height="54" viewBox="0 0 159 54" fill="none" xmlns="http://www.w3.org/2000/svg">
<rect width="158.114" height="54" rx="20" fill="#233876"/>
<path d="M31.784 36V19.296H35.552V36H31.784ZM26.48 22.344V19.056H40.856V22.344H26.48ZM45.4511 36.264C44.2511 36.264 43.1631 36 42.1871 35.472C41.2271 34.928 40.4671 34.192 39.9071 33.264C39.3471 32.336 39.0671 31.296 39.0671 30.144C39.0671 28.992 39.3471 27.96 39.9071 27.048C40.4671 26.136 41.2271 25.416 42.1871 24.888C43.1471 24.344 44.2351 24.072 45.4511 24.072C46.6671 24.072 47.7551 24.336 48.7151 24.864C49.6751 25.392 50.4351 26.12 50.9951 27.048C51.5551 27.96 51.8351 28.992 51.8351 30.144C51.8351 31.296 51.5551 32.336 50.9951 33.264C50.4351 34.192 49.6751 34.928 48.7151 35.472C47.7551 36 46.6671 36.264 45.4511 36.264ZM45.4511 32.928C45.9791 32.928 46.4431 32.816 46.8431 32.592C47.2431 32.352 47.5471 32.024 47.7551 31.608C47.9791 31.176 48.0911 30.688 48.0911 30.144C48.0911 29.6 47.9791 29.128 47.7551 28.728C47.5311 28.312 47.2191 27.992 46.8191 27.768C46.4351 27.528 45.9791 27.408 45.4511 27.408C44.9391 27.408 44.4831 27.528 44.0831 27.768C43.6831 27.992 43.3711 28.312 43.1471 28.728C42.9231 29.144 42.8111 29.624 42.8111 30.168C42.8111 30.696 42.9231 31.176 43.1471 31.608C43.3711 32.024 43.6831 32.352 44.0831 32.592C44.4831 32.816 44.9391 32.928 45.4511 32.928ZM58.6312 36.24C57.5272 36.24 56.5432 35.976 55.6792 35.448C54.8312 34.92 54.1592 34.2 53.6632 33.288C53.1832 32.376 52.9432 31.336 52.9432 30.168C52.9432 29 53.1832 27.96 53.6632 27.048C54.1592 26.136 54.8312 25.416 55.6792 24.888C56.5432 24.36 57.5272 24.096 58.6312 24.096C59.4312 24.096 60.1512 24.248 60.7912 24.552C61.4472 24.856 61.9832 25.28 62.3992 25.824C62.8312 26.352 63.0712 26.96 63.1192 27.648V32.568C63.0712 33.256 62.8392 33.88 62.4232 34.44C62.0072 34.984 61.4712 35.424 60.8152 35.76C60.1592 36.08 59.4312 36.24 58.6312 36.24ZM59.2792 32.928C59.8072 32.928 60.2632 32.816 60.6472 32.592C61.0312 32.352 61.3352 32.024 61.5592 31.608C61.7832 31.192 61.8952 30.712 61.8952 30.168C61.8952 29.624 61.7832 29.152 61.5592 28.752C61.3512 28.336 61.0472 28.008 60.6472 27.768C60.2632 27.528 59.8152 27.408 59.3032 27.408C58.7912 27.408 58.3352 27.528 57.9352 27.768C57.5512 28.008 57.2392 28.336 56.9992 28.752C56.7752 29.168 56.6632 29.64 56.6632 30.168C56.6632 30.696 56.7752 31.168 56.9992 31.584C57.2232 32 57.5352 32.328 57.9352 32.568C58.3352 32.808 58.7832 32.928 59.2792 32.928ZM65.3512 36H61.7512V32.856L62.3032 30.024L61.6792 27.192V18.576H65.3512V36ZM72.8086 36.24C71.7366 36.24 70.7766 35.976 69.9286 35.448C69.0966 34.92 68.4326 34.2 67.9366 33.288C67.4566 32.376 67.2166 31.336 67.2166 30.168C67.2166 29 67.4566 27.96 67.9366 27.048C68.4326 26.136 69.0966 25.416 69.9286 24.888C70.7766 24.36 71.7366 24.096 72.8086 24.096C73.5926 24.096 74.2966 24.248 74.9206 24.552C75.5606 24.856 76.0806 25.28 76.4806 25.824C76.8806 26.352 77.1046 26.96 77.1526 27.648V32.688C77.1046 33.376 76.8806 33.992 76.4806 34.536C76.0966 35.064 75.5846 35.48 74.9446 35.784C74.3046 36.088 73.5926 36.24 72.8086 36.24ZM73.5526 32.928C74.3366 32.928 74.9686 32.672 75.4486 32.16C75.9286 31.632 76.1686 30.968 76.1686 30.168C76.1686 29.624 76.0566 29.144 75.8326 28.728C75.6246 28.312 75.3206 27.992 74.9206 27.768C74.5366 27.528 74.0886 27.408 73.5766 27.408C73.0646 27.408 72.6086 27.528 72.2086 27.768C71.8246 27.992 71.5126 28.312 71.2726 28.728C71.0486 29.144 70.9366 29.624 70.9366 30.168C70.9366 30.696 71.0486 31.168 71.2726 31.584C71.4966 32 71.8086 32.328 72.2086 32.568C72.6086 32.808 73.0566 32.928 73.5526 32.928ZM76.0246 36V32.856L76.5766 30.024L76.0246 27.192V24.336H79.6246V36H76.0246ZM85.8101 36.048L81.0101 24.336H84.9701L88.0181 33.624H86.5541L89.6741 24.336H93.6341L88.6421 36.048H85.8101ZM82.8101 40.92L86.3141 33.36L88.6421 36.048L86.5781 40.92H82.8101Z" fill="white"/>
<path d="M121.903 22.4887L130.323 22.5946C130.655 22.5983 130.979 22.696 131.259 22.8765C131.538 23.057 131.76 23.3129 131.9 23.6145C132.063 23.9723 132.123 24.3689 132.072 24.759C132.021 25.1491 131.862 25.5171 131.612 25.821L127.338 30.8677C127.171 31.0562 126.964 31.2065 126.734 31.3084C126.503 31.4103 126.253 31.4614 126.001 31.4582C125.748 31.455 125.5 31.3977 125.272 31.29C125.044 31.1824 124.841 31.0269 124.678 30.8342L120.533 25.6817C120.291 25.3716 120.141 24.9997 120.1 24.6084C120.059 24.2171 120.128 23.8222 120.301 23.4686C120.448 23.1706 120.677 22.9204 120.96 22.747C121.244 22.5736 121.571 22.484 121.903 22.4887Z" fill="white"/>
</svg>
