<svg width="29" height="24" viewBox="0 0 29 24" fill="none" xmlns="http://www.w3.org/2000/svg">
<path d="M20.5417 22H8.45841C3.62508 22 2.41675 21 2.41675 17V15C2.41675 11 3.62508 10 8.45841 10H20.5417C25.3751 10 26.5834 11 26.5834 15V17C26.5834 21 25.3751 22 20.5417 22Z" stroke="black" stroke-width="1.5" stroke-linecap="round" stroke-linejoin="round"/>
<path d="M7.25 10V8C7.25 4.69 8.45833 2 14.5 2C19.9375 2 21.75 4 21.75 7" stroke="black" stroke-width="1.5" stroke-linecap="round" stroke-linejoin="round"/>
<path d="M14.5001 18.5C16.1684 18.5 17.5209 17.3807 17.5209 16C17.5209 14.6193 16.1684 13.5 14.5001 13.5C12.8317 13.5 11.4792 14.6193 11.4792 16C11.4792 17.3807 12.8317 18.5 14.5001 18.5Z" stroke="black" stroke-width="1.5" stroke-linecap="round" stroke-linejoin="round"/>
</svg>
