<svg width="27" height="26" viewBox="0 0 27 26" fill="none" xmlns="http://www.w3.org/2000/svg">
<path d="M23.7 1H3.3C2.82261 1 2.36477 1.18964 2.02721 1.52721C1.68964 1.86477 1.5 2.32261 1.5 2.8V23.2C1.5 23.6774 1.68964 24.1352 2.02721 24.4728C2.36477 24.8104 2.82261 25 3.3 25H23.7C24.1774 25 24.6352 24.8104 24.9728 24.4728C25.3104 24.1352 25.5 23.6774 25.5 23.2V2.8C25.5 2.32261 25.3104 1.86477 24.9728 1.52721C24.6352 1.18964 24.1774 1 23.7 1Z" stroke="black" stroke-width="2" stroke-linejoin="round"/>
<path d="M6.30005 10.0324C8.29505 7.63237 10.695 6.43237 13.5 6.43237C16.305 6.43237 18.705 7.63237 20.7 10.0324" stroke="black" stroke-width="2" stroke-linecap="round"/>
<path d="M13.5 17.2001C13.9773 17.2001 14.4352 17.0105 14.7727 16.6729C15.1103 16.3353 15.3 15.8775 15.3 15.4001C15.3 14.9227 15.1103 14.4649 14.7727 14.1273C14.4352 13.7897 13.9773 13.6001 13.5 13.6001C13.0226 13.6001 12.5647 13.7897 12.2272 14.1273C11.8896 14.4649 11.7 14.9227 11.7 15.4001C11.7 15.8775 11.8896 16.3353 12.2272 16.6729C12.5647 17.0105 13.0226 17.2001 13.5 17.2001Z" fill="black"/>
<path d="M10.5 11.2L13.5048 15.4" stroke="black" stroke-width="2" stroke-linecap="round"/>
</svg>
